<svg width="261" height="198" viewBox="0 0 261 198" fill="none" xmlns="http://www.w3.org/2000/svg">
<path d="M70.7498 80.3217C71.4374 78.6203 72.2233 77.2442 72.5632 75.762C74.1915 68.6017 76.3774 61.6636 79.5567 55.0444C80.4002 53.2886 80.7343 51.2794 81.3679 49.4105C81.7926 48.1346 82.1861 46.8001 82.8506 45.6464C85.452 41.1132 87.0597 36.2513 88.0299 31.1297C89.3913 23.9276 91.5766 16.9696 94.1685 10.119C95.6653 6.16554 98.0093 3.24142 102.042 1.86883C103.503 1.36806 104.936 0.57966 106.418 0.446318C114.151 -0.249862 120.004 3.34702 123.988 9.62519C127.466 15.1027 130.308 21.0267 133.089 26.9127C136.458 34.0346 139.216 41.4531 142.692 48.5123C146.649 56.5419 151.08 64.3287 155.367 72.1895C156.615 74.4802 157.3 74.6589 159.246 72.9501C160.666 71.6946 161.778 70.0602 162.953 68.5235C164.459 66.5592 165.825 64.4896 167.362 62.5542C169.951 59.2647 172.926 56.3916 176.358 53.9824C177.408 53.2451 178.353 52.2423 179.089 51.1761C181.796 47.2366 185.731 44.8722 189.665 42.478C194.43 39.5718 199.647 37.9752 205.056 36.8902C206.846 36.5289 208.445 37.0088 210.023 37.8176C212.941 39.3129 215.2 41.524 216.061 44.6816C217.85 51.2534 219.404 57.8919 220.938 64.531C221.277 65.9931 221.117 67.5795 221.152 69.1103C221.26 73.7524 222.561 78.1503 223.736 82.5917C224.921 87.0925 226.001 91.6462 226.747 96.2396C227.108 98.467 226.834 100.872 226.469 103.141C225.871 106.899 226.47 110.502 227.382 114.066C229.007 120.454 229.475 126.955 229.472 133.51C229.472 136.156 229.127 138.802 229.224 141.436C229.322 144.069 229.773 146.681 230.067 149.309C230.374 152.015 230.916 154.725 230.907 157.42C230.895 160.664 232.449 162.627 235.077 163.982C235.946 164.423 236.9 164.743 237.841 164.964C242.429 166.052 246.256 168.346 249.143 172.15C250.648 174.135 252.539 175.531 254.757 176.649C256.854 177.701 258.775 179.117 260.921 180.456C259.104 182.26 257.484 183.691 255.411 184.458C250.661 186.22 246.255 188.608 242.069 191.487C235.193 196.217 227.459 198.196 219.245 197.593C214.995 197.281 210.814 196.002 206.581 195.252C203.979 194.792 201.35 194.382 198.716 194.162C188.32 193.306 177.932 194.08 167.535 194.199C161.102 194.279 154.714 193.543 148.381 192.328C140.385 190.804 132.381 190.961 124.305 192.045C119.375 192.708 114.334 192.609 109.346 192.627C107.624 192.638 105.907 191.793 104.162 191.686C100.988 191.491 97.7852 191.327 94.624 191.57C92.2481 191.75 89.9565 192.782 87.5749 193.101C84.615 193.497 81.6148 193.526 78.6403 193.764C77.8845 193.826 77.1441 194.076 76.3912 194.238C76.1273 194.295 75.8552 194.413 75.5982 194.371C74.7382 194.237 73.8928 193.934 73.0262 193.91C68.367 193.739 63.7026 193.728 59.0408 193.468C53.8171 193.175 48.7071 193.734 43.5235 194.464C34.5479 195.734 25.5526 195.672 16.8386 192.478C12.7102 190.958 10.0811 188.231 9.13255 183.773C8.49208 180.748 7.35317 177.837 6.60514 174.836C5.57843 170.728 5.37547 166.526 5.45673 162.287C5.58589 156.006 6.05972 149.735 5.1754 143.455C3.60783 132.371 3.21853 121.202 3.232 110.011C3.23704 104.192 2.88875 98.4028 1.02223 92.8478C0.234908 90.5137 0.612067 88.2943 0.918057 85.9974C1.41914 82.3121 1.75193 78.592 2.37187 74.933C3.38569 68.9547 4.24016 62.9115 5.76902 57.0472C8.19061 47.7646 15.7709 43.2334 25.1656 45.1539C34.5996 47.0732 42.4105 52.0048 48.7828 59.1971C51.0837 61.8048 53.5354 64.1892 56.1224 66.4901C60.5787 70.4466 64.8163 74.6582 69.1492 78.7675C69.5643 79.1631 69.9794 79.5586 70.7492 80.3018L70.7498 80.3217ZM190.958 87.8482C190.64 88.0764 190.348 88.1945 190.196 88.3979C188.748 90.3406 187.001 92.1529 185.953 94.3026C183.038 100.218 180.383 106.265 177.708 112.302C175.679 116.878 173.609 121.415 170.599 125.433C168.573 128.139 165.777 129.406 162.507 129.323C160.44 129.275 158.379 128.799 156.331 128.432C150.801 127.421 147.58 123.966 146.229 118.564C145.75 116.659 145.367 114.691 144.654 112.872C142.228 106.687 138.629 101.113 135.148 95.5264C130.922 88.7381 127.461 81.4896 122.781 74.9634C119.641 70.59 117.401 65.7325 116.005 60.4521C115.584 58.8531 114.352 57.4472 113.424 56.0025C112.98 55.3193 112.252 54.9927 111.51 55.512C110.633 56.1248 109.16 56.238 109.265 57.7866C109.384 59.4741 109.484 61.1821 109.818 62.8333C110.621 66.7188 110.846 70.6512 110.539 74.5695C110.117 79.9335 108.275 84.862 105.448 89.4317C104.697 90.6376 103.959 91.9725 103.675 93.3436C102.868 97.3463 101.514 101.136 99.9917 104.892C96.8931 112.573 92.7719 119.618 87.6503 126.106C85.1558 129.263 81.9844 130.491 78.1431 130.027C76.7409 129.86 75.3588 129.374 74.0074 128.926C68.4527 127.091 63.6415 124.11 60.4026 119.063C55.9978 112.191 51.7668 105.204 47.3909 98.3104C46.7095 97.2264 45.8123 96.1687 44.7779 95.4632C43.5729 94.6434 42.9471 95.1095 42.7443 96.5678C42.3702 99.2247 41.9667 101.883 41.6126 104.549C40.5918 112.288 40.241 120.057 40.786 127.84C40.9918 130.808 40.7202 133.601 39.6898 136.357C38.6421 139.193 37.7424 142.044 38.0611 145.168C38.1451 146.011 38.3135 146.384 39.1661 146.598C43.9735 147.789 48.7535 149.05 53.5521 150.271C54.4642 150.502 55.3867 150.754 56.314 150.836C59.5695 151.117 62.8356 151.429 66.0962 151.551C70.0955 151.701 74.111 151.732 78.1143 151.683C83.1898 151.623 88.2574 151.294 93.3263 151.343C98.6805 151.393 104.05 151.622 109.394 152.002C116.267 152.485 123.117 152.869 130.012 152.456C136.396 152.068 142.785 152.168 149.161 152.835C155.587 153.51 162.062 153.866 168.464 154.741C176.467 155.837 184.448 156.865 192.529 156.964C195.768 157.007 197.739 155.119 197.555 151.911C197.329 147.909 197.219 143.884 196.747 139.899C196.013 133.704 194.945 127.538 194.132 121.346C193.612 117.372 193.159 113.377 192.962 109.374C192.722 104.587 192.894 99.7672 192.664 94.9795C192.575 92.9828 191.936 91.0023 191.514 89.0254C191.434 88.6398 191.178 88.2992 190.958 87.8581L190.958 87.8482Z" fill="url(#paint0_linear_338_11)"/>
<defs>
<linearGradient id="paint0_linear_338_11" x1="1" y1="103.5" x2="232.5" y2="103.5" gradientUnits="userSpaceOnUse">
<stop stop-color="#CFA448"/>
<stop offset="1" stop-color="#F4E3AB"/>
</linearGradient>
</defs>
</svg>
