<svg width="265" height="218" viewBox="0 0 265 218" fill="none" xmlns="http://www.w3.org/2000/svg">
<path d="M64.0765 101.364C63.806 99.6731 63.7707 98.1952 63.3281 96.8474C61.1786 90.3429 59.5817 83.7473 58.9319 76.9276C58.7598 75.1187 58.0586 73.3526 57.6641 71.5544C57.3887 70.3306 57.0599 69.0749 57.0349 67.8331C56.9286 62.9584 55.8702 58.2999 54.1775 53.741C51.7947 47.3318 50.1877 40.7206 48.9573 33.9992C48.248 30.1198 48.7114 26.6545 51.2718 23.6147C52.1977 22.5106 52.9625 21.1904 54.082 20.3698C59.924 16.0875 66.3325 16.1407 72.54 19.2364C77.9575 21.9361 83.0821 25.2991 88.1402 28.6607C94.2633 32.7266 100.041 37.3238 106.219 41.2882C113.249 45.796 120.541 49.8809 127.753 54.0949C129.854 55.3232 130.487 55.1363 131.219 52.8331C131.747 51.1464 131.849 49.3046 132.046 47.511C132.303 45.216 132.397 42.9047 132.692 40.6182C133.175 36.743 134.167 33.0142 135.748 29.4361C136.232 28.3408 136.503 27.0847 136.578 25.8784C136.842 21.4268 138.846 17.642 140.835 13.8339C143.241 9.21633 146.639 5.42712 150.438 1.95393C151.693 0.802826 153.202 0.416037 154.852 0.301474C157.903 0.090235 160.774 0.767716 162.983 2.87531C167.578 7.26341 172.018 11.8176 176.443 16.3817C177.418 17.3866 178.055 18.7308 178.821 19.9366C181.144 23.5929 184.302 26.4792 187.38 29.4614C190.496 32.4853 193.553 35.6029 196.362 38.9128C197.723 40.5182 198.664 42.5713 199.465 44.56C200.799 47.8496 203.013 50.4395 205.459 52.8469C209.835 57.1664 213.342 62.1346 216.498 67.3725C217.772 69.4864 218.772 71.7664 220.119 73.8228C221.465 75.8792 223.085 77.7489 224.586 79.7059C226.134 81.7204 227.873 83.6233 229.165 85.7811C230.718 88.3778 232.905 89.1976 235.657 89.0135C236.564 88.9476 237.481 88.7435 238.339 88.4663C242.528 87.1247 246.69 87.1134 250.83 88.7609C252.988 89.6211 255.172 89.8253 257.482 89.65C259.665 89.4797 261.881 89.6847 264.24 89.7207C263.659 92.0372 263.054 93.9609 261.767 95.5729C258.822 99.269 256.453 103.3 254.497 107.617C251.283 114.708 246.058 120.016 239.206 123.492C235.66 125.291 231.705 126.284 227.961 127.724C225.662 128.61 223.364 129.55 221.153 130.643C212.436 134.968 204.511 140.592 196.263 145.696C191.163 148.861 185.705 151.351 180.061 153.431C172.939 156.067 166.62 160.049 160.691 164.807C157.073 167.712 152.998 170.061 149.022 172.479C147.652 173.317 145.873 173.47 144.428 174.225C141.798 175.599 139.161 177.012 136.753 178.729C134.941 180.017 133.608 181.946 131.859 183.349C129.686 185.091 127.303 186.56 125.041 188.183C124.467 188.596 123.997 189.153 123.473 189.645C123.29 189.818 123.129 190.043 122.904 190.133C122.152 190.441 121.331 190.606 120.627 191.004C116.823 193.113 113.091 195.352 109.242 197.39C104.928 199.673 101.115 202.582 97.3262 205.663C90.7682 211.002 83.5524 215.287 75.0524 216.934C71.0225 217.71 67.6081 216.798 64.7023 213.694C62.7331 211.586 60.4208 209.81 58.3769 207.772C55.5775 204.986 53.3908 201.727 51.4128 198.301C48.4898 193.222 45.8467 187.984 42.1142 183.393C35.521 175.294 29.8282 166.559 24.4467 157.613C21.6468 152.962 18.5792 148.506 14.4116 144.968C12.6579 143.483 11.8898 141.528 11.0275 139.546C9.65203 136.36 8.12535 133.228 6.85753 130.007C4.78677 124.742 2.55743 119.503 0.953066 114.082C-1.58527 105.5 2.28678 98.2276 10.7169 95.2349C19.1779 92.2224 27.7938 92.3983 36.3498 95.0732C39.4443 96.0477 42.5518 96.7711 45.727 97.3626C51.1932 98.3759 56.6077 99.6984 62.049 100.893C62.5712 101.009 63.0934 101.125 64.0664 101.348L64.0765 101.364ZM163.729 49.4543C163.585 49.7899 163.409 50.0247 163.386 50.2602C163.165 52.5098 162.643 54.7993 162.841 57.0217C163.363 63.1514 164.156 69.2611 164.928 75.3729C165.512 80.0062 166.044 84.6282 165.576 89.2884C165.262 92.426 163.638 94.7851 160.987 96.2945C159.312 97.2523 157.436 97.8648 155.623 98.5582C150.719 100.416 146.48 99.2075 142.799 95.5435C141.498 94.2523 140.244 92.8646 138.797 91.755C133.879 87.9834 128.319 85.2653 122.846 82.4798C116.2 79.0929 109.942 74.9705 103.059 72.0121C98.443 70.0317 94.3135 67.2304 90.654 63.6848C89.5471 62.6105 87.8853 62.0811 86.4477 61.3743C85.7643 61.0422 85.0255 61.132 84.6827 61.9046C84.2772 62.8168 83.1553 63.6168 83.9853 64.8034C84.8933 66.0942 85.7959 67.4105 86.8585 68.5686C89.3727 71.2851 91.4469 74.3183 93.0894 77.5964C95.337 82.0846 96.2405 86.9092 96.1844 91.9216C96.1651 93.2471 96.2188 94.6689 96.6525 95.9012C97.9369 99.4873 98.6815 103.167 99.2749 106.901C100.501 114.53 100.603 122.143 99.638 129.794C99.1667 133.518 97.2249 136.027 93.933 137.508C92.7322 138.05 91.3938 138.327 90.0987 138.621C84.7772 139.831 79.4974 139.768 74.4783 137.297C67.6481 133.93 60.9015 130.387 54.0845 126.989C53.0178 126.451 51.7914 126.039 50.6252 125.973C49.2676 125.899 48.9923 126.573 49.5329 127.836C50.5144 130.139 51.4727 132.456 52.4746 134.757C55.3882 141.431 58.8515 147.806 63.0367 153.76C64.6313 156.032 65.7603 158.394 66.2651 161.092C66.7947 163.863 67.4501 166.574 69.2099 168.916C69.6831 169.549 69.9975 169.766 70.7814 169.526C75.1955 168.16 79.6216 166.865 84.0431 165.528C84.8833 165.273 85.7413 165.029 86.5216 164.648C89.2579 163.305 92.017 161.979 94.6806 160.506C97.9479 158.699 101.17 156.789 104.345 154.821C108.37 152.327 112.26 149.622 116.332 147.219C120.634 144.679 125.034 142.275 129.486 140.003C135.208 137.077 140.866 134.084 146.175 130.432C151.088 127.046 156.24 124.047 161.654 121.507C167.113 118.95 172.457 116.114 177.993 113.729C184.913 110.748 191.784 107.724 198.287 103.909C200.895 102.383 201.56 99.9247 199.868 97.4508C197.759 94.3631 195.732 91.2001 193.435 88.2444C189.863 83.6493 186.039 79.2387 182.406 74.6833C180.075 71.7602 177.788 68.7868 175.702 65.6842C173.204 61.9755 171.019 58.0425 168.528 54.3288C167.495 52.7764 166.031 51.5023 164.741 50.1266C164.491 49.8573 164.122 49.7087 163.734 49.4621L163.729 49.4543Z" fill="#F4F4F4"/>
</svg>
