<svg width="807" height="632" viewBox="0 0 807 632" fill="none" xmlns="http://www.w3.org/2000/svg">
<path d="M221.978 247.344C224.319 242.089 226.933 237.864 228.161 233.257C234.05 211.001 241.662 189.503 252.351 169.113C255.187 163.704 256.455 157.446 258.645 151.66C260.116 147.709 261.496 143.571 263.705 140.029C272.354 126.112 277.926 111.055 281.529 95.1142C286.587 72.6979 294.199 51.1372 303.073 29.9577C308.197 17.7351 315.863 8.83085 328.651 4.97364C333.284 3.56526 337.86 1.25256 342.518 0.997692C366.824 -0.333354 384.767 11.58 396.558 31.689C406.853 49.2336 415.106 68.1074 423.174 86.8554C432.947 109.541 440.773 133.088 450.886 155.588C462.401 181.182 475.431 206.067 487.997 231.168C491.657 238.483 493.781 239.118 500.069 233.978C504.654 230.2 508.32 225.201 512.17 220.516C517.106 214.526 521.612 208.192 526.64 202.297C535.113 192.275 544.751 183.6 555.768 176.429C559.142 174.234 562.211 171.196 564.634 167.936C573.551 155.89 586.139 148.915 598.729 141.846C613.978 133.264 630.5 128.835 647.568 126.03C653.216 125.095 658.171 126.774 663.028 129.482C672.005 134.488 678.842 141.664 681.192 151.652C686.073 172.44 690.212 193.411 694.29 214.382C695.19 219 694.515 223.953 694.458 228.753C694.285 243.31 697.878 257.233 701.069 271.278C704.29 285.51 707.171 299.897 709.003 314.371C709.889 321.39 708.768 328.896 707.373 335.964C705.088 347.673 706.567 359.028 709.033 370.295C713.424 390.488 714.175 410.91 713.445 431.448C713.152 439.739 711.781 447.992 711.797 456.253C711.813 464.514 712.939 472.749 713.572 481.014C714.235 489.527 715.637 498.076 715.313 506.522C714.917 516.682 719.57 523.005 727.654 527.538C730.329 529.018 733.283 530.126 736.208 530.921C750.464 534.834 762.201 542.442 770.829 554.678C775.327 561.062 781.099 565.646 787.924 569.393C794.38 572.92 800.244 577.566 806.819 581.997C800.93 587.451 795.695 591.755 789.114 593.932C774.039 598.93 759.97 605.929 746.54 614.489C724.476 628.551 700.025 633.903 674.354 631.111C661.071 629.667 648.114 625.2 634.932 622.384C626.831 620.656 618.637 619.083 610.41 618.103C577.93 614.276 545.298 615.561 512.708 614.789C492.544 614.335 472.61 611.326 452.9 606.822C428.015 601.167 402.917 600.78 377.494 603.289C361.975 604.824 346.192 603.958 330.561 603.467C325.165 603.312 319.877 600.477 314.422 599.949C304.498 598.99 294.481 598.124 284.55 598.537C277.086 598.839 269.792 601.822 262.295 602.56C252.977 603.475 243.573 603.236 234.228 603.652C231.853 603.764 229.505 604.468 227.129 604.891C226.295 605.042 225.43 605.381 224.629 605.22C221.949 604.707 219.334 603.664 216.621 603.493C202.042 602.446 187.428 601.898 172.85 600.57C156.515 599.078 140.443 600.267 124.122 601.985C95.8592 604.978 67.6816 603.794 40.7297 592.828C27.9615 587.614 20.0237 578.78 17.5419 564.707C15.8678 555.159 12.6193 545.914 10.6056 536.426C7.84031 523.443 7.66636 510.256 8.38714 496.981C9.48235 477.317 11.6564 457.721 9.57616 437.947C5.88333 403.044 5.89157 368.006 7.16423 332.944C7.81984 314.712 7.36504 296.536 2.12754 278.925C-0.082676 271.525 1.34307 264.613 2.55435 257.45C4.52957 245.958 5.98128 234.339 8.32601 222.942C12.1599 204.322 15.5016 185.481 20.9366 167.275C29.5447 138.457 53.7938 125.093 83.0184 132.143C112.366 139.194 136.298 155.505 155.473 178.741C162.395 187.164 169.815 194.905 177.668 202.398C191.195 215.285 204.009 228.947 217.133 242.299C218.391 243.584 219.648 244.869 221.978 247.282L221.978 247.344ZM597.79 284.144C596.768 284.824 595.841 285.161 595.344 285.782C590.594 291.71 584.921 297.196 581.4 303.816C571.617 322.03 562.633 340.684 553.588 359.306C546.726 373.421 539.742 387.41 529.868 399.669C523.224 407.924 514.323 411.584 504.089 410.967C497.615 410.588 491.211 408.869 484.835 407.494C467.619 403.721 457.905 392.538 454.268 375.467C452.976 369.443 451.992 363.235 449.958 357.457C443.036 337.811 432.373 319.952 422.079 302.065C409.587 280.331 399.539 257.239 385.593 236.277C376.235 222.228 369.752 206.762 365.959 190.064C364.815 185.008 361.109 180.467 358.359 175.839C357.045 173.649 354.8 172.546 352.417 174.091C349.601 175.915 344.975 176.108 345.133 180.971C345.32 186.272 345.444 191.634 346.31 196.845C348.401 209.107 348.672 221.453 347.278 233.696C345.366 250.456 339.053 265.696 329.695 279.703C327.207 283.399 324.749 287.5 323.708 291.765C320.74 304.218 316.081 315.944 310.898 327.543C300.345 351.27 286.658 372.89 269.897 392.655C261.734 402.273 251.662 405.771 239.678 403.897C235.303 403.218 231.026 401.543 226.84 399.992C209.638 393.632 194.891 383.762 185.298 367.593C172.252 345.575 159.764 323.218 146.811 301.139C144.795 297.668 142.1 294.255 138.937 291.931C135.252 289.23 133.24 290.621 132.444 295.168C130.979 303.452 129.423 311.735 128.02 320.051C123.971 344.187 122.017 368.491 122.869 392.935C123.188 402.257 122.03 410.979 118.498 419.501C114.904 428.272 111.771 437.107 112.427 446.93C112.597 449.581 113.084 450.768 115.731 451.531C130.663 455.791 145.502 460.268 160.402 464.621C163.235 465.447 166.098 466.335 168.994 466.694C179.163 467.935 189.363 469.269 199.565 470.011C212.08 470.922 224.658 471.459 237.206 471.746C253.116 472.115 269.03 471.641 284.906 472.352C301.677 473.099 318.476 474.408 335.179 476.183C356.659 478.453 378.079 480.41 399.729 479.875C419.776 479.362 439.783 480.376 459.687 483.167C479.746 485.99 499.995 487.816 519.958 491.261C544.911 495.576 569.804 499.672 595.114 500.872C605.256 501.364 611.64 495.664 611.418 485.594C611.148 473.03 611.249 460.405 610.208 447.868C608.588 428.376 605.92 408.941 604.054 389.448C602.859 376.941 601.88 364.373 601.703 351.81C601.477 336.783 602.547 321.702 602.352 306.675C602.294 300.409 600.51 294.134 599.403 287.893C599.194 286.676 598.429 285.581 597.789 284.175L597.79 284.144Z" fill="#1C1B1B"/>
</svg>
