<svg width="282" height="278" viewBox="0 0 282 278" fill="none" xmlns="http://www.w3.org/2000/svg">
<path d="M121.708 67.4662C123.383 66.2682 124.956 65.4375 126.171 64.2378C132.023 58.4339 138.27 53.1762 145.267 48.8185C147.123 47.6627 148.649 45.9602 150.374 44.5709C151.544 43.6178 152.72 42.5902 154.044 41.8972C159.238 39.168 163.687 35.5293 167.689 31.2609C173.314 25.2568 179.573 19.9799 186.152 15.0495C189.95 12.2047 193.931 10.8452 198.578 11.9723C200.264 12.3773 202.096 12.4929 203.58 13.2585C211.326 17.2536 214.706 24.1843 214.701 32.5304C214.7 39.8134 213.826 47.1366 212.919 54.3875C211.824 63.1631 209.972 71.8518 209.015 80.6319C207.931 90.6212 207.443 100.666 206.773 110.694C206.577 113.616 207.117 114.197 209.99 113.75C212.091 113.415 214.129 112.536 216.167 111.787C218.776 110.833 221.316 109.694 223.937 108.785C228.37 107.227 232.918 106.296 237.619 106.079C239.059 106.013 240.557 105.631 241.896 105.064C246.833 102.961 251.984 103.089 257.152 103.189C263.416 103.304 269.32 104.931 275.098 107.159C277.011 107.894 278.237 109.311 279.246 111.027C281.11 114.2 281.92 117.655 280.835 121.165C278.573 128.468 276.05 135.693 273.508 142.907C272.948 144.496 271.842 145.903 270.954 147.374C268.262 151.837 266.847 156.787 265.287 161.702C263.701 166.68 261.983 171.644 259.925 176.445C258.926 178.773 257.219 180.887 255.507 182.816C252.679 186.017 251.077 189.791 249.797 193.717C247.492 200.747 244.022 207.189 240.073 213.397C238.48 215.904 236.56 218.204 235.068 220.757C233.575 223.31 232.43 226.057 231.128 228.724C229.789 231.472 228.672 234.366 227.041 236.915C225.077 239.98 225.367 242.775 227.042 245.641C227.599 246.582 228.31 247.46 229.069 248.236C232.761 252.028 235.006 256.505 235.452 261.846C235.683 264.633 236.635 267.094 238.062 269.488C239.416 271.747 240.385 274.245 241.611 276.805C238.804 277.421 236.408 277.801 233.982 277.28C228.421 276.091 222.809 275.701 217.111 275.91C207.749 276.252 199.23 273.472 191.81 267.956C187.971 265.102 184.78 261.375 181.221 258.116C179.033 256.114 176.788 254.143 174.426 252.349C165.091 245.279 154.784 239.761 144.862 233.615C138.718 229.82 133.109 225.277 127.84 220.313C121.182 214.057 113.504 209.387 105.2 205.554C100.13 203.214 95.4139 200.086 90.6769 197.101C89.0391 196.075 87.9202 194.241 86.3319 193.089C83.4417 190.994 80.5059 188.911 77.3648 187.238C75.0056 185.978 72.2129 185.577 69.7644 184.446C66.7218 183.039 63.8617 181.261 60.9009 179.695C60.1474 179.299 59.295 179.091 58.4845 178.791C58.1998 178.687 57.8713 178.634 57.6531 178.439C56.9188 177.795 56.3004 176.999 55.4939 176.455C51.1822 173.488 46.7698 170.67 42.5095 167.618C37.7368 164.196 32.559 161.65 27.2083 159.221C17.9399 155.022 9.45486 149.549 3.12134 141.277C0.124357 137.353 -0.72496 133.187 1.05978 128.392C2.2737 125.14 2.94663 121.697 4.04476 118.403C5.54446 113.893 7.88119 109.79 10.5102 105.822C14.4129 99.9495 18.6363 94.2936 21.5787 87.8111C26.7654 76.3657 33.1194 65.5494 39.8682 54.9548C43.3756 49.4445 46.5301 43.7502 48.1053 37.3637C48.7643 34.6783 50.4576 32.8026 52.13 30.8106C54.823 27.6206 57.3775 24.2964 60.1672 21.2029C64.7263 16.149 69.1734 10.9377 74.1517 6.30188C82.0334 -1.03525 91.9427 -0.765586 99.6876 6.7088C107.47 14.2058 111.903 23.5797 113.611 34.2296C114.221 38.0852 115.109 41.82 116.175 45.5571C118.015 51.988 119.495 58.5289 121.127 65.0303C121.282 65.655 121.437 66.2796 121.719 67.447L121.708 67.4662ZM231.067 146.952C230.629 146.977 230.281 146.914 230.015 147.015C227.474 147.984 224.728 148.65 222.441 150.055C216.119 153.905 209.964 158.036 203.795 162.146C199.118 165.26 194.426 168.313 189.155 170.308C185.607 171.652 182.196 171.169 179.148 169.123C177.218 167.833 175.552 166.141 173.833 164.561C169.202 160.275 168.23 155.062 170.201 149.132C170.894 147.038 171.716 144.942 172.135 142.79C173.559 135.469 173.504 128.023 173.569 120.634C173.652 111.659 174.735 102.708 174.23 93.7082C173.887 87.6745 174.689 81.7242 176.545 75.8811C177.108 74.1127 176.787 72.039 176.777 70.1114C176.768 69.1973 176.275 68.4497 175.259 68.4949C174.059 68.5475 172.596 67.7683 171.763 69.2986C170.86 70.9689 169.926 72.6471 169.249 74.4128C167.672 78.5778 165.517 82.4386 162.868 85.966C159.239 90.7942 154.528 94.355 149.099 96.9831C147.661 97.6733 146.159 98.4939 145.064 99.6219C141.891 102.929 138.326 105.705 134.624 108.346C127.064 113.759 118.919 117.953 110.162 121.017C105.898 122.507 102.154 121.761 98.7937 119.01C97.566 118.007 96.5493 116.714 95.5382 115.477C91.3801 110.395 88.6161 104.675 88.5853 97.9434C88.5487 88.7808 88.7457 79.6142 88.749 70.4494C88.7558 69.0122 88.5424 67.47 87.9871 66.179C87.3389 64.677 86.4654 64.7419 85.3954 66.0014C83.4417 68.2936 81.4596 70.5689 79.5192 72.8819C73.8937 79.5999 68.8849 86.7495 64.7169 94.4509C63.1254 97.3869 61.1867 99.8698 58.5516 101.861C55.8519 103.917 53.2831 106.077 51.7047 109.229C51.2769 110.078 51.212 110.533 51.8912 111.248C55.7292 115.27 59.4989 119.342 63.3103 123.387C64.035 124.156 64.7579 124.949 65.5871 125.585C68.5019 127.811 71.409 130.072 74.4245 132.151C78.1232 134.701 81.9093 137.146 85.7316 139.51C90.5767 142.508 95.5759 145.246 100.349 148.344C105.391 151.615 110.341 155.064 115.176 158.64C121.396 163.234 127.655 167.721 134.436 171.481C140.718 174.956 146.712 178.896 152.351 183.366C158.033 187.873 163.953 192.108 169.492 196.79C176.414 202.646 183.357 208.423 190.954 213.381C193.996 215.372 197.001 214.769 198.758 211.62C200.952 207.692 203.271 203.812 205.223 199.753C208.256 193.441 210.955 186.957 213.913 180.6C215.811 176.522 217.787 172.464 220.009 168.553C222.664 163.873 225.728 159.411 228.392 154.736C229.51 152.791 230.096 150.53 230.886 148.403C231.042 147.989 231.004 147.512 231.062 146.962L231.067 146.952Z" fill="#F4F4F4"/>
</svg>
