<svg width="22" height="22" viewBox="0 0 22 22" fill="none" xmlns="http://www.w3.org/2000/svg">
<path d="M11 0.9C5.43856 0.9 0.9 5.43888 0.9 11C0.9 16.5614 5.43888 21.1 11 21.1C16.5614 21.1 21.1 16.5611 21.1 11C21.1 5.43856 16.5611 0.9 11 0.9ZM11 19.7281C6.18738 19.7281 2.27188 15.8126 2.27188 11C2.27188 6.18738 6.18738 2.27188 11 2.27188C15.8126 2.27188 19.7281 6.18738 19.7281 11C19.7281 15.8126 15.8126 19.7281 11 19.7281Z" fill="black" stroke="black" stroke-width="0.2"/>
<path d="M10.515 11.485L10.515 11.485L14.0306 15.0007C14.2985 15.2685 14.7328 15.2686 15.0007 15.0007C15.2686 14.7328 15.2686 14.2985 15.0007 14.0306L11.6859 10.7159V7.48438C11.6859 7.10555 11.3788 6.79844 11 6.79844C10.6212 6.79844 10.3141 7.10555 10.3141 7.48438V11C10.3141 11.1819 10.3864 11.3564 10.515 11.485Z" fill="black" stroke="black" stroke-width="0.2"/>
</svg>
