<svg width="19" height="20" viewBox="0 0 19 20" fill="none" xmlns="http://www.w3.org/2000/svg">
<path d="M6.62458 11.3191C6.62458 11.0843 6.43411 10.894 6.19909 10.894H4.71432C4.47957 10.894 4.28906 11.0843 4.28906 11.3191V12.8037C4.28906 13.0388 4.47957 13.2291 4.71432 13.2291H6.19909C6.43411 13.2291 6.62458 13.0388 6.62458 12.8037V11.3191Z" fill="black"/>
<path d="M10.3314 11.3191C10.3314 11.0843 10.1409 10.894 9.90632 10.894H8.42135C8.1866 10.894 7.99609 11.0843 7.99609 11.3191V12.8037C7.99609 13.0388 8.1866 13.2291 8.42135 13.2291H9.90632C10.1409 13.2291 10.3314 13.0388 10.3314 12.8037V11.3191Z" fill="black"/>
<path d="M14.0425 11.3191C14.0425 11.0843 13.852 10.894 13.6173 10.894H12.1325C11.8975 10.894 11.707 11.0843 11.707 11.3191V12.8037C11.707 13.0388 11.8975 13.2291 12.1325 13.2291H13.6173C13.852 13.2291 14.0425 13.0388 14.0425 12.8037V11.3191Z" fill="black"/>
<path d="M6.62458 15.03C6.62458 14.7948 6.43411 14.6047 6.19909 14.6047H4.71432C4.47957 14.6047 4.28906 14.7948 4.28906 15.03V16.5143C4.28906 16.7493 4.47957 16.9396 4.71432 16.9396H6.19909C6.43411 16.9396 6.62458 16.7493 6.62458 16.5143V15.03Z" fill="black"/>
<path d="M10.3314 15.03C10.3314 14.7948 10.1409 14.6047 9.90632 14.6047H8.42135C8.1866 14.6047 7.99609 14.7948 7.99609 15.03V16.5143C7.99609 16.7493 8.1866 16.9396 8.42135 16.9396H9.90632C10.1409 16.9396 10.3314 16.7493 10.3314 16.5143V15.03Z" fill="black"/>
<path d="M14.0425 15.03C14.0425 14.7948 13.852 14.6047 13.6175 14.6047H12.1325C11.8975 14.6047 11.707 14.7948 11.707 15.03V16.5143C11.707 16.7493 11.8975 16.9396 12.1325 16.9396H13.6175C13.852 16.9396 14.0425 16.7493 14.0425 16.5143V15.03Z" fill="black"/>
<path d="M16.6984 3.06478V5.33237C16.6984 6.35729 15.867 7.18322 14.8422 7.18322H13.6712C12.6464 7.18322 11.8039 6.35729 11.8039 5.33237V3.05664H6.52607V5.33237C6.52607 6.35729 5.68363 7.18322 4.65893 7.18322H3.48774C2.46301 7.18322 1.63159 6.35729 1.63159 5.33237V3.06478C0.735957 3.09178 0 3.83288 0 4.74379V18.0329C0 18.9609 0.7522 19.7231 1.68024 19.7231H16.6497C17.5764 19.7231 18.33 18.9594 18.33 18.0329V4.74379C18.33 3.83288 17.5941 3.09178 16.6984 3.06478ZM16.1546 17.2054C16.1546 17.6064 15.8294 17.9318 15.4282 17.9318H2.86983C2.46861 17.9318 2.14343 17.6064 2.14343 17.2054V10.3411C2.14343 9.93984 2.46857 9.61447 2.86983 9.61447H15.4281C15.8293 9.61447 16.1545 9.93984 16.1545 10.3411L16.1546 17.2054Z" fill="black"/>
<path d="M3.48427 5.96732H4.64252C4.99408 5.96732 5.27914 5.68269 5.27914 5.33113V1.61372C5.27914 1.26212 4.99408 0.977295 4.64252 0.977295H3.48427C3.13267 0.977295 2.84766 1.26212 2.84766 1.61372V5.33113C2.84766 5.68269 3.13267 5.96732 3.48427 5.96732Z" fill="black"/>
<path d="M13.66 5.96732H14.8183C15.1696 5.96732 15.4546 5.68269 15.4546 5.33113V1.61372C15.4547 1.26212 15.1696 0.977295 14.8183 0.977295H13.66C13.3085 0.977295 13.0234 1.26212 13.0234 1.61372V5.33113C13.0234 5.68269 13.3085 5.96732 13.66 5.96732Z" fill="black"/>
</svg>
