<svg width="13" height="14" viewBox="0 0 13 14" fill="none" xmlns="http://www.w3.org/2000/svg">
<path d="M11.9529 0.777195L6.2238 1.11307C5.99978 1.10947 5.81423 1.28213 5.80944 1.49874C5.80462 1.71533 5.98231 1.89386 6.20636 1.89743C6.22725 1.89776 6.24815 1.89656 6.26884 1.89377L11.0213 1.61793L0.312761 13.2433C0.16339 13.4055 0.177691 13.6534 0.344727 13.797C0.511765 13.9406 0.768252 13.9256 0.917623 13.7634L11.6262 2.13804L11.891 6.72818C11.8861 6.94477 12.0638 7.1233 12.2879 7.12687C12.5119 7.13045 12.6974 6.95781 12.7022 6.7412C12.7027 6.721 12.7015 6.7008 12.6988 6.68082L12.3793 1.14382C12.3663 0.928589 12.1758 0.764775 11.9529 0.777195Z" fill="black"/>
</svg>
