<svg width="31" height="35" viewBox="0 0 31 35" fill="none" xmlns="http://www.w3.org/2000/svg">
<path d="M23.181 14.7239V8.28708C23.181 8.10283 23.0959 7.9326 22.9755 7.79792L15.7588 0.219795C15.6241 0.078109 15.4326 0 15.2414 0H3.79957C1.68726 0 0 1.72255 0 3.83512V25.4708C0 27.5834 1.68726 29.2776 3.79957 29.2776H12.8311C14.5394 32.1132 17.6446 34.013 21.1818 34.013C26.5552 34.013 30.9433 29.6461 30.9433 24.2657C30.9506 19.5656 27.5761 15.6384 23.181 14.7239ZM15.9503 2.48833L20.792 7.58513H17.6516C16.7158 7.58513 15.9503 6.81261 15.9503 5.87686V2.48833ZM3.79957 27.8597C2.47406 27.8597 1.4179 26.7963 1.4179 25.4708V3.83512C1.4179 2.50234 2.47406 1.4179 3.79957 1.4179H14.5324V5.87686C14.5324 7.59941 15.929 9.00303 17.6516 9.00303H21.7631V14.5394C21.5505 14.5324 21.3803 14.5111 21.1961 14.5111C18.722 14.5111 16.4465 15.4612 14.7309 16.9499H5.7279C5.33788 16.9499 5.01896 17.2688 5.01896 17.6586C5.01896 18.0486 5.33788 18.3675 5.7279 18.3675H13.4124C12.909 19.0765 12.4907 19.7854 12.1648 20.5652H5.7279C5.33788 20.5652 5.01896 20.8842 5.01896 21.2742C5.01896 21.6639 5.33788 21.9831 5.7279 21.9831H11.7039C11.5267 22.6921 11.4345 23.4789 11.4345 24.2657C11.4345 25.5416 11.6826 26.8036 12.1292 27.867H3.79957V27.8597ZM21.1891 32.6023C16.5954 32.6023 12.8594 28.8663 12.8594 24.2727C12.8594 19.679 16.5882 15.9431 21.1891 15.9431C25.7897 15.9431 29.5184 19.679 29.5184 24.2727C29.5184 28.8663 25.7827 32.6023 21.1891 32.6023Z" fill="#DE5E00"/>
<path d="M5.72848 14.8161H12.9096C13.2996 14.8161 13.6185 14.4969 13.6185 14.1071C13.6185 13.7171 13.2996 13.3982 12.9096 13.3982H5.72848C5.33845 13.3982 5.01953 13.7171 5.01953 14.1071C5.01953 14.4969 5.33845 14.8161 5.72848 14.8161Z" fill="#DE5E00"/>
<path d="M24.8188 24.1236L21.9054 27.264V19.5229C21.9054 19.1329 21.5862 18.814 21.1964 18.814C20.8064 18.814 20.4875 19.1329 20.4875 19.5229V27.264L17.5526 24.1236C17.2832 23.8402 16.8296 23.8189 16.546 24.0883C16.2623 24.3576 16.2411 24.8042 16.5107 25.0879L20.6577 29.5468C20.7924 29.6885 20.9766 29.7736 21.1752 29.7736C21.3737 29.7736 21.5579 29.6885 21.6926 29.5468L25.8469 25.0879C26.1163 24.8042 26.102 24.3506 25.8184 24.0883C25.5277 23.8189 25.0884 23.8402 24.8188 24.1236Z" fill="#DE5E00"/>
</svg>
