<svg width="44" height="107" viewBox="0 0 44 107" fill="none" xmlns="http://www.w3.org/2000/svg">
<path d="M25.8256 85.5386H3.34546V106.714" stroke="black" stroke-miterlimit="10"/>
<path d="M0 96.7783H25.5745" stroke="black" stroke-miterlimit="10"/>
<path d="M29.6053 94.5034H39.7415V106.898" stroke="black" stroke-miterlimit="10"/>
<path d="M20.5063 101.328H43.1705" stroke="black" stroke-miterlimit="10"/>
<path d="M35.3093 91.091V62.3218H25.2401" stroke="black" stroke-miterlimit="10"/>
<path d="M7.97827 85.6385V58.0234H21.9949" stroke="black" stroke-miterlimit="10"/>
<path d="M4.49939 71.9067H20.2221" stroke="black" stroke-miterlimit="10"/>
<path d="M24.9724 79.0986H38.5207" stroke="black" stroke-miterlimit="10"/>
<path d="M30.7429 62.4226V48.707H20.7406" stroke="black" stroke-miterlimit="10"/>
<path d="M12.528 57.7892V37.5337H21.6438V42.1669" stroke="black" stroke-miterlimit="10"/>
<path d="M9.06543 46.7666H17.2948" stroke="black" stroke-miterlimit="10"/>
<path d="M34.1217 53.5405H24.9724V85.4375" stroke="black" stroke-miterlimit="10"/>
<path d="M26.1936 45.5291V19.1685H17.245V96.3268" stroke="black" stroke-miterlimit="10"/>
<path d="M13.5483 28.4844H29.5554" stroke="black" stroke-miterlimit="10"/>
<path d="M23.9856 19.8209V7.82812H19.3357V19.386" stroke="black" stroke-miterlimit="10"/>
<path d="M21.6603 7.91153V0" stroke="black" stroke-miterlimit="10"/>
</svg>
