<svg width="23" height="23" viewBox="0 0 23 23" fill="none" xmlns="http://www.w3.org/2000/svg">
<path fill-rule="evenodd" clip-rule="evenodd" d="M19.0037 5.36523C19.0037 6.12758 18.3856 6.74609 17.6237 6.74609C16.8619 6.74609 16.2437 6.12758 16.2437 5.36523C16.2437 4.60288 16.8619 3.98437 17.6237 3.98437C18.3856 3.98437 19.0037 4.60288 19.0037 5.36523ZM11.4856 15.3333C9.3725 15.3333 7.66187 13.6216 7.66187 11.5072C7.66187 9.39275 9.3725 7.68105 11.4856 7.68105C13.5987 7.68105 15.3094 9.39275 15.3094 11.5072C15.3094 13.6216 13.6131 15.3333 11.4856 15.3333ZM11.4856 5.59537C8.2225 5.59537 5.59187 8.24203 5.59187 11.4928C5.59187 14.7436 8.23687 17.3902 11.4856 17.3902C14.7344 17.3902 17.3794 14.7436 17.3794 11.4928C17.3937 8.24203 14.7487 5.59537 11.4856 5.59537ZM11.4856 2.07129C14.5475 2.07129 14.9212 2.08568 16.1287 2.14321C17.25 2.20075 17.8537 2.38774 18.2562 2.54597C18.7881 2.76173 19.1762 3.00625 19.5787 3.40901C19.9812 3.81176 20.2256 4.20013 20.4412 4.73233C20.5994 5.13508 20.7862 5.73921 20.8437 6.86116C20.9012 8.06942 20.9156 8.4434 20.9156 11.5072C20.9156 14.571 20.9012 14.945 20.8437 16.1532C20.7862 17.2752 20.5994 17.8793 20.4412 18.2821C20.2256 18.8143 19.9812 19.2026 19.5787 19.6054C19.1762 20.0081 18.7881 20.2527 18.2562 20.4684C17.8537 20.6266 17.25 20.8136 16.1287 20.8712C14.9212 20.9287 14.5475 20.9431 11.4856 20.9431C8.42375 20.9431 8.05 20.9287 6.8425 20.8712C5.72125 20.8136 5.1175 20.6266 4.715 20.4684C4.18312 20.2527 3.795 20.0081 3.3925 19.6054C2.99 19.2026 2.74562 18.8143 2.53 18.2821C2.37187 17.8793 2.185 17.2752 2.1275 16.1532C2.07 14.945 2.05562 14.571 2.05562 11.5072C2.05562 8.4434 2.07 8.06942 2.1275 6.86116C2.185 5.73921 2.37187 5.13508 2.53 4.73233C2.74562 4.20013 2.99 3.81176 3.3925 3.40901C3.795 3.00625 4.18312 2.76173 4.715 2.54597C5.1175 2.38774 5.72125 2.20075 6.8425 2.14321C8.06437 2.08568 8.42375 2.07129 11.4856 2.07129ZM11.4856 0C8.36625 0 7.97812 0.014384 6.75625 0.07192C5.53437 0.129456 4.70062 0.316448 3.9675 0.604128C3.20562 0.891807 2.57312 1.29456 1.92625 1.92745C1.27937 2.56035 0.89125 3.20763 0.60375 3.96998C0.31625 4.70357 0.129375 5.53784 0.071875 6.76048C0.014375 7.98311 0 8.37148 0 11.4928C0 14.6141 0.014375 15.0025 0.071875 16.2395C0.129375 17.4622 0.31625 18.2964 0.60375 19.03C0.89125 19.7924 1.29375 20.4253 1.92625 21.0725C2.55875 21.7198 3.20562 22.1082 3.9675 22.3959C4.70062 22.6836 5.53437 22.8705 6.75625 22.9281C7.97812 22.9856 8.36625 23 11.5 23C14.6337 23 15.0075 22.9856 16.2437 22.9281C17.4656 22.8705 18.2994 22.6836 19.0325 22.3959C19.7944 22.1082 20.4269 21.7054 21.0737 21.0725C21.7062 20.4396 22.1087 19.7924 22.3962 19.03C22.6837 18.2964 22.8706 17.4622 22.9281 16.2395C22.9856 15.0169 23 14.6285 23 11.4928C23 8.3571 22.9856 7.98312 22.9281 6.74609C22.8706 5.52345 22.6837 4.68918 22.3962 3.9556C22.1087 3.19325 21.7062 2.56035 21.0737 1.91307C20.4412 1.28018 19.7944 0.877423 19.0325 0.589744C18.2994 0.302064 17.4656 0.115072 16.2437 0.057536C15.0075 0.014384 14.605 0 11.4856 0Z" fill="white"/>
</svg>
