<svg width="49" height="6" viewBox="0 0 49 6" fill="none" xmlns="http://www.w3.org/2000/svg">
<path d="M34.8885 2.77177C26.5292 3.15136 17.988 3.47697 9.43506 3.96819C6.74009 4.12215 4.01097 4.76352 1.3038 5.07828C0.871053 5.12782 0.470609 4.63974 0.0557851 4.40278C0.48699 3.95756 0.936494 3.18299 1.34688 3.12167C6.84372 2.29551 12.3681 1.13616 17.8207 0.917902C25.7236 0.59741 33.5781 0.927284 41.4421 1.10324C43.2012 1.14376 44.9162 1.69214 46.6498 2.02556C46.926 2.07946 47.2477 2.06166 47.4476 2.37715C47.776 2.89852 48.0221 3.66419 48.3038 4.32859C47.8828 4.60329 47.4269 5.17708 47.0444 5.10775C43.0533 4.40032 39.0736 3.58919 34.8897 2.7695L34.8885 2.77177Z" fill="#ffffff"/>
</svg>
