<svg width="39" height="23" viewBox="0 0 39 23" fill="none" xmlns="http://www.w3.org/2000/svg">
<path d="M19.4062 0.012221C14.2515 0.012221 9.43629 1.40542 6.13723 3.64187H0C1.0067 4.82731 1.74656 6.44049 1.9285 7.54038C0.77625 9.14134 0.0727734 11.1211 0.0727734 13.2598C0.0727734 18.6371 4.40279 23 9.73951 23C12.7717 23 15.4765 21.5701 17.2473 19.3704C17.9629 20.2258 19.1637 21.9245 19.4062 22.4256C19.4062 22.4256 20.7889 20.3725 21.5652 19.407C23.336 21.5946 26.0529 23 29.073 23C34.4097 23 38.7397 18.6371 38.7397 13.2598C38.7397 11.1211 38.0484 9.12912 36.884 7.52816C37.0659 6.42827 37.8179 4.81509 38.8125 3.62965H32.3721C29.0851 1.3932 24.561 0 19.4062 0V0.012221ZM19.4062 1.64984C22.863 1.64984 26.0044 2.30978 28.7698 3.51966C23.5786 3.67853 19.4062 7.98034 19.4062 13.2598C19.4062 7.89479 15.1126 3.53188 9.7759 3.51966C12.5413 2.30978 15.9495 1.64984 19.4062 1.64984ZM9.73951 5.38948C14.0331 5.38948 17.5141 8.93358 17.5141 13.2598C17.5141 17.5861 14.0331 21.0935 9.73951 21.0935C5.44588 21.0935 1.96488 17.5983 1.96488 13.2598C1.96488 8.92136 5.43375 5.38948 9.73951 5.38948ZM29.073 5.38948C33.3666 5.38948 36.8476 8.93358 36.8476 13.2598C36.8476 17.5861 33.3666 21.0935 29.073 21.0935C24.7794 21.0935 21.2984 17.5983 21.2984 13.2598C21.2984 8.92136 24.7672 5.38948 29.073 5.38948ZM9.63035 8.49362C7.03477 8.49362 4.92434 10.6201 4.92434 13.2354C4.92434 15.8507 7.03477 17.9772 9.63035 17.9772C12.2259 17.9772 14.3364 15.8507 14.3364 13.2354C14.3364 10.6201 12.2259 8.49362 9.63035 8.49362ZM29.073 8.49362C26.4774 8.49362 24.367 10.6201 24.367 13.2354C24.367 15.8507 26.4774 17.9283 29.073 17.9283C31.6686 17.9283 33.779 15.8385 33.779 13.2354C33.779 10.6323 31.6686 8.49362 29.073 8.49362ZM9.63035 9.94793C11.4254 9.94793 12.893 11.4267 12.893 13.2354C12.893 15.0441 11.4254 16.5229 9.63035 16.5229C7.83527 16.5229 6.36768 15.0441 6.36768 13.2354C6.36768 11.4267 7.83527 9.94793 9.63035 9.94793ZM29.073 9.94793C30.8681 9.94793 32.3357 11.4267 32.3357 13.2354C32.3357 15.0441 30.8681 16.4862 29.073 16.4862C27.2779 16.4862 25.8103 15.0441 25.8103 13.2354C25.8103 11.4267 27.2779 9.94793 29.073 9.94793ZM9.3999 11.6344C8.52662 11.6344 7.81102 12.3555 7.81102 13.2354C7.81102 14.1153 8.52662 14.8363 9.3999 14.8363C10.2732 14.8363 10.9524 14.1153 10.9524 13.2354C10.9524 12.3555 10.2732 11.6344 9.3999 11.6344ZM28.8062 11.6344C27.9329 11.6344 27.2537 12.3555 27.2537 13.2354C27.2537 14.1153 27.9329 14.7997 28.8062 14.7997C29.6794 14.7997 30.395 14.1153 30.395 13.2354C30.395 12.3555 29.6794 11.6344 28.8062 11.6344Z" fill="white"/>
</svg>
