<svg width="37" height="36" viewBox="0 0 37 36" fill="none" xmlns="http://www.w3.org/2000/svg">
<path fill-rule="evenodd" clip-rule="evenodd" d="M19.0684 33.2198C16.2084 33.2198 13.5184 32.4898 11.1784 31.2098L2.14844 34.0798L5.08844 25.3898C3.59844 22.9498 2.74844 20.0898 2.74844 17.0298C2.74844 8.08984 10.0484 0.839844 19.0584 0.839844C28.0684 0.839844 35.3684 8.08984 35.3684 17.0298C35.3684 25.9698 28.0684 33.2198 19.0584 33.2198H19.0684Z" stroke="white" stroke-width="1.5" stroke-miterlimit="10"/>
<path fill-rule="evenodd" clip-rule="evenodd" d="M27.3094 20.7604C27.2094 20.5904 26.9394 20.5004 26.5394 20.3004C26.1394 20.1004 24.1694 19.1404 23.8094 19.0104C23.4394 18.8804 23.1794 18.8104 22.9094 19.2104C22.6394 19.6104 21.8794 20.5004 21.6394 20.7704C21.4094 21.0404 21.1694 21.0704 20.7694 20.8704C20.3694 20.6704 19.0794 20.2504 17.5494 18.9004C16.3594 17.8504 15.5594 16.5504 15.3294 16.1504C15.0994 15.7504 15.3094 15.5404 15.5094 15.3404C15.6894 15.1604 15.9094 14.8804 16.1094 14.6504C16.3094 14.4204 16.3794 14.2504 16.5094 13.9904C16.6394 13.7304 16.5794 13.4904 16.4794 13.2904C16.3794 13.0904 15.5794 11.1404 15.2494 10.3404C14.9194 9.55039 14.5794 9.68039 14.3494 9.68039C14.1194 9.68039 13.8494 9.65039 13.5794 9.65039C13.3094 9.65039 12.8794 9.75039 12.5094 10.1504C12.1394 10.5504 11.1094 11.5104 11.1094 13.4604C11.1094 15.4104 12.5394 17.3004 12.7394 17.5604C12.9394 17.8204 15.5094 21.9604 19.5694 23.5504C23.6394 25.1404 23.6394 24.6104 24.3694 24.5404C25.0994 24.4704 26.7294 23.5804 27.0694 22.6504C27.3994 21.7204 27.3994 20.9304 27.2994 20.7604H27.3094Z" fill="white"/>
</svg>
