<?xml version="1.0" encoding="UTF-8"?>
<svg xmlns="http://www.w3.org/2000/svg" width="59" height="83" viewBox="0 0 59 83" fill="none">
  <path d="M30.0464 22.9624C38.2972 22.9624 45.0042 29.6694 45.0042 37.9202V46.2358H15.0886V37.9202C15.0886 29.6694 21.7956 22.9624 30.0464 22.9624Z" stroke="black" stroke-miterlimit="10"></path>
  <path d="M29.6702 22.897V17.7598" stroke="black" stroke-miterlimit="10"></path>
  <path d="M15.0238 41.3447H45.134" stroke="black" stroke-miterlimit="10"></path>
  <path d="M50.9847 49.2192V61.8938H7.66809V49.2192H1V82.3002H57.6398V49.2192H50.9847Z" stroke="black" stroke-miterlimit="10"></path>
  <path d="M7.78479 56.082H51.0365" stroke="black" stroke-miterlimit="10"></path>
  <path d="M11.2875 53.9289V48.5581" stroke="black" stroke-miterlimit="10"></path>
  <path d="M14.9199 53.9289V48.5581" stroke="black" stroke-miterlimit="10"></path>
  <path d="M18.5394 53.9289V48.5581" stroke="black" stroke-miterlimit="10"></path>
  <path d="M22.1719 53.9289V48.5581" stroke="black" stroke-miterlimit="10"></path>
  <path d="M25.8042 53.9289V48.5581" stroke="black" stroke-miterlimit="10"></path>
  <path d="M29.4236 53.9289V48.5581" stroke="black" stroke-miterlimit="10"></path>
  <path d="M33.056 53.9289V48.5581" stroke="black" stroke-miterlimit="10"></path>
  <path d="M36.6885 53.9289V48.5581" stroke="black" stroke-miterlimit="10"></path>
  <path d="M40.308 53.9289V48.5581" stroke="black" stroke-miterlimit="10"></path>
  <path d="M43.9403 53.9289V48.5581" stroke="black" stroke-miterlimit="10"></path>
  <path d="M47.5729 53.9289V48.5581" stroke="black" stroke-miterlimit="10"></path>
  <path d="M12.4423 82.8321V71.6235C12.4423 69.7424 13.9601 68.2246 15.8412 68.2246C17.7222 68.2246 19.2401 69.7424 19.2401 71.6235V82.8321" stroke="black" stroke-miterlimit="10"></path>
  <path d="M26.2583 82.8321V71.6235C26.2583 69.7424 27.7761 68.2246 29.6572 68.2246C31.5383 68.2246 33.0561 69.7424 33.0561 71.6235V82.8321" stroke="black" stroke-miterlimit="10"></path>
  <path d="M40.0874 82.8321V71.6235C40.0874 69.7424 41.6052 68.2246 43.4863 68.2246C45.3674 68.2246 46.8852 69.7424 46.8852 71.6235V82.8321" stroke="black" stroke-miterlimit="10"></path>
  <path d="M7.66809 46.9231V22.7026H13.8173V31.0702" stroke="black" stroke-miterlimit="10"></path>
  <path d="M7.51245 22.3912L5.52759 20.8604V17.5264H16.2562V20.8604L14.0378 22.5469" stroke="black" stroke-miterlimit="10"></path>
  <path d="M11.0282 5.04688C12.9352 5.04688 14.492 6.59065 14.492 8.51065V10.0544H7.57739V8.51065C7.57739 6.60363 9.12117 5.04688 11.0412 5.04688H11.0282Z" stroke="black" stroke-miterlimit="10"></path>
  <path d="M10.9631 4.98161V0" stroke="black" stroke-miterlimit="10"></path>
  <path d="M7.87573 11.896V16.0733" stroke="black" stroke-miterlimit="10"></path>
  <path d="M10.9371 11.896V16.0733" stroke="black" stroke-miterlimit="10"></path>
  <path d="M13.9989 11.896V16.0733" stroke="black" stroke-miterlimit="10"></path>
</svg>
