<?xml version="1.0" encoding="UTF-8"?>
<svg xmlns="http://www.w3.org/2000/svg" width="115" height="132" viewBox="0 0 115 132" fill="none">
  <path d="M7.84499 131.886C3.51999 131.875 2.79942e-05 128.347 2.79942e-05 124.017V111.193C-0.0161806 100.153 7.00754 90.3869 17.481 86.8966L26.6902 83.8305C26.755 83.8116 26.8306 83.8008 26.9036 83.8008C27.2278 83.8008 27.5195 84.0061 27.6276 84.3141C27.6951 84.5086 27.6843 84.7166 27.5979 84.903C27.5114 85.0867 27.3574 85.2244 27.1683 85.2947L17.9673 88.3554C8.12323 91.643 1.52093 100.823 1.53714 111.199V124.02C1.53174 127.499 4.36014 130.341 7.84228 130.355H23.7915V117.858C23.7969 117.463 24.1373 117.134 24.5479 117.126C24.9694 117.126 25.3205 117.466 25.3259 117.882V130.355H89.6767V117.874C89.6875 117.469 90.0198 117.142 90.4304 117.134C90.8546 117.134 91.2003 117.461 91.2139 117.879V130.355H107.155C110.64 130.341 113.471 127.499 113.466 124.017V111.196C113.482 100.82 106.879 91.6403 97.0354 88.3527L87.829 85.292C87.4508 85.1542 87.2455 84.7355 87.367 84.3465C87.467 84.0223 87.7614 83.8062 88.0991 83.8062C88.172 83.8062 88.2477 83.817 88.3179 83.8386L97.519 86.8993C107.99 90.3923 115.016 100.158 115 111.196V124.022C115 128.35 111.477 131.881 107.15 131.892H7.84499V131.886Z" fill="white"></path>
  <path d="M40.7808 66.425C40.2216 66.425 39.6624 66.3628 39.114 66.2386C35.0727 65.3201 32.5306 61.2842 33.4491 57.2428L35.9831 46.121C36.4747 43.9734 35.748 41.7393 34.0867 40.2913L25.4961 32.7705C24.0373 31.4928 23.1351 29.726 22.9595 27.7945C22.584 23.6667 25.6366 20.0009 29.7644 19.6254L41.1347 18.588C43.3256 18.3908 45.2247 17.0104 46.0891 14.987L50.5897 4.48926C51.3461 2.78195 52.713 1.42043 54.4338 0.655928C55.4091 0.223699 56.4383 0.00488281 57.4946 0.00488281C60.4878 0.00488281 63.2027 1.77162 64.4156 4.50547L68.9108 14.987C69.7753 17.0104 71.6744 18.3908 73.8679 18.588L85.2356 19.6254C87.1671 19.801 88.9338 20.7033 90.2116 22.162C91.5326 23.6694 92.1837 25.6063 92.0513 27.6135C91.9189 29.6207 91.0139 31.4522 89.5038 32.7705L80.9106 40.2913C79.2519 41.7393 78.5279 43.9734 79.0169 46.1183L81.5481 57.2401C81.9398 59.0663 81.6373 60.9735 80.6918 62.6025C79.3438 64.9311 76.8314 66.3764 74.1381 66.3764C72.8144 66.3764 71.5069 66.0225 70.3534 65.3552L60.5634 59.5201C59.6368 58.969 58.5778 58.6773 57.5 58.6773C56.4221 58.6773 55.3631 58.969 54.4393 59.5201L44.6304 65.366C43.466 66.0603 42.1369 66.425 40.7808 66.425ZM57.5 57.1429C58.8534 57.1429 60.1852 57.5103 61.3468 58.2045L71.153 64.0504C72.0796 64.6015 73.1386 64.8933 74.2164 64.8933C74.6622 64.8933 75.1106 64.8419 75.5455 64.7447C77.1043 64.3908 78.4307 63.4507 79.2816 62.0973C80.1326 60.7439 80.4054 59.1419 80.0488 57.5832L77.5203 46.4614C76.9017 43.7627 77.8147 40.9559 79.8975 39.1378L88.4908 31.617C89.6497 30.6013 90.3683 29.1966 90.5061 27.6594C90.6519 26.071 90.1684 24.5177 89.1445 23.2885C88.1207 22.0594 86.6808 21.303 85.0924 21.1571L73.7221 20.1197C70.9693 19.8685 68.5839 18.1369 67.498 15.5948L62.9947 5.09438C62.3842 3.70855 61.2901 2.61176 59.9151 2.00664C59.1478 1.66896 58.3347 1.49607 57.5 1.49607C55.12 1.49607 52.9643 2.90352 52.008 5.08087L47.4993 15.5948C46.4106 18.1369 44.0252 19.8712 41.2752 20.1197L29.9157 21.1544C27.5384 21.3327 25.4637 22.986 24.7559 25.2687C23.9887 27.5298 24.6992 30.0907 26.5281 31.6332L35.097 39.1351C37.1825 40.9559 38.0956 43.7627 37.477 46.4587L34.9457 57.5805C34.6242 59.0609 34.8647 60.5926 35.6211 61.892C36.6935 63.729 38.6818 64.8717 40.8105 64.8717C41.8695 64.8717 42.9122 64.588 43.8307 64.0531L53.6504 58.2018C54.8148 57.5076 56.1439 57.1402 57.4973 57.1402L57.5 57.1429Z" fill="white"></path>
  <path d="M43.015 105.306C42.6827 105.306 42.3855 105.093 42.2748 104.78L34.6784 81.9877C34.5622 81.6014 34.7729 81.1881 35.1592 81.0503C35.2429 81.0206 35.3294 81.0044 35.4158 81.0044C35.7346 81.0044 36.0264 81.207 36.1371 81.5068L43.3445 103.126L51.7271 94.7466L43.4526 79.2025C43.2743 78.8432 43.4121 78.3975 43.7714 78.2003C43.8875 78.1354 44.0145 78.103 44.1442 78.103C44.4197 78.103 44.6764 78.2516 44.8114 78.4893L53.3506 94.5304C53.51 94.8303 53.456 95.1923 53.2183 95.4327L43.5553 105.096C43.485 105.166 43.3797 105.228 43.2743 105.266C43.1906 105.296 43.1068 105.309 43.0204 105.309L43.015 105.306Z" fill="white"></path>
  <path d="M71.9877 105.32C71.7824 105.32 71.5906 105.242 71.4447 105.096L61.7844 95.4359C61.544 95.1955 61.4899 94.8335 61.6493 94.5336L70.1912 78.4898L70.2129 78.4493L70.2237 78.4277C70.3506 78.2089 70.6046 78.063 70.8774 78.063C71.0017 78.063 71.1232 78.0927 71.234 78.1521C71.6095 78.352 71.7527 78.8194 71.5528 79.1922L63.2702 94.7524L71.6527 103.132L78.8628 81.5046C78.9709 81.2102 79.26 81.0075 79.5814 81.0075C79.6571 81.0075 79.7354 81.0184 79.8111 81.0427C80.2109 81.1669 80.4378 81.5965 80.3162 81.9963L72.7144 104.796C72.6766 104.91 72.6117 105.012 72.528 105.096C72.3821 105.242 72.1903 105.32 71.985 105.32H71.9877Z" fill="white"></path>
</svg>
