<?xml version="1.0" encoding="UTF-8"?>
<svg xmlns="http://www.w3.org/2000/svg" width="133" height="131" viewBox="0 0 133 131" fill="none">
  <path d="M12.6055 19.1887C12.4827 19.1887 12.0689 19.1513 11.9595 18.6762C11.3402 15.9959 10.849 13.8763 6.87401 12.5656C6.45489 12.4267 6.42285 12.0477 6.42285 11.9356C6.42285 11.8234 6.45489 11.4417 6.87667 11.3029C9.34067 10.4887 10.9024 9.7572 11.9622 5.19227C12.0716 4.71976 12.4854 4.68506 12.6082 4.68506C12.731 4.68506 13.1448 4.72243 13.2542 5.19494C14.3701 10.0055 16.2441 10.6168 18.2249 11.2682L18.3451 11.3082C18.7615 11.447 18.7935 11.8261 18.7935 11.9382C18.7935 12.0503 18.7615 12.4321 18.3424 12.5709C16.2121 13.273 14.3701 13.879 13.2569 18.6815C13.1448 19.1567 12.7337 19.1941 12.6109 19.1941L12.6055 19.1887ZM11.9488 9.12185C11.4149 10.0829 10.7876 10.7876 9.97869 11.3429L9.06837 11.9649L9.97869 12.5896C10.8303 13.1742 11.487 13.8656 11.9835 14.7012L12.6482 15.8197L13.2916 14.6879C13.8015 13.7882 14.4155 13.0941 15.1656 12.5682L16.0412 11.9542L15.1736 11.3322C14.4262 10.7957 13.8042 10.0722 13.2756 9.11918L12.6135 7.92856L11.9515 9.11918L11.9488 9.12185Z" fill="white"></path>
  <path d="M119.766 19.1887C119.644 19.1887 119.23 19.1513 119.12 18.6762C118.496 15.9906 118.004 13.8736 114.032 12.5656C113.613 12.4267 113.581 12.0503 113.581 11.9382C113.581 11.8261 113.613 11.4444 114.035 11.3055C116.499 10.4913 118.061 9.76254 119.123 5.19494C119.232 4.72243 119.644 4.68506 119.769 4.68506C119.895 4.68506 120.306 4.72243 120.415 5.19494C121.531 10.0055 123.402 10.6195 125.383 11.2682L125.501 11.3082C125.92 11.447 125.952 11.8261 125.952 11.9382C125.952 12.0503 125.92 12.4321 125.498 12.5709C123.368 13.273 121.526 13.8817 120.412 18.6815C120.303 19.1567 119.889 19.1941 119.766 19.1941V19.1887ZM119.112 9.12185C118.578 10.0829 117.951 10.7876 117.142 11.3429L116.232 11.9649L117.142 12.5896C117.994 13.1742 118.651 13.8656 119.147 14.7012L119.814 15.8197L120.458 14.6879C120.968 13.7882 121.582 13.0941 122.332 12.5682L123.207 11.9542L122.34 11.3322C121.587 10.793 120.968 10.0695 120.442 9.11918L119.782 7.92589L119.12 9.11918L119.112 9.12185Z" fill="white"></path>
  <path d="M119.766 125.856C119.644 125.856 119.23 125.819 119.12 125.343C118.496 122.658 118.004 120.541 114.032 119.23C113.613 119.091 113.581 118.715 113.581 118.603C113.581 118.491 113.613 118.109 114.032 117.97C116.496 117.156 118.058 116.424 119.12 111.859C119.23 111.387 119.644 111.35 119.766 111.35C119.889 111.35 120.303 111.387 120.412 111.859C121.528 116.665 123.397 117.279 125.375 117.93L125.501 117.97C125.92 118.109 125.952 118.488 125.952 118.6C125.952 118.712 125.92 119.091 125.501 119.23C123.365 119.938 121.526 120.546 120.415 125.343C120.306 125.819 119.892 125.856 119.769 125.856H119.766ZM119.112 115.789C118.578 116.75 117.951 117.455 117.142 118.01L116.232 118.632L117.142 119.257C117.994 119.841 118.651 120.533 119.147 121.368L119.812 122.487L120.455 121.355C120.965 120.455 121.579 119.761 122.329 119.235L123.205 118.624L122.337 118.002C121.584 117.463 120.965 116.739 120.439 115.789L119.78 114.596L119.118 115.789H119.112Z" fill="white"></path>
  <path d="M12.6326 126.798C12.5098 126.798 12.096 126.76 11.9866 126.285C11.3619 123.6 10.8707 121.483 6.89842 120.172C6.4793 120.033 6.44727 119.657 6.44727 119.545C6.44727 119.433 6.4793 119.051 6.89842 118.912C9.36241 118.098 10.9241 117.366 11.9866 112.801C12.096 112.329 12.5098 112.292 12.6326 112.292C12.7554 112.292 13.1692 112.329 13.2786 112.801C14.3945 117.607 16.2632 118.221 18.2413 118.872L18.3668 118.912C18.7859 119.051 18.818 119.43 18.818 119.542C18.818 119.654 18.7859 120.033 18.3668 120.172C16.2312 120.879 14.3918 121.488 13.2813 126.285C13.1719 126.76 12.7581 126.798 12.6353 126.798H12.6326ZM11.9812 116.731C11.4473 117.692 10.82 118.397 10.0111 118.952L9.1008 119.574L10.0111 120.199C10.8627 120.783 11.5194 121.475 12.0159 122.31L12.6807 123.429L13.324 122.297C13.8339 121.397 14.4479 120.703 15.198 120.177L16.0737 119.563L15.2061 118.941C14.4559 118.402 13.8339 117.679 13.308 116.728L12.6486 115.535L11.9866 116.728L11.9812 116.731Z" fill="white"></path>
  <path d="M9.41016 74.2241C4.22323 74.2241 0 70.0036 0 64.814C0 59.6244 4.22056 55.4038 9.41016 55.4038C14.5998 55.4038 18.8203 59.6244 18.8203 64.814C18.8203 70.0036 14.5998 74.2241 9.41016 74.2241ZM9.41016 56.5624C4.85858 56.5624 1.15858 60.2651 1.15858 64.814V65.1263L9.09782 73.0655H9.41016C13.9617 73.0655 17.6617 69.3629 17.6617 64.8113C17.6617 60.2597 13.9591 56.5597 9.41016 56.5597V56.5624Z" fill="white"></path>
  <path d="M23.0276 53.6126C19.7494 53.6126 17.0825 50.9457 17.0825 47.6675C17.0825 44.3893 19.7494 41.7197 23.0276 41.7197C26.3058 41.7197 28.9727 44.3866 28.9727 47.6675C28.9727 50.9484 26.3058 53.6126 23.0276 53.6126ZM23.0276 42.8756C20.3874 42.8756 18.2384 45.0246 18.2384 47.6648C18.2384 50.305 20.3874 52.454 23.0276 52.454C25.6678 52.454 27.8168 50.305 27.8168 47.6648C27.8168 45.0246 25.6678 42.8756 23.0276 42.8756Z" fill="white"></path>
  <path d="M31.1855 69.8516C27.9073 69.8516 25.2378 67.1847 25.2378 63.9065C25.2378 60.6283 27.9047 57.9614 31.1855 57.9614C34.4664 57.9614 37.1306 60.6283 37.1306 63.9065C37.1306 67.1847 34.4638 69.8516 31.1855 69.8516ZM31.1855 59.1147C28.5454 59.1147 26.3964 61.2637 26.3964 63.9038C26.3964 66.544 28.5454 68.693 31.1855 68.693C33.8257 68.693 35.9747 66.544 35.9747 63.9038C35.9747 61.2637 33.8257 59.1147 31.1855 59.1147Z" fill="white"></path>
  <path d="M109.684 40.2329C107.012 40.2329 104.5 39.1944 102.615 37.3097C100.495 35.1874 98.8723 29.4346 98.0501 21.1056C97.986 20.4542 98.1915 19.8295 98.6293 19.3463C99.0618 18.8685 99.6785 18.5962 100.319 18.5962C100.394 18.5962 100.471 18.5989 100.549 18.6069C108.875 19.4291 114.631 21.0495 116.753 23.1718C118.638 25.0565 119.676 27.5659 119.676 30.2408C119.676 32.9156 118.638 35.425 116.753 37.3097C114.868 39.1944 112.359 40.2329 109.684 40.2329ZM100.322 19.7521C100.004 19.7521 99.6998 19.8883 99.4889 20.1232C99.2754 20.3581 99.1739 20.6758 99.2033 20.9934C99.9881 28.938 101.528 34.5868 103.435 36.4928C105.103 38.1586 107.321 39.077 109.687 39.077C112.052 39.077 114.27 38.1586 115.939 36.4928C119.385 33.0465 119.385 27.4377 115.939 23.9913C114.033 22.088 108.384 20.545 100.439 19.7601C100.407 19.7574 100.365 19.7548 100.325 19.7548L100.322 19.7521Z" fill="white"></path>
  <path d="M25.1765 115.354C25.059 115.354 24.9415 115.349 24.8241 115.338C23.0248 115.165 21.6153 113.555 21.6153 111.673V93.963L21.1908 93.7547C18.0167 92.2091 16.0439 89.0643 16.0439 85.5485C16.0439 84.6703 16.6152 83.9068 17.4641 83.6478L17.9527 83.4983L17.9981 82.9884C18.3211 79.3018 21.4738 76.416 25.1738 76.416C28.8738 76.416 31.869 79.1283 32.3202 82.7215L32.3842 83.226L32.8728 83.3595C33.8365 83.6211 34.3063 84.3366 34.3063 85.5485C34.3063 89.0697 32.3335 92.2144 29.1594 93.7547L28.7323 93.963V102.041L40.2648 90.5112L40.1099 90.0627C38.954 86.7285 39.7816 83.1112 42.2749 80.6206C42.646 80.2495 43.1399 80.0466 43.6684 80.0466C43.9995 80.0466 44.3278 80.1294 44.6188 80.2842L45.0699 80.5245L45.4624 80.1961C46.7544 79.1123 48.3989 78.5169 50.094 78.5169C52.0214 78.5169 53.8287 79.2644 55.1875 80.6232C57.7476 83.1833 58.0039 87.2757 55.7802 90.1375L55.4678 90.5379L55.7214 90.9784C56.1619 91.7446 56.0418 92.6789 55.4225 93.3009C53.5164 95.2043 51.2099 96.2107 48.7566 96.2107C47.7448 96.2107 46.7331 96.0372 45.748 95.6955L45.2995 95.5407L42.8729 97.9619C42.7635 98.0714 42.6193 98.1301 42.4645 98.1301C42.3096 98.1301 42.1681 98.0714 42.0587 97.9619C41.9439 97.8498 41.8852 97.7057 41.8852 97.5508C41.8852 97.3987 41.9439 97.2572 42.0534 97.1531L43.6284 95.5754C44.2557 94.9453 44.4453 94.7558 44.4746 94.7291L44.5254 94.6811C44.7389 94.4782 45.0085 94.3687 45.2942 94.3687C45.441 94.3687 45.5852 94.3981 45.7213 94.4542C46.701 94.8546 47.7155 95.0548 48.7379 95.0548C50.8922 95.0548 52.9184 94.1658 54.6029 92.4814L55.6467 91.4376L54.1891 91.2C52.3685 90.901 50.9536 89.4861 50.6707 87.6762C50.4651 86.3601 49.4427 85.3403 48.1292 85.1348C45.8975 84.7877 45.1794 83.1993 44.7496 82.2516C44.5868 81.8913 44.4693 81.6323 44.2771 81.4401C44.1089 81.2773 43.9007 81.1945 43.6818 81.1945C43.4629 81.1945 43.2466 81.2826 43.0891 81.4401C40.8174 83.7119 40.1366 87.1049 41.3513 90.0868C41.5221 90.5059 41.4287 90.9811 41.1137 91.2961L28.5641 103.843C27.6378 104.769 27.5283 106.224 28.3052 107.161C28.7643 107.719 29.4424 108.039 30.1605 108.039C30.7985 108.039 31.3992 107.794 31.8503 107.343L31.9037 107.289V107.284L34.4985 104.692C34.6 104.59 34.7495 104.534 34.9096 104.534C35.0698 104.534 35.2166 104.59 35.3154 104.689C35.4275 104.801 35.4863 104.948 35.4863 105.103C35.4863 105.255 35.4275 105.399 35.3181 105.506L32.6405 108.184V108.189C31.9705 108.83 31.0762 109.193 30.1632 109.193C29.9763 109.193 29.7894 109.177 29.6026 109.147L28.727 109.009V111.801C28.727 113.76 27.1332 115.357 25.1765 115.357V115.354ZM18.0301 84.705C17.5683 84.705 17.1945 85.084 17.1945 85.5485C17.1945 88.752 19.1113 91.6351 22.0798 92.8925C22.4989 93.0687 22.7685 93.4718 22.7685 93.9149V111.673C22.7685 112.967 23.7189 114.073 24.9309 114.187C25.011 114.195 25.091 114.198 25.1685 114.198C26.4926 114.198 27.5711 113.122 27.5711 111.798V108.085L27.4002 107.877C26.3804 106.627 26.3858 104.743 27.4136 103.4L27.5684 103.197V93.9122C27.5684 93.4691 27.8353 93.0687 28.2491 92.8898C31.3351 91.5897 33.2091 88.6372 33.1371 85.1828L33.113 84.0696L32.0692 84.5074L31.9651 84.5555L31.8984 84.6035C31.1856 85.1268 30.3367 85.4044 29.4504 85.4044C28.5641 85.4044 27.6965 85.1241 26.9651 84.5902C26.4579 84.2191 25.8172 84.0135 25.1685 84.0135C24.5198 84.0135 23.8791 84.2191 23.3719 84.5902C22.619 85.1401 21.8422 85.4071 20.996 85.4071C20.1497 85.4071 19.3675 85.1161 18.8657 84.9239C18.5159 84.7904 18.2837 84.6996 18.0354 84.6996L18.0301 84.705ZM50.086 79.6649C48.6231 79.6649 47.2109 80.1908 46.1111 81.1465L45.7266 81.4801L45.8922 81.9607C46.2579 83.0312 47.1816 83.8053 48.3028 83.9815C50.1181 84.2645 51.5276 85.674 51.8106 87.4893C51.9841 88.6078 52.7582 89.5315 53.8314 89.8999L54.3146 90.0654L54.6483 89.681C56.7252 87.2918 56.6024 83.6692 54.3653 81.4321C53.2254 80.2922 51.7064 79.6649 50.0914 79.6649H50.086ZM27.7526 83.7332C28.2545 84.0669 28.8364 84.2458 29.4397 84.2458C29.9016 84.2458 30.3634 84.139 30.7799 83.9361L31.2363 83.7119L31.2016 83.2047C30.9827 80.0466 28.3319 77.5719 25.1685 77.5719C22.005 77.5719 19.3542 80.0466 19.1353 83.2047L19.1006 83.7146L19.5597 83.9388C19.9735 84.139 20.438 84.2458 20.8945 84.2458C21.5432 84.2458 22.1626 84.0429 22.6858 83.6612C23.3799 83.154 24.1941 82.8736 25.051 82.8523L27.7499 83.7359L27.7526 83.7332Z" fill="white"></path>
  <path d="M38.6845 101.897C38.5297 101.897 38.3855 101.838 38.2788 101.729C38.1666 101.619 38.1079 101.475 38.1079 101.323C38.1079 101.171 38.1666 101.026 38.2761 100.917C38.3802 100.813 38.527 100.757 38.6872 100.757C38.8474 100.757 38.9942 100.813 39.093 100.912C39.2024 101.021 39.2638 101.168 39.2638 101.323C39.2638 101.478 39.2051 101.622 39.0983 101.729C38.9889 101.838 38.8447 101.897 38.6899 101.897H38.6845Z" fill="white"></path>
  <path d="M63.6365 51.3938C62.3311 51.3938 61.1058 50.8919 60.1741 49.9763L60.0807 49.8828H60.0753L56.7277 46.5245C56.6183 46.4151 56.5595 46.2709 56.5595 46.1188C56.5595 45.9666 56.6183 45.8198 56.7277 45.7103C56.8292 45.6089 56.976 45.5502 57.1362 45.5502C57.2963 45.5502 57.4432 45.6062 57.5393 45.705L60.9189 49.0793L60.959 49.122C60.959 49.122 60.9723 49.1354 60.9803 49.1407C61.6931 49.8455 62.6354 50.2325 63.6392 50.2325C64.6429 50.2325 65.6013 49.8374 66.3167 49.1247C67.7903 47.6511 67.7903 45.2485 66.3167 43.7722L51.9492 29.4047C51.8424 29.2979 51.781 29.1484 51.781 28.9963V20.1307C51.781 18.0405 50.15 16.2759 48.1478 16.1985C48.0971 16.1985 48.0463 16.1958 47.993 16.1958C46.9305 16.1958 45.908 16.6523 45.1899 17.4478C45.0751 17.576 44.9363 17.64 44.7761 17.64C44.5306 17.64 44.1835 17.4612 44.1835 17.0607V12.5332C44.1835 10.4589 42.6325 8.73441 40.6517 8.60627C40.5663 8.60093 40.4755 8.59826 40.3847 8.59826C38.5107 8.59826 36.6127 9.99978 36.6127 12.6747C36.6127 13.0751 36.2683 13.254 36.0227 13.254C35.8732 13.254 35.7397 13.1952 35.6249 13.0831L34.3542 11.8124C33.6014 11.0569 32.5683 10.6245 31.5218 10.6245C30.6142 10.6245 29.7466 10.9475 29.0819 11.5321C28.2837 12.2315 27.8245 13.2006 27.7898 14.255C27.7551 15.2988 28.1582 16.3213 28.8977 17.0581L30.2725 18.4329C30.4407 18.6011 30.4887 18.8467 30.4006 19.0602C30.3045 19.2925 30.0643 19.4206 29.7226 19.4206C27.6483 19.4206 25.9238 20.9716 25.7983 22.9524C25.7289 24.0122 26.0893 25.0213 26.8128 25.7928C27.5255 26.5536 28.5319 26.9888 29.5757 26.9888H34.2528C34.6185 26.9888 34.7573 27.2744 34.7894 27.3598C34.8241 27.4479 34.9122 27.7496 34.6399 27.9952C33.8016 28.7534 33.3478 29.8292 33.3905 30.9531C33.4679 32.9552 35.2325 34.5863 37.3228 34.5863H46.1883C46.3539 34.5863 46.5167 34.6744 46.5995 34.7572L49.9924 38.1555C50.1046 38.265 50.1633 38.4091 50.1633 38.5613C50.1633 38.7134 50.1046 38.8576 49.9951 38.967C49.8857 39.0765 49.7362 39.1379 49.5813 39.1379C49.4746 39.1379 49.3171 39.1085 49.1782 38.9697L45.9454 35.7422H37.3228C34.6185 35.7422 32.3361 33.6146 32.2346 30.9984C32.2106 30.3658 32.304 29.7464 32.5149 29.1565L32.8726 28.1474H29.5731C28.2116 28.1474 26.8955 27.5761 25.9612 26.5777C25.0215 25.5739 24.5517 24.2605 24.6424 22.8777C24.7572 21.0998 25.8677 19.5167 27.5362 18.7425L28.4358 18.3261L27.7978 17.5679C26.0466 15.491 26.2762 12.4558 28.3184 10.6618C29.194 9.893 30.3312 9.47121 31.5218 9.47121C32.7125 9.47121 33.8283 9.87431 34.7413 10.6058L35.4995 11.2118L35.9026 10.3281C36.7034 8.57157 38.4653 7.43701 40.3901 7.43701C40.4995 7.43701 40.6117 7.43968 40.7238 7.44769C43.3106 7.61587 45.3368 9.84761 45.3368 12.5278V15.6779L46.3458 15.3175C46.8771 15.128 47.4243 15.0345 47.9769 15.0345C48.0463 15.0345 48.1158 15.0345 48.1852 15.0399C50.8067 15.1413 52.9343 17.4238 52.9343 20.128V28.7534L67.1336 42.95C69.0584 44.8774 69.0584 48.0115 67.1336 49.9389C66.1993 50.8732 64.9579 51.3885 63.6392 51.3885L63.6365 51.3938Z" fill="white"></path>
  <path d="M53.3561 42.9158C53.2013 42.9158 53.0572 42.857 52.9504 42.7476C52.8356 42.6355 52.7769 42.494 52.7769 42.3392C52.7769 42.187 52.8356 42.0428 52.945 41.9387C53.0518 41.8319 53.1986 41.7759 53.3588 41.7759C53.519 41.7759 53.6658 41.8319 53.7646 41.9307C53.9915 42.1576 53.9915 42.5234 53.7646 42.7476C53.6551 42.857 53.511 42.9158 53.3561 42.9158Z" fill="white"></path>
  <path d="M102.073 112.983C101.84 112.983 101.592 112.802 101.491 112.559C101.405 112.353 101.453 112.164 101.635 111.982L108.45 105.167C108.56 105.057 108.704 104.999 108.859 104.999C109.013 104.999 109.158 105.06 109.267 105.169C109.377 105.279 109.435 105.423 109.435 105.578C109.435 105.733 109.374 105.877 109.267 105.986L102.452 112.802C102.326 112.927 102.203 112.986 102.07 112.986L102.073 112.983Z" fill="white"></path>
  <path d="M103.602 55.1792C103.447 55.1792 103.303 55.1205 103.197 55.011C102.97 54.7841 102.97 54.4184 103.197 54.1915C103.295 54.0927 103.442 54.0366 103.605 54.0366C103.768 54.0366 103.915 54.0927 104.011 54.1915C104.12 54.3009 104.182 54.4477 104.182 54.6026C104.182 54.7574 104.12 54.9016 104.011 55.011C103.901 55.1205 103.757 55.1792 103.602 55.1792Z" fill="white"></path>
  <path d="M91.5176 100.936C90.65 100.936 89.8358 100.597 89.2218 99.9826L84.2991 95.06C83.6851 94.446 83.3461 93.6318 83.3461 92.7642C83.3461 91.8966 83.6851 91.0824 84.2991 90.4684L102.775 71.9924L82.0407 51.2527C81.4294 50.6414 81.0903 49.8245 81.0903 48.9569C81.0903 48.0893 81.4267 47.2724 82.0407 46.6611L86.9633 41.7384C87.5773 41.1245 88.3915 40.7881 89.2591 40.7881C90.1267 40.7881 90.941 41.1244 91.5523 41.7358L100.239 50.4198C100.439 50.62 100.49 50.9831 100.234 51.2447C100.132 51.3462 99.9827 51.4076 99.8279 51.4076C99.7211 51.4076 99.5636 51.3782 99.4248 51.2394L90.698 42.5126L90.6874 42.5046C90.3083 42.1549 89.7931 41.9573 89.2618 41.9573C88.7306 41.9573 88.1646 42.1763 87.7829 42.5553L85.73 44.6082L97.9912 56.8694C98.1007 56.9789 98.1621 57.1231 98.1621 57.2779C98.1621 57.4327 98.1007 57.5769 97.9939 57.6863C97.8845 57.7958 97.7403 57.8572 97.5855 57.8572C97.4306 57.8572 97.2865 57.7958 97.177 57.689L84.9158 45.4278L82.8629 47.4806C82.4678 47.8757 82.2516 48.399 82.2516 48.9596C82.2516 49.5202 82.4678 50.0434 82.8629 50.4385L103.597 71.1782L111.48 63.295L106.977 58.7915C106.782 58.5966 106.726 58.2282 106.977 57.9773C107.076 57.8759 107.225 57.8198 107.383 57.8198C107.54 57.8198 107.69 57.8759 107.788 57.9746L112.297 62.4782L121.908 52.8678C122.522 52.2538 123.336 51.9148 124.204 51.9148C125.071 51.9148 125.885 52.2538 126.499 52.8678L131.422 57.7904C132.033 58.4018 132.372 59.2186 132.372 60.0863C132.372 60.9539 132.036 61.7707 131.422 62.3821L121.812 71.9924L129.161 79.3417C130.429 80.6097 130.429 82.6706 129.161 83.9387L124.238 88.8613C123.627 89.4726 122.81 89.8117 121.942 89.8117C121.075 89.8117 120.258 89.4753 119.647 88.8613L112.297 81.5067L93.8187 99.9853C93.2047 100.599 92.3905 100.938 91.5229 100.938L91.5176 100.936ZM100.53 83.1725C100.685 83.1725 100.829 83.2339 100.938 83.3434C101.048 83.4528 101.107 83.597 101.107 83.7518C101.107 83.9066 101.048 84.0508 100.938 84.1602L87.9831 97.1156L90.036 99.1684C90.4177 99.5502 90.957 99.7691 91.5149 99.7691C92.0728 99.7691 92.6121 99.5502 92.9938 99.1684L130.6 61.5625C131.414 60.7483 131.414 59.4215 130.6 58.6047L125.677 53.682C125.282 53.2869 124.756 53.068 124.198 53.068C123.64 53.068 123.114 53.2869 122.719 53.682L85.1133 91.2879C84.7182 91.683 84.4993 92.2089 84.4993 92.7669C84.4993 93.3248 84.7182 93.8507 85.1133 94.2458L87.1662 96.2987L100.122 83.3434C100.231 83.2339 100.375 83.1752 100.53 83.1752V83.1725ZM113.112 80.6872L120.461 88.0418C120.853 88.4368 121.379 88.6531 121.94 88.6531C122.5 88.6531 123.024 88.4368 123.419 88.0418L128.341 83.1191C129.158 82.3022 129.158 80.9728 128.341 80.1559L120.992 72.8067L113.112 80.6872Z" fill="white"></path>
  <path d="M103.723 81.1383C103.568 81.1383 103.424 81.0769 103.314 80.9701C103.205 80.8607 103.146 80.7165 103.146 80.5617C103.146 80.4068 103.207 80.2627 103.317 80.1532L104.182 79.2883C104.291 79.1788 104.435 79.1201 104.59 79.1201C104.745 79.1201 104.889 79.1815 104.999 79.291C105.108 79.4004 105.167 79.5446 105.167 79.6994C105.167 79.8542 105.105 79.9984 104.996 80.1078L104.131 80.9728C104.022 81.0822 103.877 81.141 103.723 81.141V81.1383Z" fill="white"></path>
  <path d="M66.186 131C57.0001 131 49.5254 123.528 49.5254 114.342C49.5254 105.156 57.0001 97.6812 66.186 97.6812C75.372 97.6812 82.8467 105.156 82.8467 114.342C82.8467 123.528 75.372 131 66.186 131ZM66.76 123.4C66.9976 123.4 67.2085 123.544 67.2966 123.765C67.7637 124.94 67.4861 126.277 66.5918 127.172C66.0179 127.746 65.847 128.605 66.1567 129.358L66.3596 129.849L66.8908 129.825C70.0168 129.684 72.9907 128.613 75.4921 126.729L76.2529 126.157L75.5241 125.546C74.8033 124.94 74.3922 124.059 74.3922 123.125C74.3922 122.887 74.3522 122.657 74.2721 122.439C74.2214 122.294 74.2267 122.14 74.2935 121.998C74.3602 121.857 74.475 121.752 74.6191 121.699C74.6832 121.675 74.75 121.664 74.8167 121.664C75.0596 121.664 75.2785 121.819 75.3613 122.046C75.4867 122.388 75.5481 122.751 75.5481 123.122C75.5481 123.931 76.0287 124.657 76.7761 124.972L77.2673 125.18L77.6277 124.785C79.7447 122.471 81.0928 119.611 81.5306 116.517L81.6641 115.575L80.7164 115.658C80.6203 115.666 80.5268 115.671 80.4334 115.671C79.5898 115.671 78.7943 115.343 78.199 114.748C77.8199 114.368 77.3154 114.16 76.7788 114.16C76.0794 114.16 75.4334 114.526 75.0516 115.135C74.9448 115.306 74.7606 115.407 74.5604 115.407C74.4536 115.407 74.3495 115.378 74.2561 115.319C74.1253 115.236 74.0345 115.111 73.9998 114.958C73.9651 114.809 73.9891 114.654 74.0719 114.521C74.6645 113.568 75.679 112.999 76.7868 112.999C77.6277 112.999 78.4206 113.327 79.0186 113.928C79.3976 114.307 79.9022 114.515 80.4388 114.515C80.703 114.515 80.962 114.465 81.2049 114.363L81.6961 114.16L81.6721 113.629C81.5306 110.506 80.4601 107.529 78.5781 105.028L78.0068 104.267L77.3955 104.996C76.7895 105.716 75.9085 106.128 74.9742 106.128C74.4349 106.128 73.9277 106.338 73.5487 106.72C73.4392 106.832 73.2924 106.891 73.1375 106.891C72.9827 106.891 72.8386 106.832 72.7318 106.723C72.6223 106.613 72.5609 106.469 72.5609 106.314C72.5609 106.16 72.6196 106.015 72.7291 105.906C73.3271 105.303 74.1253 104.972 74.9769 104.972C75.8284 104.972 76.5119 104.491 76.8269 103.744L77.0351 103.252L76.64 102.892C74.3228 100.775 71.4637 99.4244 68.3724 98.9892L67.43 98.8558L67.5128 99.8034C67.5956 100.743 67.2619 101.661 66.5998 102.321C66.2207 102.7 66.0125 103.204 66.0125 103.741C66.0125 104.278 66.2207 104.782 66.5998 105.161C66.7093 105.271 66.768 105.415 66.768 105.57C66.768 105.724 66.7066 105.869 66.5998 105.978C66.4904 106.088 66.3462 106.146 66.1914 106.146C66.0365 106.146 65.8924 106.085 65.7829 105.978C64.5496 104.745 64.5496 102.737 65.7829 101.504C66.3569 100.93 66.5277 100.073 66.2181 99.3176L66.0152 98.8264L65.4839 98.8504C62.3579 98.9919 59.384 100.062 56.8827 101.947L56.1218 102.518L56.8506 103.13C57.5714 103.736 57.9825 104.617 57.9825 105.551C57.9825 106.659 58.8848 107.558 59.99 107.558C60.3077 107.558 60.5693 107.817 60.5693 108.138C60.5693 108.458 60.3104 108.717 59.99 108.717C58.2441 108.717 56.8239 107.297 56.8239 105.554C56.8239 104.745 56.3434 104.019 55.5959 103.704L55.1047 103.495L54.7444 103.891C52.6274 106.208 51.2766 109.067 50.8415 112.158L50.708 113.1L51.6557 113.018C51.7491 113.01 51.8426 113.004 51.936 113.004C52.7822 113.004 53.5778 113.333 54.1731 113.928C54.4107 114.166 54.6936 114.336 55.014 114.433C55.1635 114.478 55.2836 114.577 55.3557 114.71C55.4278 114.846 55.4438 115.004 55.4011 115.151C55.329 115.394 55.1021 115.562 54.8485 115.562C54.7924 115.562 54.7363 115.554 54.683 115.538C54.1811 115.388 53.7219 115.113 53.3535 114.742C52.9744 114.363 52.4699 114.155 51.936 114.155C51.6717 114.155 51.4128 114.206 51.1698 114.307L50.6786 114.51L50.7027 115.041C50.8441 118.167 51.9146 121.141 53.7967 123.643L54.368 124.403L54.9793 123.675C55.5853 122.954 56.4662 122.543 57.4006 122.543C58.5084 122.543 59.4081 121.64 59.4081 120.535C59.4081 120.217 59.667 119.956 59.9874 119.956C60.3077 119.956 60.5666 120.215 60.5666 120.535C60.5666 122.281 59.1464 123.699 57.4006 123.699C56.5917 123.699 55.8656 124.182 55.5506 124.927L55.3423 125.418L55.7374 125.778C58.0546 127.895 60.9137 129.246 64.005 129.681L64.9474 129.814L64.8646 128.867C64.7819 127.927 65.1156 127.011 65.7749 126.349C66.3435 125.783 66.5171 124.935 66.2207 124.187C66.1647 124.043 66.1647 123.885 66.2261 123.744C66.2875 123.602 66.3996 123.493 66.5438 123.437C66.6132 123.41 66.6852 123.394 66.7573 123.394L66.76 123.4Z" fill="white"></path>
  <path d="M66.1864 118.114C64.1068 118.114 62.4116 116.422 62.4116 114.342C62.4116 112.263 64.1041 110.567 66.1864 110.567C68.2686 110.567 69.9584 112.26 69.9584 114.342C69.9584 116.424 68.2659 118.114 66.1864 118.114ZM66.1864 111.723C64.7421 111.723 63.5702 112.898 63.5702 114.342C63.5702 115.786 64.7448 116.958 66.1864 116.958C67.6279 116.958 68.8025 115.784 68.8025 114.342C68.8025 112.901 67.6279 111.723 66.1864 111.723Z" fill="white"></path>
  <path d="M107.519 32.985C107.364 32.985 107.22 32.9236 107.11 32.8141L105.111 30.8147C104.886 30.5904 104.886 30.222 105.111 29.9978C105.22 29.8883 105.364 29.8296 105.519 29.8296C105.674 29.8296 105.818 29.891 105.927 30.0004L107.927 31.9999C108.036 32.1094 108.098 32.2535 108.098 32.4084C108.098 32.5632 108.036 32.7074 107.927 32.8168C107.817 32.9263 107.673 32.9877 107.519 32.9877V32.985Z" fill="white"></path>
  <path d="M97.8549 117.175C97.636 117.175 97.4999 117.079 97.4198 116.996C97.3103 116.881 97.2543 116.732 97.2596 116.571C97.2756 116.174 97.7401 106.787 103.928 100.599C109.219 95.3057 116.988 94.1952 119.241 93.979C119.275 93.9763 119.313 93.9736 119.35 93.9736C119.662 93.9736 119.961 94.1071 120.172 94.3394C120.383 94.5743 120.485 94.8759 120.455 95.1936C120.242 97.4467 119.129 105.212 113.835 110.506C107.639 116.702 98.258 117.159 97.8629 117.177H97.8549V117.175ZM118.333 95.2523C115.116 95.6982 109.078 97.0917 104.75 101.419C100.447 105.722 99.0429 111.772 98.5891 114.996L98.4476 115.992L99.4433 115.851C102.668 115.397 108.717 113.993 113.021 109.689C117.348 105.362 118.741 99.3207 119.187 96.1066L119.323 95.1162L118.333 95.2523Z" fill="white"></path>
  <path d="M81.6883 81.8673C81.3013 81.8513 71.9205 81.3948 65.7271 75.1988C60.4334 69.9051 59.3202 62.1394 59.1066 59.8863C59.0773 59.5686 59.176 59.2669 59.3869 59.0347C59.6005 58.7998 59.8968 58.6689 60.2198 58.6689C60.2545 58.6689 60.2892 58.6689 60.3239 58.6743C62.5717 58.8878 70.3374 60.001 75.6311 65.2948C81.8218 71.4854 82.2836 80.8716 82.3023 81.2667C82.3077 81.4242 82.2516 81.5737 82.1422 81.6885C82.03 81.8059 81.8752 81.87 81.707 81.87H81.6883V81.8673ZM60.3747 60.7966C60.8205 64.0107 62.2113 70.0519 66.5413 74.3792C69.9583 77.7963 74.5179 79.3766 77.7427 80.1027L80.2895 80.6767L70.9194 71.3066C70.8099 71.1971 70.7512 71.053 70.7512 70.8981C70.7512 70.7433 70.8126 70.5992 70.9221 70.4897C71.0315 70.3802 71.1757 70.3215 71.3305 70.3215C71.4853 70.3215 71.6295 70.3829 71.7389 70.4897L81.109 79.8598L80.5351 77.3131C79.809 74.0883 78.2286 69.526 74.8116 66.1116C70.4842 61.7843 64.4431 60.3908 61.2289 59.945L60.2385 59.8088L60.3747 60.7992V60.7966Z" fill="white"></path>
  <path d="M84.3602 34.293C81.8215 34.293 79.6378 33.5135 78.0467 32.0399L77.5315 31.5647L77.0163 32.0399C75.4252 33.5135 73.2415 34.293 70.7028 34.293C65.0327 34.293 61.645 30.7665 61.645 24.8562C61.645 19.6025 64.3359 16.2122 69.0263 15.5501L70.0755 15.4033L69.5949 14.4583C68.8688 13.0301 68.5031 11.3402 68.5031 9.43418C68.5031 3.52647 71.8881 0 77.5582 0C83.2283 0 86.6133 3.52647 86.6133 9.43418C86.6133 11.3429 86.2449 13.0354 85.5188 14.4636L85.0409 15.4033L86.0847 15.5555C90.7458 16.2335 93.4207 19.6212 93.4207 24.8562C93.4207 30.7639 90.0357 34.293 84.3655 34.293H84.3602ZM84.3575 16.5832C84.3255 16.5832 84.2908 16.5832 84.2588 16.5832L83.9491 16.5886L83.7382 16.7728C82.4408 17.918 80.775 18.5987 78.7889 18.799L78.4819 18.8283L78.2843 19.0632C77.0777 20.5021 76.4637 22.4509 76.4637 24.8535C76.4637 27.0665 76.9789 28.8925 77.996 30.278C79.7179 32.6379 82.4061 33.1344 84.3575 33.1344C89.3042 33.1344 92.2567 30.0404 92.2567 24.8562C92.2567 19.6719 89.3042 16.5832 84.3549 16.5832H84.3575ZM70.7161 16.5859C65.7615 16.5859 62.8009 19.6772 62.8009 24.8562C62.8009 30.0351 65.7535 33.1344 70.7001 33.1344C72.3526 33.1344 74.6858 32.7714 76.413 31.0362L76.8161 30.6304L76.5358 30.1312C75.7189 28.6736 75.3051 26.8984 75.3051 24.8535C75.3051 22.9314 75.6735 21.2416 76.4023 19.8321L76.8881 18.8897L75.8363 18.7376C74.0584 18.4786 72.5555 17.8192 71.3702 16.7754L71.1593 16.5912L70.7108 16.5859H70.7161ZM77.5555 1.15591C72.6089 1.15591 69.659 4.24992 69.659 9.43418C69.659 14.6184 72.6115 17.7125 77.5555 17.7125C82.4995 17.7125 85.4547 14.6184 85.4547 9.43418C85.4547 4.24992 82.5022 1.15591 77.5555 1.15591Z" fill="white"></path>
</svg>
