<?xml version="1.0" encoding="UTF-8"?>
<svg xmlns="http://www.w3.org/2000/svg" width="123" height="112" viewBox="0 0 123 112" fill="none">
  <path d="M0.64639 111.017C0.322077 111.017 0.0402596 110.767 0 110.444V56.1253C0 55.7406 0.31313 55.4253 0.70007 55.4253H2.97474L3.07539 54.5888C3.83808 48.2859 6.27379 42.493 9.93741 38.2836C13.5966 34.0765 18.2421 31.7593 23.0173 31.7593C25.3814 31.775 27.6762 32.2738 29.8368 33.24L29.8793 33.2579L32.8026 34.365L32.7825 32.9671C32.7624 31.5916 32.9525 30.2272 33.3506 28.9143L33.6503 27.919L32.6326 27.7065C22.2814 25.5549 15.4753 15.6913 17.1372 5.25063L17.1416 5.21485C17.164 5.02697 17.2468 4.85922 17.3787 4.73397C17.5196 4.65121 17.6807 4.60648 17.8439 4.60648C17.8797 4.60648 17.9155 4.60648 17.9513 4.61319C18.1437 4.63779 18.336 4.66463 18.5261 4.69371L18.3293 7.15402C17.5912 16.4003 23.8918 24.7475 32.986 26.5726L34.0462 26.785L34.1222 25.707C34.753 16.7984 28.6961 8.59889 20.0135 6.57025L19.1233 4.79436C27.7098 6.40027 34.2005 13.6626 34.744 22.484L34.8715 24.5663L36.3589 23.1035C37.2625 22.2156 38.2757 21.4484 39.3761 20.8199C39.4768 20.7618 39.5908 20.7327 39.7071 20.7327C39.9487 20.7327 40.1746 20.8624 40.2931 21.0726C40.3826 21.2292 40.405 21.4104 40.358 21.5848C40.311 21.7571 40.1992 21.9024 40.0426 21.9919C38.09 23.1147 36.4662 24.7363 35.3457 26.6866C34.2587 28.7153 33.7219 30.9877 33.7867 33.2668L33.8113 34.119L34.6613 34.1883C35.0885 34.2241 35.5246 34.242 35.9541 34.242C36.3835 34.242 36.8196 34.2241 37.2468 34.1883H37.2849L37.3229 34.1794C38.1683 34.0407 39.0339 33.9714 39.8928 33.9714C41.3801 33.9714 42.8586 34.1794 44.29 34.5887C45.3457 34.9063 46.3813 35.3357 47.3609 35.8591L48.3361 36.3802L48.7074 35.3402C49.7609 32.3789 51.8924 29.9767 54.7061 28.5766L56.7571 27.5567L54.5853 26.8253C50.868 25.5728 47.7166 23.2109 45.471 19.9923C43.2254 16.7761 42.0959 13.0028 42.2055 9.07977V9.01938L42.201 8.96122C42.1853 8.79124 42.2435 8.62573 42.3643 8.50718C42.5097 8.37075 42.7221 8.28128 42.9436 8.26563H42.9972C46.7481 8.26563 50.443 9.26541 53.6817 11.1554L55.2854 12.2782L55.5649 10.84C56.3254 6.91469 58.2042 3.32712 61 0.468687C61.1409 0.325542 61.3288 0.240549 61.5301 0.233839H61.5726L61.6151 0.22713C61.6374 0.224893 61.6576 0.222656 61.6799 0.222656C61.8253 0.222656 61.964 0.287519 62.0557 0.401588L62.1027 0.461977L62.1586 0.51342C65.1713 3.22423 67.2805 6.738 68.2534 10.6745L68.58 11.9963L69.7072 11.2337C73.0018 9.00596 76.8466 7.80041 80.8256 7.74896H80.848L80.8905 7.74673C80.9084 7.74673 80.924 7.74673 80.9419 7.74673C81.1007 7.74673 81.2528 7.80712 81.3669 7.91895C81.4966 8.0442 81.5659 8.21866 81.557 8.39759V8.4535V8.50942C82.0625 16.5166 77.1284 23.9624 69.5552 26.6151L67.3834 27.3755L69.459 28.3708C73.8965 30.4979 76.7527 35.0517 76.7348 39.9723V42.0591C76.7348 42.8486 76.6833 43.6314 76.6297 44.4612C76.5737 45.3112 76.5178 46.1745 76.5178 47.0535V49.4914L78.1685 47.6977C79.6268 46.1141 80.5214 44.1436 80.7563 42.0032C80.8726 41.2628 81.0515 40.5113 81.2819 39.7866C82.9325 34.582 87.4975 30.7842 92.9124 30.1065C93.3217 30.0684 93.7713 30.0483 94.203 30.0483C95.1245 30.0483 96.0504 30.1378 96.9563 30.3122L97.8375 30.4822L98.0589 29.6122C98.22 28.9747 98.3452 28.3238 98.428 27.6752L98.4459 27.5388L98.4235 27.4023C98.419 27.3733 98.419 27.3442 98.4235 27.3151L98.428 27.2749C98.504 26.5927 98.504 25.9083 98.428 25.235L98.4235 25.2037C98.1283 23.24 97.3455 21.3634 96.16 19.7776C96.037 19.6211 95.9856 19.4488 96.0057 19.2722C96.0258 19.0977 96.1131 18.9411 96.2495 18.8338C96.368 18.7398 96.5067 18.6906 96.6566 18.6906C96.8579 18.6906 97.0457 18.7801 97.171 18.9389C97.9404 19.932 98.5667 21.0346 99.0274 22.2133L99.77 24.1078L100.747 22.3229C103.628 17.0556 109.148 13.7834 115.151 13.7834C116.706 13.7834 118.254 14.0049 119.752 14.4432L119.801 14.4567C119.976 14.4947 120.128 14.5841 120.242 14.7072C120.28 14.8883 120.269 15.0807 120.208 15.2551L120.188 15.3133L120.175 15.3737C119.374 19.1223 117.29 22.5108 114.306 24.9152C111.333 27.3106 107.6 28.6325 103.789 28.6325C103.472 28.6325 103.15 28.6236 102.832 28.6057H102.776H102.72C102.293 28.6325 101.859 28.6459 101.432 28.6459C101.005 28.6459 100.571 28.6325 100.143 28.6057L99.1348 28.543V31.0235L99.7319 31.2628C101.562 31.9942 103.192 33.0745 104.574 34.4791C107.549 37.597 108.931 42.0099 108.267 46.2796C107.726 48.6527 108.07 51.1645 109.235 53.3251L109.26 53.3675L109.273 53.3877C109.546 53.8104 109.783 54.2577 109.978 54.7185L110.224 55.3H122.275C122.66 55.3 122.973 55.6131 122.973 56.0001V110.4C122.964 110.744 122.675 111.022 122.318 111.022H0.70007H0.648627L0.64639 111.017ZM1.3979 109.791H121.584V92.9964H1.3979V109.791ZM1.3979 91.641H121.584V74.8438H1.3979V91.641ZM1.3979 73.4906H121.584V56.6509H1.3979V73.4906ZM92.7849 31.5961L92.7268 31.6028C87.8598 32.2044 83.7645 35.6153 82.2951 40.2944C82.0781 40.9609 81.9216 41.6587 81.8254 42.3633C81.4899 45.0316 80.2083 47.4941 78.2199 49.2969C77.3946 50.0528 76.6297 50.8804 75.9408 51.7594L75.7753 51.9696L75.7439 52.2358C75.7149 52.4818 75.6679 52.7368 75.6187 53.0052C75.527 53.5017 75.4331 54.0139 75.4331 54.5597V55.5103H108.81L108.052 54.1079C106.775 51.7482 106.393 49.0061 106.972 46.3847L106.981 46.34C107.614 42.4348 106.368 38.3999 103.651 35.537C101.237 33.0297 97.8621 31.5938 94.3886 31.5938H92.7849V31.5961ZM49.5126 43.6695C49.7049 47.3018 50.1478 50.9542 50.8322 54.5239L50.9798 55.2955H73.8517L74.0955 54.7095C74.3863 54.0139 74.3863 53.381 74.3863 52.824V51.8735H68.7455C68.3966 51.8645 68.0991 51.5581 68.0901 51.1935V51.1712C68.0901 50.8133 68.3831 50.5181 68.7455 50.5181H74.6301L74.7285 49.6771C75.0953 46.5011 75.2295 43.2691 75.1244 40.0707C75.1244 39.9074 75.1154 39.7285 75.1043 39.5473C74.7308 33.1528 69.4232 28.1449 63.0242 28.1449C62.7938 28.1449 62.5589 28.1516 62.3263 28.165H62.0579C62.002 28.165 61.9304 28.1628 61.8589 28.1628C56.5066 28.1628 51.8074 31.5871 50.1657 36.6844C49.7787 37.8766 49.5864 39.1179 49.5998 40.3704L49.6088 41.312H54.762C55.1445 41.312 55.4509 41.6117 55.4621 41.992C55.4621 42.1597 55.3838 42.3409 55.2518 42.4773L55.2317 42.4997C55.1355 42.6093 55.0035 42.6674 54.8671 42.6674H54.8134H49.4611L49.5148 43.6695H49.5126ZM23.0352 32.8553C13.8381 33.1259 6.01881 41.983 4.44645 53.9178L4.30554 54.9936H49.5126L49.3158 53.8775C48.6179 49.9186 48.1974 45.8726 48.07 41.8533V39.2588H48.023C48.0163 38.8898 48.0319 38.5207 48.0655 38.1561L48.1214 37.588L47.6472 37.2727C46.5222 36.5234 45.2943 35.9553 43.9925 35.5862C42.6953 35.2149 41.3533 35.0271 40.0024 35.0271C39.224 35.0271 38.4412 35.0897 37.674 35.2149C36.9561 35.3424 36.2314 35.4118 35.5134 35.4207H35.4732C35.1332 35.4431 34.7955 35.4543 34.46 35.4543C34.1245 35.4543 33.7979 35.4431 33.4691 35.423C31.9639 35.2664 30.4944 34.8571 29.1122 34.2085C27.2021 33.3272 25.169 32.8732 23.0687 32.8598H23.0352V32.8553ZM115.028 15.2887C108.267 15.2887 102.304 19.6099 100.19 26.0402L99.8438 27.0982L100.942 27.2771C101.774 27.4113 102.619 27.4806 103.458 27.4806C110.22 27.4806 116.196 23.1639 118.325 16.738L118.676 15.6801L117.578 15.4989C116.737 15.3603 115.878 15.2909 115.031 15.2909L115.028 15.2887ZM43.8248 10.764C44.328 18.7667 50.4654 25.329 58.4167 26.3668L60.537 26.6441L59.3225 24.8839C57.2111 21.8242 55.9452 18.2478 55.6678 14.5394L55.641 14.1838L55.386 13.9333C54.7575 13.3137 54.053 12.7702 53.2948 12.3162C50.7226 10.8132 47.7971 9.92745 44.8313 9.753L43.7599 9.69037L43.827 10.7617L43.8248 10.764ZM78.7276 9.06187C74.9231 9.42197 71.2863 11.0525 68.486 13.6537L68.1975 13.9221L68.1841 14.3157C68.0566 17.9615 66.9651 21.5222 65.0282 24.6133L63.883 26.4428L66.0078 26.0537C73.7444 24.6356 79.5328 17.8989 79.7699 10.0348L79.8035 8.95899L78.7299 9.05964L78.7276 9.06187ZM60.7584 2.80374C55.2406 9.49131 55.433 19.0351 61.2169 25.4945L61.9796 26.3467L62.6775 25.4431C65.2899 22.0635 66.7482 17.8496 66.784 13.5799V13.5441V13.5083C66.5245 9.52486 64.894 5.70914 62.1944 2.76572L61.4563 1.96053L60.7607 2.80374H60.7584Z" fill="white"></path>
</svg>
