<?xml version="1.0" standalone="no"?>
<!DOCTYPE svg PUBLIC "-//W3C//DTD SVG 1.1//EN" "http://www.w3.org/Graphics/SVG/1.1/DTD/svg11.dtd" >
<svg xmlns="http://www.w3.org/2000/svg" xmlns:xlink="http://www.w3.org/1999/xlink" version="1.1">
<metadata>
Created by FontForge 20190801 at Fri Aug 26 08:35:54 2005
 By root
Copyright (c) Christian Schwartz, 2005. All rights reserved.
</metadata>
<defs>
<font id="LocalGothic-Regular" horiz-adv-x="479" >
  <font-face 
    font-family="Local Gothic"
    font-weight="500"
    font-stretch="normal"
    units-per-em="1000"
    panose-1="2 0 6 6 4 0 0 2 0 4"
    ascent="800"
    descent="-200"
    x-height="650"
    cap-height="650"
    bbox="-93 -244 922 898"
    underline-thickness="20"
    underline-position="-133"
    stemh="102"
    stemv="115"
    unicode-range="U+0020-FB02"
  />
<missing-glyph horiz-adv-x="500" 
 />
    <glyph glyph-name=".notdef" horiz-adv-x="500" 
 />
    <glyph glyph-name="eth" unicode="&#xf0;" horiz-adv-x="547" 
d="M290 0h-222v284h-62v82h62v284h221c147 0 228 -104 228 -328c0 -219 -94 -322 -227 -322zM348 362c-2 129 -24 168 -74 168h-45v-164h73v-82h-73v-164h46c54 0 73 43 73 169v73z" />
    <glyph glyph-name="Lslash" unicode="&#x141;" horiz-adv-x="378" 
d="M298 424v-82l-117 -51v-183h173v-108h-289v241l-55 -23v82l55 23v327h116v-277z" />
    <glyph glyph-name="lslash" unicode="&#x142;" horiz-adv-x="438" 
d="M358 451v-112l-129 -57v-155h186v-127h-347v210l-58 -25v112l58 25v328l161 -1v-255z" />
    <glyph glyph-name="Scaron" unicode="&#x160;" 
d="M294 174c0 90 -256 93 -256 302c0 120 91 186 201 186c114 0 164 -58 193 -134l-130 -47c-11 37 -26 56 -61 56c-27 0 -48 -11 -48 -50c0 -97 262 -89 262 -308c0 -100 -72 -190 -215 -190c-137 0 -194 93 -220 170l151 33c12 -50 26 -77 70 -77c38 0 53 20 53 59z
M239 773l49 33h80l-122 -120h-14l-122 120h80z" />
    <glyph glyph-name="scaron" unicode="&#x161;" horiz-adv-x="604" 
d="M296 527c-55 0 -86 -16 -86 -47c0 -37 25 -48 130 -73c128 -30 232 -66 232 -205c0 -144 -94 -210 -267 -210c-186 0 -276 81 -276 228h168c0 -54 27 -84 102 -84c71 0 100 17 100 53c0 41 -43 49 -123 67c-154 35 -237 90 -237 210c0 125 105 193 259 193
c157 0 248 -57 256 -196h-168c-2 38 -26 64 -90 64zM298 773l49 33h80l-122 -120h-14l-122 120h80z" />
    <glyph glyph-name="Yacute" unicode="&#xdd;" horiz-adv-x="536" 
d="M190 218l-170 432h178l71 -238l14 -68h2l15 68l73 238h143l-165 -441v-209h-161v218zM132 693v9l272 92v-101h-272z" />
    <glyph glyph-name="yacute" unicode="&#xfd;" horiz-adv-x="389" 
d="M137 222l-120 428h117l54 -246l13 -84h2l12 84l53 246h104l-119 -428v-222h-116v222zM58 693v9l272 92v-101h-272z" />
    <glyph glyph-name="Thorn" unicode="&#xde;" horiz-adv-x="636" 
d="M351 124h-116v-124h-170v650h170v-114h116c172 0 236 -63 236 -209c0 -126 -73 -203 -236 -203zM410 331c0 42 -24 63 -67 63h-108v-130h109c46 0 66 25 66 67z" />
    <glyph glyph-name="thorn" unicode="&#xfe;" horiz-adv-x="521" 
d="M286 114h-57v-114h-161v650h161v-97h56c143 0 211 -93 211 -219c0 -162 -93 -220 -210 -220zM337 349c0 65 -22 81 -67 81h-41v-200h42c49 0 66 21 66 84v35z" />
    <glyph glyph-name="Zcaron" unicode="&#x17d;" horiz-adv-x="517" 
d="M271 147h225v-147h-481v7l247 495h-227v148h483v-7zM268 773l49 33h80l-122 -120h-14l-122 120h80z" />
    <glyph glyph-name="zcaron" unicode="&#x17e;" horiz-adv-x="370" 
d="M146 101h197v-101h-323v81l208 468h-186v101h312v-81zM202 773l49 33h80l-122 -120h-14l-122 120h80z" />
    <glyph glyph-name="onehalf" unicode="&#xb1;" horiz-adv-x="370" 
d="M340 346v-42h-310v42h310zM209 185v3c0 14 -5 22 -19 22c-15 0 -24 -10 -24 -24v-20h-73v18c0 55 36 87 99 87c61 0 93 -30 93 -77v-6c0 -34 -16 -58 -53 -91l-42 -38h96v-59h-193v48l95 98c14 15 21 25 21 39zM225 381h-77v183h-46v39l75 47h48v-269z" />
    <glyph glyph-name="onequarter" unicode="&#x2264;" horiz-adv-x="370" 
d="M255 0h-72v53h-120v56l129 160h63v-164h36v-52h-36v-53zM340 346v-42h-310v42h310zM183 175l-55 -70h55v70zM225 381h-77v183h-46v39l75 47h48v-269z" />
    <glyph glyph-name="onesuperior" horiz-adv-x="226" 
d="M178 300h-97v241h-55v48l92 61h60v-350z" />
    <glyph glyph-name="threequarters" unicode="&#xbe;" horiz-adv-x="370" 
d="M263 0h-72v53h-120v56l129 160h63v-164h36v-52h-36v-53zM275 575c0 -28 -15 -53 -40 -58c26 -5 44 -28 44 -53v-10c0 -43 -27 -80 -96 -80c-64 0 -99 35 -99 84v6h75v-8c0 -15 6 -26 22 -26c17 0 22 11 22 26v3c0 16 -7 29 -24 29h-24v56h22c17 0 24 8 24 24v3
c0 15 -5 25 -19 25c-17 0 -22 -12 -22 -27v-7h-73v6c0 50 33 84 97 84c66 0 91 -33 91 -71v-6zM340 346v-42h-310v42h310zM191 175l-55 -70h55v70z" />
    <glyph glyph-name="threesuperior" horiz-adv-x="312" 
d="M273 552c0 -36 -20 -68 -51 -75c33 -6 56 -36 56 -69v-13c0 -56 -34 -104 -123 -104c-81 0 -125 46 -125 109v8h95v-10c0 -20 8 -34 28 -34c22 0 28 14 28 34v4c0 20 -9 37 -31 37h-30v73h28c22 0 31 11 31 31v4c0 20 -7 33 -25 33c-21 0 -28 -16 -28 -35v-9h-92v7
c0 65 41 110 123 110c84 0 116 -43 116 -93v-8z" />
    <glyph glyph-name="twosuperior" horiz-adv-x="309" 
d="M177 541v4c0 18 -6 28 -24 28c-20 0 -31 -13 -31 -31v-26h-92v23c0 72 45 114 125 114c78 0 119 -39 119 -101v-7c0 -45 -21 -76 -68 -119l-53 -49h122v-77h-245v63l120 127c18 20 27 33 27 51z" />
    <glyph glyph-name="brokenbar" unicode="&#xa6;" horiz-adv-x="276" 
d="M208 -80h-140v357h140v-357zM208 710v-331h-140v331h140z" />
    <glyph glyph-name="minus" unicode="&#x2212;" horiz-adv-x="500" 
d="M470 366v-82h-440v82h440z" />
    <glyph glyph-name="multiply" unicode="&#xd7;" horiz-adv-x="495" 
d="M365 553l111 -111l-120 -120l118 -117l-107 -107l-118 117l-119 -119l-111 111l119 119l-117 118l107 107l117 -118z" />
    <glyph glyph-name="space" unicode=" " horiz-adv-x="180" 
 />
    <glyph glyph-name="exclam" unicode="!" horiz-adv-x="286" 
d="M185 204h-84l-42 242v204h168v-204zM223 0h-160v153h160v-153z" />
    <glyph glyph-name="quotedbl" unicode="&#x22;" horiz-adv-x="336" 
d="M298 587l-49 -170h-53v233h102v-63zM145 587l-49 -170h-53v233h102v-63z" />
    <glyph glyph-name="numbersign" unicode="#" horiz-adv-x="384" 
d="M19 276h75l12 100h-65v96h76l20 178h60l-20 -178h64l20 178h60l-20 -178h64v-96h-75l-12 -100h65v-96h-76l-20 -180h-60l20 180h-64l-20 -180h-60l20 180h-64v96zM166 376l-12 -100h64l12 100h-64z" />
    <glyph glyph-name="dollar" unicode="$" horiz-adv-x="360" 
d="M234 566c46 -15 75 -53 91 -95l-95 -34c-8 30 -24 49 -49 49c-20 0 -35 -10 -35 -41c0 -71 191 -65 191 -225c0 -59 -34 -113 -103 -132v-88h-103v88c-65 18 -96 72 -111 118l110 24c9 -37 19 -56 51 -56c28 0 39 14 39 43c0 65 -187 67 -187 220c0 69 41 114 98 129v84
h103v-84z" />
    <glyph glyph-name="percent" unicode="%" horiz-adv-x="666" 
d="M175 656c81 0 156 -55 156 -152s-75 -152 -156 -152s-156 55 -156 152s75 152 156 152zM491 298c81 0 156 -55 156 -152s-75 -152 -156 -152s-156 55 -156 152s75 152 156 152zM470 650h50l-324 -650h-50zM491 208c-33 0 -58 -20 -58 -62s25 -62 58 -62s58 20 58 62
s-25 62 -58 62zM175 566c-33 0 -58 -20 -58 -62s25 -62 58 -62s58 20 58 62s-25 62 -58 62z" />
    <glyph glyph-name="ampersand" unicode="&#x26;" horiz-adv-x="737" 
d="M506 246c19 28 35 59 48 92h154c-21 -70 -57 -140 -109 -199l120 -139h-235l-26 30c-54 -27 -116 -42 -185 -42c-143 0 -239 70 -239 197c0 102 74 153 141 174c-22 33 -36 68 -36 111c0 113 94 190 236 190c133 0 216 -69 216 -170c0 -90 -84 -138 -155 -162zM257 264
c-18 -15 -24 -36 -24 -57c0 -46 33 -76 75 -76c20 0 39 3 56 8zM367 406c32 20 47 43 47 69c0 31 -17 45 -42 45s-42 -20 -42 -45c0 -21 8 -42 37 -69z" />
    <glyph glyph-name="quotesingle" unicode="'" horiz-adv-x="203" 
d="M165 587l-69 -170h-53v233h122v-63z" />
    <glyph glyph-name="parenleft" unicode="(" horiz-adv-x="334" 
d="M305 -39h-135c-40 40 -129 150 -129 361s80 326 120 366h135c-24 -40 -80 -175 -80 -366s65 -321 89 -361z" />
    <glyph glyph-name="parenright" unicode=")" horiz-adv-x="334" 
d="M29 688h135c40 -40 129 -150 129 -361s-80 -326 -120 -366h-135c24 40 80 175 80 366s-65 321 -89 361z" />
    <glyph glyph-name="asterisk" unicode="*" horiz-adv-x="364" 
d="M80 355l38 118l-94 68v5h118l37 113h5l38 -113h118v-5l-94 -68l38 -118h-4l-98 71l-98 -71h-4z" />
    <glyph glyph-name="plus" unicode="+" horiz-adv-x="450" 
d="M420 376v-102h-142v-144h-106v144h-142v102h142v144h106v-144h142z" />
    <glyph glyph-name="comma" unicode="," horiz-adv-x="240" 
d="M117 151c45 0 82 -37 82 -90c0 -94 -79 -172 -149 -193l-1 2c48 42 72 86 67 129c-53 3 -75 37 -75 77s33 75 76 75z" />
    <glyph glyph-name="hyphen" unicode="-" horiz-adv-x="356" 
d="M54 374h248v-146h-248v146z" />
    <glyph glyph-name="hyphen" unicode="&#xad;" horiz-adv-x="356" 
d="M54 374h248v-146h-248v146z" />
    <glyph glyph-name="period" unicode="." horiz-adv-x="260" 
d="M207 0h-154v143h154v-143z" />
    <glyph glyph-name="slash" unicode="/" horiz-adv-x="412" 
d="M263 650h140l-254 -650h-140z" />
    <glyph glyph-name="zero" unicode="0" horiz-adv-x="414" 
d="M374 177c0 -116 -54 -184 -167 -184s-167 68 -167 184v297c0 116 54 184 167 184s167 -68 167 -184v-297zM156 155c0 -37 17 -59 51 -59s51 22 51 59v341c0 37 -17 59 -51 59s-51 -22 -51 -59v-341z" />
    <glyph glyph-name="one" unicode="1" horiz-adv-x="301" 
d="M216 97h57v-97h-237v97h64v389h-70v52l118 112h68v-553z" />
    <glyph glyph-name="two" unicode="2" horiz-adv-x="531" 
d="M313 447v16c0 36 -7 74 -54 74c-41 0 -58 -30 -65 -109l-157 8c12 158 103 226 235 226c127 0 210 -72 210 -202c0 -94 -50 -164 -138 -253l-79 -80h217v-127h-425v106l161 171c67 71 95 103 95 170z" />
    <glyph glyph-name="three" unicode="3" horiz-adv-x="392" 
d="M353 442c0 -56 -26 -93 -71 -106c47 -12 76 -48 76 -106v-63c0 -107 -54 -174 -167 -174s-164 63 -164 184v33h113v-55c0 -37 15 -59 51 -59c34 0 51 22 51 59v67c0 42 -8 58 -47 58h-63v106h58c39 0 47 10 47 55v55c0 37 -10 59 -44 59c-36 0 -49 -22 -49 -59v-36h-113
v14c0 121 49 184 162 184s160 -68 160 -174v-42z" />
    <glyph glyph-name="four" unicode="4" horiz-adv-x="552" 
d="M457 217h74v-117h-74v-100h-171v100h-256v127l270 423h157v-433zM286 217v176l-113 -176h113z" />
    <glyph glyph-name="five" unicode="5" horiz-adv-x="522" 
d="M239 416c12 2 25 4 52 4c96 0 205 -56 205 -211c0 -152 -105 -224 -262 -224c-89 0 -157 22 -202 57l24 176c37 -39 79 -65 152 -65c60 0 104 13 104 62c0 50 -45 63 -112 63c-61 0 -102 -10 -133 -21l-5 4l52 389h349v-148h-213z" />
    <glyph glyph-name="six" unicode="6" horiz-adv-x="628" 
d="M208 350c33 39 77 58 143 58c155 0 239 -74 239 -210c0 -133 -97 -210 -272 -210c-172 0 -280 107 -280 321c0 265 143 350 296 350c137 0 227 -70 238 -204h-166c-7 45 -29 66 -75 66c-63 0 -117 -39 -123 -171zM321 284c-63 0 -95 -29 -95 -81c0 -51 31 -80 95 -80
c62 0 95 28 95 80s-33 81 -95 81z" />
    <glyph glyph-name="seven" unicode="7" horiz-adv-x="514" 
d="M469 510c-101 -131 -179 -249 -190 -510h-171c13 278 147 438 232 523h-295v127h424v-140z" />
    <glyph glyph-name="eight" unicode="8" horiz-adv-x="411" 
d="M101 345c-37 20 -54 57 -54 116v30c0 100 56 167 160 167s160 -62 160 -167v-30c0 -60 -16 -96 -52 -116c41 -22 61 -61 61 -124v-62c0 -105 -62 -167 -169 -167s-169 67 -169 167v62c0 61 21 102 63 124zM152 152c0 -36 21 -57 55 -57c36 0 55 21 55 57v86
c0 36 -19 57 -55 57c-34 0 -55 -21 -55 -57v-86zM158 444c0 -36 15 -57 49 -57c36 0 49 21 49 57v54c0 36 -13 57 -49 57c-34 0 -49 -21 -49 -57v-54z" />
    <glyph glyph-name="nine" unicode="9" horiz-adv-x="411" 
d="M255 268c-19 -30 -45 -40 -84 -40c-66 0 -131 36 -131 155v91c0 116 51 184 164 184s164 -63 164 -184v-297c0 -121 -52 -184 -165 -184s-162 66 -162 171v19h110v-30c0 -37 18 -59 52 -59c36 0 52 22 52 59v115zM255 499c0 37 -15 59 -51 59c-34 0 -51 -22 -51 -59v-118
c0 -43 13 -59 50 -59s52 17 52 47v130z" />
    <glyph glyph-name="colon" unicode=":" horiz-adv-x="260" 
d="M130 457c44 0 79 -35 79 -79s-35 -79 -79 -79s-79 35 -79 79s35 79 79 79zM130 151c44 0 79 -35 79 -79s-35 -79 -79 -79s-79 35 -79 79s35 79 79 79z" />
    <glyph glyph-name="semicolon" unicode=";" horiz-adv-x="250" 
d="M197 10l-91 -160h-43l47 150h-57v143h144v-133zM197 330h-144v143h144v-143z" />
    <glyph glyph-name="less" unicode="&#x3c;" horiz-adv-x="646" 
d="M442 65h-182l-231 254v12l231 254h182l-189 -200h356v-120h-356z" />
    <glyph glyph-name="equal" unicode="=" horiz-adv-x="460" 
d="M415 438v-82h-370v82h370zM415 266v-82h-370v82h370z" />
    <glyph glyph-name="greater" unicode="&#x3e;" horiz-adv-x="646" 
d="M204 585h182l231 -254v-12l-231 -254h-182l189 200h-356v120h356z" />
    <glyph glyph-name="question" unicode="?" horiz-adv-x="380" 
d="M221 242v-55h-95v62c0 79 28 107 71 143c28 24 38 41 38 67v40c0 35 -15 60 -49 60c-36 0 -50 -27 -50 -65v-34h-110v14c0 125 55 184 160 184c109 0 159 -60 159 -154v-28c0 -63 -9 -102 -66 -147c-36 -28 -58 -43 -58 -87zM238 0h-129v123h129v-123z" />
    <glyph glyph-name="at" unicode="@" horiz-adv-x="639" 
d="M278 192c-59 0 -101 43 -101 115c0 93 61 154 134 154c34 0 57 -20 68 -44l6 40h81l-28 -166c-4 -29 -4 -54 23 -54c47 0 77 62 77 144c0 133 -98 190 -209 190c-127 0 -222 -114 -222 -251c0 -139 76 -224 208 -224c80 0 138 19 193 56l7 -10c-41 -49 -108 -92 -206 -92
c-159 0 -273 104 -273 268c0 179 144 293 294 293c135 0 273 -76 273 -231c0 -106 -64 -183 -153 -183c-50 0 -76 23 -90 51c-13 -31 -44 -56 -82 -56zM327 417c-31 0 -58 -44 -58 -118c0 -32 7 -57 36 -57c32 0 61 53 61 121c0 31 -13 54 -39 54z" />
    <glyph glyph-name="A" unicode="A" horiz-adv-x="525" 
d="M171 114l-24 -114h-130l157 650h178l156 -650h-168l-22 114h-147zM296 221l-34 174l-14 96h-2l-15 -96l-37 -174h102z" />
    <glyph glyph-name="B" unicode="B" horiz-adv-x="556" 
d="M384 340c93 -17 134 -74 134 -156c0 -113 -58 -184 -210 -184h-240v650h226c146 0 203 -69 203 -173c0 -78 -38 -118 -113 -137zM229 125h65c42 0 61 27 61 72c0 53 -19 75 -60 75h-66v-147zM342 457c0 47 -15 68 -61 68h-52v-137h53c40 0 60 19 60 69z" />
    <glyph glyph-name="C" unicode="C" horiz-adv-x="535" 
d="M277 662c131 0 211 -74 224 -237h-154c-1 80 -22 112 -70 112c-55 0 -76 -44 -76 -180v-61c0 -133 18 -181 74 -181c53 0 76 32 80 136l146 -9c-7 -153 -92 -253 -226 -253c-166 0 -243 105 -243 333c0 243 97 340 245 340z" />
    <glyph glyph-name="D" unicode="D" horiz-adv-x="449" 
d="M231 650c107 0 168 -71 168 -179v-294c0 -108 -60 -177 -168 -177h-171v650h171zM176 102h45c34 0 62 13 62 59v324c0 45 -23 63 -62 63h-45v-446z" />
    <glyph glyph-name="E" unicode="E" horiz-adv-x="522" 
d="M463 650v-148h-212v-100h204v-147h-204v-108h220v-147h-406v650h398z" />
    <glyph glyph-name="F" unicode="F" horiz-adv-x="366" 
d="M341 650v-108h-165v-174h127v-108h-127v-260h-116v650h281z" />
    <glyph glyph-name="G" unicode="G" horiz-adv-x="418" 
d="M371 441h-113v55c0 37 -15 59 -51 59c-34 0 -51 -22 -51 -59v-345c0 -37 18 -59 53 -59c36 0 53 20 53 59v89h-64v104h177v-344h-64l-17 40c-14 -24 -39 -47 -96 -47c-104 0 -158 66 -158 184v297c0 116 54 184 167 184s164 -63 164 -184v-33z" />
    <glyph glyph-name="H" unicode="H" horiz-adv-x="583" 
d="M354 277h-125v-277h-161v650h161v-246h125v246h161v-650h-161v277z" />
    <glyph glyph-name="I" unicode="I" horiz-adv-x="292" 
d="M61 650h170v-650h-170v650z" />
    <glyph glyph-name="J" unicode="J" horiz-adv-x="364" 
d="M133 -5c-51 0 -83 4 -107 9v131c13 -4 34 -6 49 -6c40 0 60 21 60 61v460h161v-457c0 -143 -41 -198 -163 -198z" />
    <glyph glyph-name="K" unicode="K" horiz-adv-x="553" 
d="M229 411l148 240h156l-167 -248l162 -403h-171l-93 250l-35 -52v-198h-161v650h161v-239z" />
    <glyph glyph-name="L" unicode="L" horiz-adv-x="373" 
d="M349 0h-289v650h116v-542h173v-108z" />
    <glyph glyph-name="M" unicode="M" horiz-adv-x="485" 
d="M425 650v-650h-105v265l2 82h-1l-77 -257h-3l-77 257h-1l2 -82v-265h-105v650h101l81 -302h1l81 302h101z" />
    <glyph glyph-name="N" unicode="N" horiz-adv-x="450" 
d="M289 273v377h101v-650h-103l-100 288l-24 105h-2v-393h-101v650h109l88 -249l30 -128h2z" />
    <glyph glyph-name="O" unicode="O" horiz-adv-x="414" 
d="M374 177c0 -116 -54 -184 -167 -184s-167 68 -167 184v297c0 116 54 184 167 184s167 -68 167 -184v-297zM156 155c0 -37 17 -59 51 -59s51 22 51 59v341c0 37 -17 59 -51 59s-51 -22 -51 -59v-341z" />
    <glyph glyph-name="P" unicode="P" horiz-adv-x="422" 
d="M220 650c107 0 173 -52 173 -156v-93c0 -100 -65 -154 -173 -154h-44v-247h-116v650h160zM176 345h37c39 0 64 14 64 60v79c0 48 -25 64 -64 64h-37v-203z" />
    <glyph glyph-name="Q" unicode="Q" horiz-adv-x="566" 
d="M408 17c8 -38 25 -48 88 -48h16v-124h-28c-116 0 -164 59 -178 145c-8 -1 -17 -1 -25 -1c-163 0 -253 99 -253 333c0 249 109 340 255 340s255 -91 255 -340c0 -165 -48 -260 -130 -305zM285 115c55 0 81 39 81 151v121c0 114 -32 150 -83 150s-83 -36 -83 -150v-121
c0 -112 22 -151 85 -151z" />
    <glyph glyph-name="R" unicode="R" horiz-adv-x="452" 
d="M321 283l88 -283h-115l-79 262h-39v-262h-116v650h174c107 0 168 -63 168 -153v-88c0 -72 -34 -103 -81 -126zM176 359h52c30 0 58 13 58 61v65c0 45 -22 63 -58 63h-52v-189z" />
    <glyph glyph-name="S" unicode="S" 
d="M294 174c0 90 -256 93 -256 302c0 120 91 186 201 186c114 0 164 -58 193 -134l-130 -47c-11 37 -26 56 -61 56c-27 0 -48 -11 -48 -50c0 -97 262 -89 262 -308c0 -100 -72 -190 -215 -190c-137 0 -194 93 -220 170l151 33c12 -50 26 -77 70 -77c38 0 53 20 53 59z" />
    <glyph glyph-name="T" unicode="T" horiz-adv-x="379" 
d="M353 650v-108h-106v-542h-116v542h-106v108h328z" />
    <glyph glyph-name="U" unicode="U" horiz-adv-x="433" 
d="M379 650v-475c0 -120 -48 -182 -161 -182s-164 67 -164 182v475h116v-497c0 -36 13 -59 48 -59c37 0 48 23 48 59v497h113z" />
    <glyph glyph-name="V" unicode="V" horiz-adv-x="654" 
d="M215 0l-200 650h188l110 -435c8 -32 14 -66 14 -66h2s6 34 14 66l110 435h188l-200 -650h-226z" />
    <glyph glyph-name="W" unicode="W" horiz-adv-x="737" 
d="M294 0h-164l-120 650h177l35 -348l12 -96h2l15 96l74 348h115l70 -348l14 -96h2l13 96l53 348h135l-125 -650h-165l-56 308l-10 92l-11 -92z" />
    <glyph glyph-name="X" unicode="X" horiz-adv-x="398" 
d="M191 245l-75 -245h-99l123 333l-108 317h116l59 -205l60 205h99l-108 -293l123 -357h-116z" />
    <glyph glyph-name="Y" unicode="Y" horiz-adv-x="536" 
d="M190 218l-170 432h178l71 -238l14 -68h2l15 68l73 238h143l-165 -441v-209h-161v218z" />
    <glyph glyph-name="Z" unicode="Z" horiz-adv-x="528" 
d="M271 147h225v-147h-481v7l247 495h-227v148h483v-7z" />
    <glyph glyph-name="bracketleft" unicode="[" horiz-adv-x="373" 
d="M326 650v-138h-90v-375h98v-137h-269v650h261z" />
    <glyph glyph-name="backslash" unicode="\" horiz-adv-x="298" 
d="M97 650l184 -650h-80l-184 650h80z" />
    <glyph glyph-name="bracketright" unicode="]" horiz-adv-x="373" 
d="M47 0v138h90v375h-98v137h269v-650h-261z" />
    <glyph glyph-name="asciicircum" unicode="^" horiz-adv-x="342" 
d="M171 527l-79 -93h-70l142 230h14l142 -230h-70z" />
    <glyph glyph-name="underscore" unicode="_" horiz-adv-x="386" 
d="M-1 -62h388v-86h-388v86z" />
    <glyph glyph-name="grave" unicode="`" horiz-adv-x="440" 
d="M163 688l-60 136h158l16 -136h-114z" />
    <glyph glyph-name="a" unicode="a" horiz-adv-x="389" 
d="M128 87l-16 -87h-102l138 650h92l139 -650h-114l-16 87h-121zM233 174l-30 169l-13 105h-2l-12 -105l-32 -169h89z" />
    <glyph glyph-name="b" unicode="b" horiz-adv-x="437" 
d="M310 332c55 -19 86 -61 86 -140v-37c0 -105 -62 -155 -166 -155h-170v650h169c104 0 161 -58 161 -166v-33c0 -57 -27 -102 -80 -119zM176 97h42c35 0 62 8 62 54v78c0 45 -21 58 -62 58h-42v-190zM176 379h40c35 0 61 8 61 54v57c0 45 -20 58 -61 58h-40v-169z" />
    <glyph glyph-name="c" unicode="c" horiz-adv-x="557" 
d="M506 445c-29 28 -61 47 -124 47c-80 0 -144 -63 -144 -168s64 -168 144 -168c67 0 96 24 124 55v-209c-26 -8 -75 -18 -124 -18c-184 0 -345 121 -345 340s161 340 345 340c57 0 95 -8 124 -17v-202z" />
    <glyph glyph-name="d" unicode="d" horiz-adv-x="547" 
d="M290 0h-222v650h221c147 0 228 -104 228 -328c0 -219 -94 -322 -227 -322zM348 362c-2 129 -24 168 -74 168h-45v-410h46c54 0 73 43 73 169v73z" />
    <glyph glyph-name="e" unicode="e" 
d="M429 650v-127h-200v-126h153v-124h-153v-146h211v-127h-372v650h361z" />
    <glyph glyph-name="f" unicode="f" horiz-adv-x="507" 
d="M453 650v-148h-202v-120h194v-147h-194v-235h-186v650h388z" />
    <glyph glyph-name="g" unicode="g" horiz-adv-x="546" 
d="M282 345h210v-345h-64l-33 68c-23 -42 -61 -79 -134 -79c-150 0 -229 93 -229 333c0 243 97 340 245 340c131 0 206 -73 218 -216l-151 -10c-1 69 -19 101 -67 101c-55 0 -78 -44 -78 -180v-61c0 -133 20 -181 76 -181c53 0 71 49 78 111h-71v119z" />
    <glyph glyph-name="h" unicode="h" horiz-adv-x="459" 
d="M176 372h107v278h116v-650h-116v264h-107v-264h-116v650h116v-278z" />
    <glyph glyph-name="i" unicode="i" horiz-adv-x="306" 
d="M95 558h-54v92h224v-92h-54v-466h54v-92h-224v92h54v466z" />
    <glyph glyph-name="j" unicode="j" horiz-adv-x="523" 
d="M244 -5c-152 0 -226 90 -226 234h163c0 -62 20 -93 61 -93c39 0 55 28 55 91v423h170v-438c0 -136 -76 -217 -223 -217z" />
    <glyph glyph-name="k" unicode="k" horiz-adv-x="429" 
d="M176 213v-213h-116v650h116v-213l-2 -55h1l19 51l99 217h116l-134 -258l140 -392h-118l-93 266z" />
    <glyph glyph-name="l" unicode="l" horiz-adv-x="438" 
d="M229 650v-523h186v-127h-347v650h161z" />
    <glyph glyph-name="m" unicode="m" horiz-adv-x="541" 
d="M481 650v-650h-105v412h-1l-15 -81l-60 -331h-59l-60 331l-15 81h-1v-412h-105v650h142l54 -319l14 -89h1l14 89l64 319h132z" />
    <glyph glyph-name="n" unicode="n" horiz-adv-x="579" 
d="M379 288v362h135v-650h-135l-131 253l-46 100h-2v-353h-135v650h135l133 -264l44 -98h2z" />
    <glyph glyph-name="o" unicode="o" horiz-adv-x="545" 
d="M272 -11c-146 0 -242 112 -242 333c0 236 99 340 243 340c163 0 242 -104 242 -340c0 -221 -97 -333 -243 -333zM346 289v73c0 129 -25 175 -73 175c-55 0 -74 -46 -74 -175v-73c0 -126 17 -174 73 -174s74 48 74 174z" />
    <glyph glyph-name="p" unicode="p" horiz-adv-x="521" 
d="M283 191h-54v-191h-161v650h214c143 0 214 -98 214 -229c0 -169 -86 -230 -213 -230zM337 437c0 67 -22 90 -67 90h-41v-220h42c49 0 66 28 66 93v37z" />
    <glyph glyph-name="q" unicode="q" horiz-adv-x="411" 
d="M246 -4c3 -48 19 -60 79 -59v-81c-111 -5 -154 58 -155 140c-88 13 -130 78 -130 181v297c0 116 54 184 167 184s164 -63 164 -184v-297c0 -106 -39 -167 -125 -181zM156 155c0 -37 17 -59 51 -59c36 0 51 22 51 59v341c0 37 -15 59 -51 59c-34 0 -51 -22 -51 -59v-341z
" />
    <glyph glyph-name="r" unicode="r" horiz-adv-x="649" 
d="M593 88c12 -62 13 -69 29 -75v-13h-176c-11 8 -16 23 -26 77c-10 56 -23 107 -33 125c-12 22 -31 36 -68 36h-84v-238h-170v650h299c172 0 236 -73 236 -187c0 -98 -55 -144 -119 -162v-1c26 -7 39 -17 57 -39c32 -38 42 -102 55 -173zM423 445c0 42 -24 63 -67 63h-121
v-130h122c46 0 66 25 66 67z" />
    <glyph glyph-name="s" unicode="s" horiz-adv-x="604" 
d="M296 527c-55 0 -86 -16 -86 -47c0 -37 25 -48 130 -73c128 -30 232 -66 232 -205c0 -144 -94 -210 -267 -210c-186 0 -276 81 -276 228h168c0 -54 27 -84 102 -84c71 0 100 17 100 53c0 41 -43 49 -123 67c-154 35 -237 90 -237 210c0 125 105 193 259 193
c157 0 248 -57 256 -196h-168c-2 38 -26 64 -90 64z" />
    <glyph glyph-name="t" unicode="t" horiz-adv-x="437" 
d="M419 650v-140h-120v-510h-161v510h-120v140h401z" />
    <glyph glyph-name="u" unicode="u" horiz-adv-x="668" 
d="M608 650v-388c0 -200 -119 -278 -274 -278s-274 82 -274 278v388h192v-402c0 -66 23 -103 82 -103c58 0 82 34 82 103v402h192z" />
    <glyph glyph-name="v" unicode="v" horiz-adv-x="511" 
d="M361 650h140l-156 -650h-173l-162 650h168l80 -378l14 -99h2l15 99z" />
    <glyph glyph-name="w" unicode="w" horiz-adv-x="454" 
d="M368 0h-97l-43 239h-1l-44 -239h-99l-57 650h108l30 -409h1l65 274h3l65 -274h1l25 409h102z" />
    <glyph glyph-name="x" unicode="x" horiz-adv-x="605" 
d="M208 322l-186 328h203l91 -175l91 175h176l-185 -305l195 -345h-203l-100 192l-102 -192h-176z" />
    <glyph glyph-name="y" unicode="y" horiz-adv-x="389" 
d="M137 222l-120 428h117l54 -246l13 -84h2l12 84l53 246h104l-119 -428v-222h-116v222z" />
    <glyph glyph-name="z" unicode="z" horiz-adv-x="370" 
d="M146 101h197v-101h-323v81l208 468h-186v101h312v-81z" />
    <glyph glyph-name="braceleft" unicode="{" horiz-adv-x="313" 
d="M271 560c-49 -5 -67 -28 -67 -70v-63c0 -41 -26 -84 -81 -98v-7c55 -14 81 -51 81 -96v-65c0 -42 18 -65 67 -70v-103c-128 5 -184 66 -184 182v61c0 41 -28 50 -59 56v77c31 6 59 15 59 56v61c0 116 56 177 184 182v-103z" />
    <glyph glyph-name="bar" unicode="|" horiz-adv-x="216" 
d="M148 710v-790h-80v790h80z" />
    <glyph glyph-name="braceright" unicode="}" horiz-adv-x="313" 
d="M42 91c49 5 67 28 67 70v63c0 41 26 84 81 98v7c-55 14 -81 51 -81 96v65c0 42 -18 65 -67 70v103c128 -5 184 -66 184 -182v-61c0 -41 28 -50 59 -56v-77c-31 -6 -59 -15 -59 -56v-61c0 -116 -56 -177 -184 -182v103z" />
    <glyph glyph-name="asciitilde" unicode="~" horiz-adv-x="388" 
d="M348 361c-18 -69 -55 -107 -108 -107c-33 0 -82 15 -115 15c-29 0 -64 -10 -85 -28v30c18 69 56 107 108 107c36 0 83 -15 115 -15c37 0 64 10 85 28v-30z" />
    <glyph glyph-name="Adieresis" unicode="&#xc4;" horiz-adv-x="525" 
d="M171 114l-24 -114h-130l157 650h178l156 -650h-168l-22 114h-147zM296 221l-34 174l-14 96h-2l-15 -96l-37 -174h102zM356 815c35 0 63 -28 63 -63s-28 -63 -63 -63s-63 28 -63 63s28 63 63 63zM168 815c35 0 63 -28 63 -63s-28 -63 -63 -63s-63 28 -63 63s28 63 63 63z
" />
    <glyph glyph-name="Aring" unicode="&#xc5;" horiz-adv-x="525" 
d="M172 114l-24 -114h-130l157 650h178l156 -650h-168l-22 114h-147zM262 898c59 0 105 -46 105 -104c0 -59 -46 -105 -105 -105s-105 46 -105 105c0 58 46 104 105 104zM262 864c-40 0 -66 -31 -66 -70c0 -40 26 -71 66 -71s66 31 66 71c0 39 -26 70 -66 70zM297 221
l-34 174l-14 96h-2l-15 -96l-37 -174h102z" />
    <glyph glyph-name="Ccedilla" unicode="&#xc7;" horiz-adv-x="531" 
d="M209 -5c-123 24 -181 130 -181 327c0 243 97 340 245 340c131 0 211 -74 224 -237h-154c-1 80 -22 112 -70 112c-55 0 -76 -44 -76 -180v-61c0 -133 18 -181 74 -181c53 0 76 32 80 136l146 -9c-6 -128 -67 -219 -165 -245v-72c0 -88 -45 -137 -120 -147v49
c40 10 48 30 50 77h-53v91z" />
    <glyph glyph-name="Eacute" unicode="&#xc9;" horiz-adv-x="522" 
d="M463 650v-148h-212v-100h204v-147h-204v-108h220v-147h-406v650h398zM67 693v9l396 92v-101h-396z" />
    <glyph glyph-name="Ntilde" unicode="&#xd1;" horiz-adv-x="450" 
d="M289 273v377h101v-650h-103l-100 288l-24 105h-2v-393h-101v650h109l88 -249l30 -128h2zM334 708c0 0 -31 -16 -69 -16c-29 0 -63 10 -90 10c-23 0 -59 -10 -59 -10v74s32 16 69 16c31 0 64 -10 90 -10c28 0 59 10 59 10v-74z" />
    <glyph glyph-name="Odieresis" unicode="&#xd6;" horiz-adv-x="414" 
d="M374 177c0 -116 -54 -184 -167 -184s-167 68 -167 184v297c0 116 54 184 167 184s167 -68 167 -184v-297zM156 155c0 -37 17 -59 51 -59s51 22 51 59v341c0 37 -17 59 -51 59s-51 -22 -51 -59v-341zM289 815c35 0 63 -28 63 -63s-28 -63 -63 -63s-63 28 -63 63
s28 63 63 63zM121 815c35 0 63 -28 63 -63s-28 -63 -63 -63s-63 28 -63 63s28 63 63 63z" />
    <glyph glyph-name="Udieresis" unicode="&#xdc;" horiz-adv-x="433" 
d="M379 650v-475c0 -120 -48 -182 -161 -182s-164 67 -164 182v475h116v-497c0 -36 13 -59 48 -59c37 0 48 23 48 59v497h113zM322 815c35 0 63 -28 63 -63s-28 -63 -63 -63s-63 28 -63 63s28 63 63 63zM112 815c35 0 63 -28 63 -63s-28 -63 -63 -63s-63 28 -63 63
s28 63 63 63z" />
    <glyph glyph-name="aacute" unicode="&#xe1;" horiz-adv-x="389" 
d="M128 87l-16 -87h-102l138 650h92l139 -650h-114l-16 87h-121zM233 174l-30 169l-13 105h-2l-12 -105l-32 -169h89zM236 688l60 136h-118l-26 -136h84z" />
    <glyph glyph-name="agrave" unicode="&#xe0;" horiz-adv-x="389" 
d="M128 87l-16 -87h-102l138 650h92l139 -650h-114l-16 87h-121zM134 688l-60 136h158l16 -136h-114zM233 174l-30 169l-13 105h-2l-12 -105l-32 -169h89z" />
    <glyph glyph-name="acircumflex" unicode="&#xe2;" horiz-adv-x="389" 
d="M128 87l-16 -87h-102l138 650h92l139 -650h-114l-16 87h-121zM233 174l-30 169l-13 105h-2l-12 -105l-32 -169h89zM192 727l-119 -34v9l112 102h14l112 -102v-9z" />
    <glyph glyph-name="adieresis" unicode="&#xe4;" horiz-adv-x="389" 
d="M128 87l-16 -87h-102l138 650h92l139 -650h-114l-16 87h-121zM233 174l-30 169l-13 105h-2l-12 -105l-32 -169h89zM274 815c35 0 63 -28 63 -63s-28 -63 -63 -63s-63 28 -63 63s28 63 63 63zM106 815c35 0 63 -28 63 -63s-28 -63 -63 -63s-63 28 -63 63s28 63 63 63z" />
    <glyph glyph-name="atilde" unicode="&#xe3;" horiz-adv-x="389" 
d="M128 87l-16 -87h-102l138 650h92l139 -650h-114l-16 87h-121zM341 792c-16 -72 -50 -102 -97 -102c-28 0 -84 14 -118 14c-20 0 -43 -7 -59 -17h-6c16 72 51 102 97 102c30 0 85 -14 118 -14c27 0 43 7 59 17h6zM233 174l-30 169l-13 105h-2l-12 -105l-32 -169h89z" />
    <glyph glyph-name="aring" unicode="&#xe5;" horiz-adv-x="389" 
d="M128 87l-16 -87h-102l138 650h92l139 -650h-114l-16 87h-121zM194 898c59 0 105 -46 105 -104c0 -59 -46 -105 -105 -105s-105 46 -105 105c0 58 46 104 105 104zM194 864c-40 0 -66 -31 -66 -70c0 -40 26 -71 66 -71s66 31 66 71c0 39 -26 70 -66 70zM233 174l-30 169
l-13 105h-2l-12 -105l-32 -169h89z" />
    <glyph glyph-name="ccedilla" unicode="&#xe7;" horiz-adv-x="557" 
d="M506 445c-29 28 -61 47 -124 47c-80 0 -144 -63 -144 -168s64 -168 144 -168c67 0 96 24 124 55v-209c-23 -7 -65 -16 -108 -18v-79c0 -88 -45 -137 -120 -147v49c40 10 48 30 50 77h-53v115c-135 37 -238 150 -238 325c0 219 161 340 345 340c57 0 95 -8 124 -17v-202z
" />
    <glyph glyph-name="eacute" unicode="&#xe9;" 
d="M429 650v-127h-200v-126h153v-124h-153v-146h211v-127h-372v650h361zM311 688l60 136h-158l-16 -136h114z" />
    <glyph glyph-name="egrave" unicode="&#xe8;" 
d="M429 650v-127h-200v-126h153v-124h-153v-146h211v-127h-372v650h361zM197 688l-60 136h158l16 -136h-114z" />
    <glyph glyph-name="ecircumflex" unicode="&#xea;" 
d="M429 650v-127h-200v-126h153v-124h-153v-146h211v-127h-372v650h361zM250 727l-129 -34v9l122 102h14l122 -102v-9z" />
    <glyph glyph-name="edieresis" unicode="&#xeb;" 
d="M429 650v-127h-200v-126h153v-124h-153v-146h211v-127h-372v650h361zM152 815c35 0 63 -28 63 -63s-28 -63 -63 -63s-63 28 -63 63s28 63 63 63zM340 815c35 0 63 -28 63 -63s-28 -63 -63 -63s-63 28 -63 63s28 63 63 63z" />
    <glyph glyph-name="iacute" unicode="&#xed;" horiz-adv-x="306" 
d="M95 558h-54v92h224v-92h-54v-466h54v-92h-224v92h54v466zM41 693v9l224 92v-101h-224z" />
    <glyph glyph-name="igrave" unicode="&#xec;" horiz-adv-x="306" 
d="M95 558h-54v92h224v-92h-54v-466h54v-92h-224v92h54v466zM97 688l-60 136h158l16 -136h-114z" />
    <glyph glyph-name="icircumflex" unicode="&#xee;" horiz-adv-x="306" 
d="M95 558h-54v92h224v-92h-54v-466h54v-92h-224v92h54v466zM148 727l-129 -34v9l122 102h14l122 -102v-9z" />
    <glyph glyph-name="idieresis" unicode="&#xef;" horiz-adv-x="306" 
d="M95 558h-54v92h224v-92h-54v-466h54v-92h-224v92h54v466zM80 803c32 0 57 -25 57 -56c0 -32 -25 -57 -57 -57c-31 0 -57 25 -57 57c0 31 26 56 57 56zM226 803c31 0 57 -25 57 -56c0 -32 -26 -57 -57 -57c-32 0 -57 25 -57 57c0 31 25 56 57 56z" />
    <glyph glyph-name="ntilde" unicode="&#xf1;" horiz-adv-x="579" 
d="M379 288v362h135v-650h-135l-131 253l-46 100h-2v-353h-135v650h135l133 -264l44 -98h2zM436 792c-16 -72 -50 -102 -97 -102c-28 0 -84 14 -118 14c-20 0 -43 -7 -59 -17h-6c16 72 51 102 97 102c30 0 85 -14 118 -14c27 0 43 7 59 17h6z" />
    <glyph glyph-name="oacute" unicode="&#xf3;" horiz-adv-x="545" 
d="M272 -11c-146 0 -242 112 -242 333c0 236 99 340 243 340c163 0 242 -104 242 -340c0 -221 -97 -333 -243 -333zM346 289v73c0 129 -25 175 -73 175c-55 0 -74 -46 -74 -175v-73c0 -126 17 -174 73 -174s74 48 74 174zM136 693v9l272 92v-101h-272z" />
    <glyph glyph-name="ograve" unicode="&#xf2;" horiz-adv-x="545" 
d="M272 -11c-146 0 -242 112 -242 333c0 236 99 340 243 340c163 0 242 -104 242 -340c0 -221 -97 -333 -243 -333zM346 289v73c0 129 -25 175 -73 175c-55 0 -74 -46 -74 -175v-73c0 -126 17 -174 73 -174s74 48 74 174zM411 693v9l-272 92v-101h272z" />
    <glyph glyph-name="ocircumflex" unicode="&#xf4;" horiz-adv-x="545" 
d="M272 -11c-146 0 -242 112 -242 333c0 236 99 340 243 340c163 0 242 -104 242 -340c0 -221 -97 -333 -243 -333zM346 289v73c0 129 -25 175 -73 175c-55 0 -74 -46 -74 -175v-73c0 -126 17 -174 73 -174s74 48 74 174zM276 727l-129 -34v9l122 102h14l122 -102v-9z" />
    <glyph glyph-name="odieresis" unicode="&#xf6;" horiz-adv-x="545" 
d="M272 -11c-146 0 -242 112 -242 333c0 236 99 340 243 340c163 0 242 -104 242 -340c0 -221 -97 -333 -243 -333zM346 289v73c0 129 -25 175 -73 175c-55 0 -74 -46 -74 -175v-73c0 -126 17 -174 73 -174s74 48 74 174zM366 815c35 0 63 -28 63 -63s-28 -63 -63 -63
s-63 28 -63 63s28 63 63 63zM178 815c35 0 63 -28 63 -63s-28 -63 -63 -63s-63 28 -63 63s28 63 63 63z" />
    <glyph glyph-name="otilde" unicode="&#xf5;" horiz-adv-x="545" 
d="M272 -11c-146 0 -242 112 -242 333c0 236 99 340 243 340c163 0 242 -104 242 -340c0 -221 -97 -333 -243 -333zM346 289v73c0 129 -25 175 -73 175c-55 0 -74 -46 -74 -175v-73c0 -126 17 -174 73 -174s74 48 74 174zM412 792c-16 -72 -50 -102 -97 -102
c-28 0 -84 14 -118 14c-20 0 -43 -7 -59 -17h-6c16 72 51 102 97 102c30 0 85 -14 118 -14c27 0 43 7 59 17h6z" />
    <glyph glyph-name="uacute" unicode="&#xfa;" horiz-adv-x="668" 
d="M608 650v-388c0 -200 -119 -278 -274 -278s-274 82 -274 278v388h192v-402c0 -66 23 -103 82 -103c58 0 82 34 82 103v402h192zM148 693v9l372 92v-101h-372z" />
    <glyph glyph-name="ugrave" unicode="&#xf9;" horiz-adv-x="668" 
d="M608 650v-388c0 -200 -119 -278 -274 -278s-274 82 -274 278v388h192v-402c0 -66 23 -103 82 -103c58 0 82 34 82 103v402h192zM278 688l-60 136h158l16 -136h-114z" />
    <glyph glyph-name="ucircumflex" unicode="&#xfb;" horiz-adv-x="668" 
d="M608 650v-388c0 -200 -119 -278 -274 -278s-274 82 -274 278v388h192v-402c0 -66 23 -103 82 -103c58 0 82 34 82 103v402h192zM334 737l-119 -44v9l82 102h74l82 -102v-9z" />
    <glyph glyph-name="udieresis" unicode="&#xfc;" horiz-adv-x="668" 
d="M608 650v-388c0 -200 -119 -278 -274 -278s-274 82 -274 278v388h192v-402c0 -66 23 -103 82 -103c58 0 82 34 82 103v402h192zM240 815c35 0 63 -28 63 -63s-28 -63 -63 -63s-63 28 -63 63s28 63 63 63zM428 815c35 0 63 -28 63 -63s-28 -63 -63 -63s-63 28 -63 63
s28 63 63 63z" />
    <glyph glyph-name="dagger" unicode="&#x2020;" horiz-adv-x="379" 
d="M25 378v108h106v164h116v-164h106v-108h-106v-378h-116v378h-106z" />
    <glyph glyph-name="degree" unicode="&#xb0;" horiz-adv-x="373" 
d="M186 660c78 0 139 -61 139 -137c0 -78 -61 -139 -139 -139s-138 61 -138 139c0 76 60 137 138 137zM186 616c-53 0 -88 -42 -88 -93c0 -53 35 -95 88 -95s88 42 88 95c0 51 -35 93 -88 93z" />
    <glyph glyph-name="cent" unicode="&#xa2;" horiz-adv-x="363" 
d="M298 481c18 -15 30 -36 30 -64c0 -36 -23 -60 -55 -60c-14 0 -26 5 -35 14l-83 -151c18 -21 43 -31 75 -31c51 0 85 20 105 53l7 -3c-14 -72 -62 -119 -139 -119c-32 0 -63 8 -90 23l-57 -104l-17 8l53 109c-41 32 -68 84 -68 155c0 130 100 197 192 197
c15 0 30 -2 43 -7l51 104l45 -20zM225 431c8 16 14 24 27 31c-79 1 -123 -47 -123 -143c0 -27 3 -49 9 -67z" />
    <glyph glyph-name="sterling" unicode="&#xa3;" horiz-adv-x="573" 
d="M41 358h45c-9 30 -16 62 -16 92c0 132 87 209 231 209c154 0 227 -74 238 -213h-170c-7 50 -17 75 -63 75c-44 0 -63 -31 -63 -77c0 -20 7 -50 12 -86h159v-106h-152c-5 -62 -36 -91 -84 -124l1 -2c34 19 68 29 107 29c50 0 84 -13 139 -13c36 0 57 6 80 22l35 -132
c-36 -29 -73 -40 -131 -40c-70 0 -129 35 -202 35c-45 0 -80 -13 -125 -39l-58 108c57 43 94 79 94 139c0 5 -1 11 -2 17h-75v106z" />
    <glyph glyph-name="section" unicode="&#xa7;" horiz-adv-x="390" 
d="M346 131c0 -78 -43 -138 -155 -138c-107 0 -160 63 -160 145v17h108v-19c0 -25 14 -53 56 -53c36 0 46 15 46 41s-22 39 -96 72c-50 22 -120 60 -120 141c0 46 18 73 55 91c-28 25 -33 55 -33 90c0 78 54 132 152 132c121 0 160 -54 160 -146v-11h-106v13
c0 36 -22 54 -55 54c-32 0 -47 -14 -47 -38c0 -33 16 -39 97 -78c73 -35 122 -65 122 -141c0 -43 -18 -68 -52 -89c20 -18 28 -48 28 -83zM261 256c9 7 14 18 14 31c0 22 -14 30 -35 42c-31 17 -68 34 -106 57c-9 -7 -14 -18 -14 -31c0 -22 14 -30 35 -42
c31 -17 68 -33 106 -57z" />
    <glyph glyph-name="bullet" unicode="&#x2022;" horiz-adv-x="454" 
d="M102 170l46 143l-118 86v5h147l47 141h6l47 -141h147v-5l-118 -86l46 -143h-5l-120 84l-120 -84h-5z" />
    <glyph glyph-name="paragraph" unicode="&#xb6;" horiz-adv-x="402" 
d="M207 650h145v-650h-116v317h-29c-108 0 -173 54 -173 154v23c0 104 66 156 173 156z" />
    <glyph glyph-name="germandbls" unicode="&#xdf;" horiz-adv-x="795" 
d="M752 184v-37c0 -95 -55 -154 -168 -154s-159 65 -159 180v50h112v-72c0 -36 16 -59 51 -59c37 0 51 23 51 59v29c0 56 -36 79 -102 120c-58 36 -105 77 -105 172v24c0 100 54 160 162 160c118 0 156 -65 156 -180v-24h-110v46c0 36 -14 59 -49 59c-37 0 -46 -23 -46 -55
v-23c0 -53 26 -66 96 -110c59 -37 111 -77 111 -185zM368 184v-37c0 -95 -55 -154 -168 -154s-159 65 -159 180v50h112v-72c0 -36 16 -59 51 -59c37 0 51 23 51 59v29c0 56 -36 79 -102 120c-58 36 -105 77 -105 172v24c0 100 54 160 162 160c118 0 156 -65 156 -180v-24
h-110v46c0 36 -14 59 -49 59c-37 0 -46 -23 -46 -55v-23c0 -53 26 -66 96 -110c59 -37 111 -77 111 -185z" />
    <glyph glyph-name="registered" unicode="&#xae;" horiz-adv-x="407" 
d="M364 424c0 -102 -51 -171 -160 -171c-108 0 -161 69 -161 171v61c0 102 53 171 161 171c109 0 160 -69 160 -171v-61zM204 283c92 0 122 59 122 141v61c0 82 -30 141 -122 141s-123 -59 -123 -141v-61c0 -82 31 -141 123 -141zM244 444l28 -94h-41l-26 87h-23v-87h-42
v215h71c35 0 60 -20 60 -50v-30c0 -23 -12 -34 -27 -41zM182 471h28c9 0 18 4 18 21v17c0 15 -7 20 -18 20h-28v-58z" />
    <glyph glyph-name="copyright" unicode="&#xa9;" horiz-adv-x="790" 
d="M395 669c186 0 355 -126 355 -345s-169 -345 -355 -345s-355 126 -355 345s169 345 355 345zM521 386c-17 15 -35 23 -71 23c-44 0 -81 -31 -81 -83c0 -51 37 -82 81 -82c38 0 54 12 71 27v-133c-18 -5 -51 -11 -83 -11c-124 0 -231 71 -231 199s107 199 231 199
c37 0 63 -5 83 -10v-129zM693 324c0 188 -139 295 -298 295s-298 -107 -298 -295s139 -295 298 -295s298 107 298 295z" />
    <glyph glyph-name="trademark" unicode="&#x2122;" horiz-adv-x="377" 
d="M334 650v-228h-41v88v33v0l-30 -94h-3l-30 94v0l1 -33v-88h-41v228h43l28 -102h1l28 102h44zM158 650v-43h-37v-185h-45v185h-37v43h119z" />
    <glyph glyph-name="acute" unicode="&#xb4;" horiz-adv-x="440" 
d="M84 693v9l272 92v-101h-272z" />
    <glyph glyph-name="dieresis" unicode="&#xa8;" horiz-adv-x="500" 
d="M344 815c35 0 63 -28 63 -63s-28 -63 -63 -63s-63 28 -63 63s28 63 63 63zM156 815c35 0 63 -28 63 -63s-28 -63 -63 -63s-63 28 -63 63s28 63 63 63z" />
    <glyph glyph-name="AE" unicode="&#xc6;" horiz-adv-x="623" 
d="M593 0h-297v150h-127l-44 -150h-115l208 650h364v-102h-170v-167h135v-101h-135v-178h181v-102zM288 548l-93 -311h101v311h-8z" />
    <glyph glyph-name="Oslash" unicode="&#xd8;" horiz-adv-x="792" 
d="M395 669c79 0 155 -23 217 -66l46 47h120l-104 -105c47 -57 76 -131 76 -221c0 -219 -169 -345 -355 -345c-79 0 -156 22 -217 65l-44 -44h-120l102 102c-47 57 -76 131 -76 222c0 219 169 345 355 345zM395 492c-86 0 -154 -59 -154 -168c0 -31 5 -58 15 -80l223 225
c-24 15 -53 23 -84 23zM549 324c0 30 -6 57 -15 79l-223 -225c24 -15 53 -22 84 -22c86 0 154 59 154 168z" />
    <glyph glyph-name="yen" unicode="&#xa5;" horiz-adv-x="389" 
d="M360 166v-62h-107v-104h-116v104h-107v62h107v40h-107v62h94l-107 382h117l54 -246l13 -84h2l12 84l53 246h104l-106 -382h94v-62h-107v-40h107z" />
    <glyph glyph-name="ordfeminine" unicode="&#xaa;" horiz-adv-x="349" 
d="M122 322l-14 -62h-86l98 390h116l91 -390h-103l-12 62h-90zM171 199c42 0 76 -34 76 -76s-34 -76 -76 -76s-76 34 -76 76s34 76 76 76zM198 393l-21 104l-8 58h-1l-9 -58l-23 -104h62z" />
    <glyph glyph-name="ordmasculine" unicode="&#xba;" horiz-adv-x="273" 
d="M243 369c0 -69 -39 -110 -107 -110s-106 41 -106 110v179c0 69 38 110 106 110s107 -41 107 -110v-179zM134 199c42 0 76 -34 76 -76s-34 -76 -76 -76s-76 34 -76 76s34 76 76 76zM106 362c0 -22 10 -35 30 -35c21 0 31 13 31 35v193c0 22 -10 35 -31 35
c-20 0 -30 -13 -30 -35v-193z" />
    <glyph glyph-name="ae" unicode="&#xe6;" horiz-adv-x="752" 
d="M724 0h-368v114h-153l-48 -114h-143l291 650h410v-127h-200v-126h153v-124h-153v-146h211v-127zM363 508h-2l-40 -113l-73 -174h108v174z" />
    <glyph glyph-name="oslash" unicode="&#xf8;" horiz-adv-x="708" 
d="M600 687l81 -63l-67 -77c39 -53 64 -125 64 -222c0 -234 -153 -333 -324 -333c-67 0 -130 15 -183 46l-81 -93l-81 63l85 98c-40 53 -64 125 -64 219c0 245 152 334 324 334c66 0 130 -14 183 -44zM354 519c-99 0 -147 -62 -147 -194c0 -31 2 -57 8 -80l220 253
c-22 14 -49 21 -81 21zM501 325c0 31 -3 59 -9 82l-219 -252c22 -13 49 -19 81 -19c98 0 147 59 147 189z" />
    <glyph glyph-name="questiondown" unicode="&#xbf;" horiz-adv-x="494" 
d="M346 457c0 -72 -13 -116 -51 -154c-44 -44 -91 -73 -91 -120v-16c0 -35 16 -54 45 -54c42 0 55 29 62 88l157 -8c-12 -138 -94 -205 -226 -205c-134 0 -207 68 -207 178c0 76 40 129 100 175c68 52 75 67 79 116h132zM203 650h148v-133h-148v133z" />
    <glyph glyph-name="exclamdown" unicode="&#xa1;" horiz-adv-x="275" 
d="M106 463h62l28 -463h-118zM73 650h129v-123h-129v123z" />
    <glyph glyph-name="florin" horiz-adv-x="426" 
d="M298 655c40 0 73 -3 92 -9l-12 -130c-13 4 -28 6 -43 6c-40 0 -55 -17 -59 -56l-7 -62h109v-115h-120l-29 -289h-161l30 289h-58v115h71l9 86c13 124 84 165 178 165z" />
    <glyph glyph-name="guillemotleft" unicode="&#xab;" horiz-adv-x="350" 
d="M242 82l-84 196l84 196h76l-80 -196l80 -196h-76zM110 82l-84 196l84 196h76l-80 -196l80 -196h-76z" />
    <glyph glyph-name="guillemotright" unicode="&#xbb;" horiz-adv-x="350" 
d="M240 474l84 -196l-84 -196h-76l80 196l-80 196h76zM108 474l84 -196l-84 -196h-76l80 196l-80 196h76z" />
    <glyph glyph-name="ellipsis" unicode="&#x2026;" horiz-adv-x="726" 
d="M605 158c47 0 85 -38 85 -85s-38 -85 -85 -85s-85 38 -85 85s38 85 85 85zM121 158c47 0 85 -38 85 -85s-38 -85 -85 -85s-85 38 -85 85s38 85 85 85zM363 158c47 0 85 -38 85 -85s-38 -85 -85 -85s-85 38 -85 85s38 85 85 85z" />
    <glyph glyph-name="Agrave" unicode="&#xc0;" horiz-adv-x="525" 
d="M171 114l-24 -114h-130l157 650h178l156 -650h-168l-22 114h-147zM206 688l-60 136h158l16 -136h-114zM296 221l-34 174l-14 96h-2l-15 -96l-37 -174h102z" />
    <glyph glyph-name="Atilde" unicode="&#xc3;" horiz-adv-x="525" 
d="M171 114l-24 -114h-130l157 650h178l156 -650h-168l-22 114h-147zM402 792c-16 -72 -50 -102 -97 -102c-28 0 -84 14 -118 14c-20 0 -43 -7 -59 -17h-6c16 72 51 102 97 102c30 0 85 -14 118 -14c27 0 43 7 59 17h6zM296 221l-34 174l-14 96h-2l-15 -96l-37 -174h102z
" />
    <glyph glyph-name="Otilde" unicode="&#xd5;" horiz-adv-x="411" 
d="M374 177c0 -116 -54 -184 -167 -184s-167 68 -167 184v297c0 116 54 184 167 184s167 -68 167 -184v-297zM156 155c0 -37 17 -59 51 -59s51 22 51 59v341c0 37 -17 59 -51 59s-51 -22 -51 -59v-341zM348 792c-16 -72 -50 -102 -97 -102c-28 0 -84 14 -118 14
c-20 0 -43 -7 -59 -17h-6c16 72 51 102 97 102c30 0 85 -14 118 -14c27 0 43 7 59 17h6z" />
    <glyph glyph-name="OE" unicode="&#x152;" horiz-adv-x="600" 
d="M218 0c-107 0 -168 71 -168 179v294c0 108 60 177 168 177h341v-102h-162v-171h127v-101h-127v-174h173v-102h-352zM281 548h-53c-34 0 -62 -13 -62 -59v-324c0 -45 23 -63 62 -63h53v446z" />
    <glyph glyph-name="oe" unicode="&#x153;" horiz-adv-x="889" 
d="M830 650v-148h-212v-100h204v-147h-204v-108h220v-147h-385c-22 -3 -47 -6 -71 -6c-184 0 -345 111 -345 330s161 330 345 330c25 0 47 -2 66 -4h382zM382 156c19 0 36 2 50 5v326c-15 3 -31 5 -50 5c-80 0 -144 -63 -144 -168s64 -168 144 -168z" />
    <glyph glyph-name="endash" unicode="&#x2013;" horiz-adv-x="386" 
d="M54 334h278v-86h-278v86z" />
    <glyph glyph-name="emdash" unicode="&#x2014;" horiz-adv-x="786" 
d="M54 334h678v-86h-678v86z" />
    <glyph glyph-name="quotedblleft" unicode="&#x201c;" horiz-adv-x="399" 
d="M231 427v95c0 88 45 137 120 147v-49c-40 -10 -48 -30 -50 -77h53v-116h-123zM45 427v95c0 88 45 137 120 147v-49c-40 -10 -48 -30 -50 -77h53v-116h-123z" />
    <glyph glyph-name="quotedblright" unicode="&#x201d;" horiz-adv-x="399" 
d="M354 650v-95c0 -88 -45 -137 -120 -147v49c40 10 48 30 50 77h-53v116h123zM168 650v-95c0 -88 -45 -137 -120 -147v49c40 10 48 30 50 77h-53v116h123z" />
    <glyph glyph-name="quoteleft" unicode="&#x2018;" horiz-adv-x="213" 
d="M45 427v95c0 88 45 137 120 147v-49c-40 -10 -48 -30 -50 -77h53v-116h-123z" />
    <glyph glyph-name="quoteright" unicode="&#x2019;" horiz-adv-x="216" 
d="M105 658c41 0 74 -33 74 -81c0 -88 -76 -152 -139 -171l-1 5c43 37 65 73 65 110c-47 3 -67 34 -67 70s30 67 68 67z" />
    <glyph glyph-name="divide" unicode="&#xf7;" horiz-adv-x="450" 
d="M420 376v-102h-390v102h390zM293 96h-134v123h134v-123zM293 431h-134v123h134v-123z" />
    <glyph glyph-name="ydieresis" unicode="&#xff;" horiz-adv-x="389" 
d="M137 222l-120 428h117l54 -246l13 -84h2l12 84l53 246h104l-119 -428v-222h-116v222zM278 815c35 0 63 -28 63 -63s-28 -63 -63 -63s-63 28 -63 63s28 63 63 63zM110 815c35 0 63 -28 63 -63s-28 -63 -63 -63s-63 28 -63 63s28 63 63 63z" />
    <glyph glyph-name="Ydieresis" unicode="&#x178;" horiz-adv-x="536" 
d="M190 218l-170 432h178l71 -238l14 -68h2l15 68l73 238h143l-165 -441v-209h-161v218zM184 815c35 0 63 -28 63 -63s-28 -63 -63 -63s-63 28 -63 63s28 63 63 63zM372 815c35 0 63 -28 63 -63s-28 -63 -63 -63s-63 28 -63 63s28 63 63 63z" />
    <glyph glyph-name="fraction" unicode="&#x2044;" horiz-adv-x="188" 
d="M231 650h50l-324 -650h-50z" />
    <glyph glyph-name="fraction" unicode="&#x2215;" horiz-adv-x="188" 
d="M231 650h50l-324 -650h-50z" />
    <glyph glyph-name="Euro" unicode="&#x20ac;" horiz-adv-x="539" 
d="M292 662c134 0 205 -74 208 -227h-149c-1 70 -22 102 -60 102s-59 -33 -65 -127h96v-62h-97v-40h97v-62h-96c5 -95 24 -131 63 -131c42 0 66 32 70 121l141 -9c3 -138 -67 -238 -210 -238c-132 0 -209 81 -225 257h-43v62h40v14c0 9 -1 17 0 26h-40v62h45
c21 178 109 252 225 252z" />
    <glyph glyph-name="guilsinglleft" unicode="&#x2039;" horiz-adv-x="288" 
d="M134 82l-108 196l108 196h116l-80 -196l80 -196h-116z" />
    <glyph glyph-name="guilsinglright" unicode="&#x203a;" horiz-adv-x="288" 
d="M154 474l108 -196l-108 -196h-116l80 196l-80 196h116z" />
    <glyph glyph-name="fi" unicode="&#xfb01;" horiz-adv-x="755" 
d="M414 650v-127h-185v-146h143v-124h-143v-253h-161v650h346zM544 558h-54v92h224v-92h-54v-466h54v-92h-224v92h54v466z" />
    <glyph glyph-name="fl" unicode="&#xfb02;" horiz-adv-x="945" 
d="M453 650v-148h-202v-120h194v-147h-194v-235h-186v650h388zM736 649v-522h186v-127h-347v650z" />
    <glyph glyph-name="daggerdbl" unicode="&#x2021;" horiz-adv-x="508" 
d="M35 348v147h126v155h186v-155h126v-147h-126v-51h126v-147h-126v-150h-186v150h-126v147h126v51h-126z" />
    <glyph glyph-name="periodcentered" unicode="&#xb7;" horiz-adv-x="260" 
d="M130 397c44 0 79 -35 79 -79s-35 -79 -79 -79s-79 35 -79 79s35 79 79 79z" />
    <glyph glyph-name="periodcentered" unicode="&#x2219;" horiz-adv-x="260" 
d="M130 397c44 0 79 -35 79 -79s-35 -79 -79 -79s-79 35 -79 79s35 79 79 79z" />
    <glyph glyph-name="quotesinglbase" unicode="&#x201a;" horiz-adv-x="207" 
d="M101 161c39 0 71 -31 71 -77c0 -85 -73 -146 -134 -165l-1 5c42 36 63 70 63 106c-45 3 -64 32 -64 67s28 64 65 64z" />
    <glyph glyph-name="quotedblbase" unicode="&#x201e;" horiz-adv-x="400" 
d="M294 161c39 0 71 -31 71 -77c0 -85 -73 -146 -134 -165l-1 5c42 36 63 70 63 106c-45 3 -65 32 -65 67s29 64 66 64zM101 161c39 0 71 -31 71 -77c0 -85 -73 -146 -134 -165l-1 5c42 36 63 70 63 106c-45 3 -64 32 -64 67s28 64 65 64z" />
    <glyph glyph-name="perthousand" unicode="&#x2030;" horiz-adv-x="846" 
d="M683 252c69 0 133 -46 133 -129c0 -82 -64 -129 -133 -129s-133 47 -133 129c0 83 64 129 133 129zM390 252c69 0 133 -46 133 -129c0 -82 -64 -129 -133 -129s-133 47 -133 129c0 83 64 129 133 129zM163 656c69 0 132 -47 132 -129c0 -83 -63 -129 -132 -129
s-133 46 -133 129c0 82 64 129 133 129zM453 650h50l-404 -650h-50zM163 579c-28 0 -50 -17 -50 -52c0 -36 22 -53 50 -53s49 17 49 53c0 35 -21 52 -49 52zM683 176c-28 0 -49 -17 -49 -53c0 -35 21 -52 49 -52s49 17 49 52c0 36 -21 53 -49 53zM390 176
c-28 0 -49 -17 -49 -53c0 -35 21 -52 49 -52s49 17 49 52c0 36 -21 53 -49 53z" />
    <glyph glyph-name="Acircumflex" unicode="&#xc2;" horiz-adv-x="525" 
d="M171 114l-24 -114h-130l157 650h178l156 -650h-168l-22 114h-147zM296 221l-34 174l-14 96h-2l-15 -96l-37 -174h102zM262 727l-129 -34v9l122 102h14l122 -102v-9z" />
    <glyph glyph-name="Ecircumflex" unicode="&#xca;" horiz-adv-x="522" 
d="M463 650v-148h-212v-100h204v-147h-204v-108h220v-147h-406v650h398zM261 727l-129 -34v9l122 102h14l122 -102v-9z" />
    <glyph glyph-name="Aacute" unicode="&#xc1;" horiz-adv-x="525" 
d="M171 114l-24 -114h-130l157 650h178l156 -650h-168l-22 114h-147zM116 693v9l272 92v-101h-272zM296 221l-34 174l-14 96h-2l-15 -96l-37 -174h102z" />
    <glyph glyph-name="Edieresis" unicode="&#xcb;" horiz-adv-x="522" 
d="M463 650v-148h-212v-100h204v-147h-204v-108h220v-147h-406v650h398zM173 815c35 0 63 -28 63 -63s-28 -63 -63 -63s-63 28 -63 63s28 63 63 63zM361 815c35 0 63 -28 63 -63s-28 -63 -63 -63s-63 28 -63 63s28 63 63 63z" />
    <glyph glyph-name="Egrave" unicode="&#xc8;" horiz-adv-x="522" 
d="M463 650v-148h-212v-100h204v-147h-204v-108h220v-147h-406v650h398zM204 688l-60 136h158l16 -136h-114z" />
    <glyph glyph-name="Iacute" unicode="&#xcd;" horiz-adv-x="292" 
d="M61 650h170v-650h-170v650zM31 693v9l230 92v-101h-230z" />
    <glyph glyph-name="Icircumflex" unicode="&#xce;" horiz-adv-x="292" 
d="M61 650h170v-650h-170v650zM146 727l-99 -34v9l92 102h14l92 -102v-9z" />
    <glyph glyph-name="Idieresis" unicode="&#xcf;" horiz-adv-x="292" 
d="M61 650h170v-650h-170v650zM230 815c35 0 63 -28 63 -63s-28 -63 -63 -63s-63 28 -63 63s28 63 63 63zM62 815c35 0 63 -28 63 -63s-28 -63 -63 -63s-63 28 -63 63s28 63 63 63z" />
    <glyph glyph-name="Igrave" unicode="&#xcc;" horiz-adv-x="292" 
d="M61 650h170v-650h-170v650zM89 688l-60 136h158l16 -136h-114z" />
    <glyph glyph-name="Oacute" unicode="&#xd3;" horiz-adv-x="414" 
d="M374 177c0 -116 -54 -184 -167 -184s-167 68 -167 184v297c0 116 54 184 167 184s167 -68 167 -184v-297zM156 155c0 -37 17 -59 51 -59s51 22 51 59v341c0 37 -17 59 -51 59s-51 -22 -51 -59v-341zM68 693v9l272 92v-101h-272z" />
    <glyph glyph-name="Ocircumflex" unicode="&#xd4;" horiz-adv-x="414" 
d="M374 177c0 -116 -54 -184 -167 -184s-167 68 -167 184v297c0 116 54 184 167 184s167 -68 167 -184v-297zM156 155c0 -37 17 -59 51 -59s51 22 51 59v341c0 37 -17 59 -51 59s-51 -22 -51 -59v-341zM205 727l-129 -34v9l122 102h14l122 -102v-9z" />
    <glyph glyph-name="Ograve" unicode="&#xd2;" horiz-adv-x="414" 
d="M374 177c0 -116 -54 -184 -167 -184s-167 68 -167 184v297c0 116 54 184 167 184s167 -68 167 -184v-297zM156 155c0 -37 17 -59 51 -59s51 22 51 59v341c0 37 -17 59 -51 59s-51 -22 -51 -59v-341zM148 688l-60 136h158l16 -136h-114z" />
    <glyph glyph-name="Uacute" unicode="&#xda;" horiz-adv-x="433" 
d="M379 650v-475c0 -120 -48 -182 -161 -182s-164 67 -164 182v475h116v-497c0 -36 13 -59 48 -59c37 0 48 23 48 59v497h113zM84 693v9l265 92v-101h-265z" />
    <glyph glyph-name="Ucircumflex" unicode="&#xdb;" horiz-adv-x="433" 
d="M379 650v-475c0 -120 -48 -182 -161 -182s-164 67 -164 182v475h116v-497c0 -36 13 -59 48 -59c37 0 48 23 48 59v497h113zM216 727l-129 -34v9l122 102h14l122 -102v-9z" />
    <glyph glyph-name="Ugrave" unicode="&#xd9;" horiz-adv-x="433" 
d="M379 650v-475c0 -120 -48 -182 -161 -182s-164 67 -164 182v475h116v-497c0 -36 13 -59 48 -59c37 0 48 23 48 59v497h113zM179 688l-60 136h118l16 -136h-74z" />
    <glyph glyph-name="dotlessi" unicode="&#x131;" horiz-adv-x="306" 
d="M95 558h-54v92h224v-92h-54v-466h54v-92h-224v92h54v466z" />
    <glyph glyph-name="circumflex" unicode="&#x2c6;" horiz-adv-x="440" 
d="M220 727l-129 -34v9l122 102h14l122 -102v-9z" />
    <glyph glyph-name="tilde" unicode="&#x2dc;" horiz-adv-x="440" 
d="M360 792c-16 -72 -50 -102 -97 -102c-28 0 -84 14 -118 14c-20 0 -43 -7 -59 -17h-6c16 72 51 102 97 102c30 0 85 -14 118 -14c27 0 43 7 59 17h6z" />
    <glyph glyph-name="macron" unicode="&#xaf;" horiz-adv-x="440" 
d="M344 698h-248v74h248v-74z" />
    <glyph glyph-name="macron" unicode="&#x2c9;" horiz-adv-x="440" 
d="M344 698h-248v74h248v-74z" />
    <glyph glyph-name="breve" unicode="&#x2d8;" horiz-adv-x="440" 
d="M346 808c0 -65 -49 -116 -126 -116s-126 51 -126 116h78c0 -27 19 -44 48 -44s48 17 48 44h78z" />
    <glyph glyph-name="dotaccent" unicode="&#x2d9;" horiz-adv-x="440" 
d="M220 848c42 0 76 -34 76 -77c0 -42 -34 -76 -76 -76s-76 34 -76 76c0 43 34 77 76 77z" />
    <glyph glyph-name="ring" unicode="&#x2da;" horiz-adv-x="500" 
d="M250 898c59 0 105 -46 105 -104c0 -59 -46 -105 -105 -105s-105 46 -105 105c0 58 46 104 105 104zM250 864c-40 0 -66 -31 -66 -70c0 -40 26 -71 66 -71s66 31 66 71c0 39 -26 70 -66 70z" />
    <glyph glyph-name="cedilla" unicode="&#xb8;" horiz-adv-x="500" 
d="M311 0v-95c0 -88 -45 -137 -120 -147v49c40 10 48 30 50 77h-53v116h123z" />
    <glyph glyph-name="hungarumlaut" unicode="&#x2dd;" horiz-adv-x="500" 
d="M355 688h-84l46 136h88zM217 688h-84l46 136h88z" />
    <glyph glyph-name="ogonek" unicode="&#x2db;" horiz-adv-x="440" 
d="M214 0h70c-30 -22 -42 -42 -42 -62c0 -18 12 -32 32 -32c16 0 33 7 43 15v-76c-9 -5 -37 -11 -61 -11c-64 0 -108 31 -108 82c0 43 34 71 66 84z" />
    <glyph glyph-name="caron" unicode="&#x2c7;" horiz-adv-x="500" 
d="M250 773l49 33h80l-122 -120h-14l-122 120h80z" />
    <glyph glyph-name="commaaccent" horiz-adv-x="500" 
d="M248 -34c37 0 68 -29 68 -72c0 -75 -66 -120 -129 -138l-2 6c40 29 62 49 62 83c-43 2 -62 29 -62 61c0 33 27 60 63 60z" />
    <glyph glyph-name="E.alt2" horiz-adv-x="387" 
d="M346 650v-102h-170v-167h135v-101h-135v-178h181v-102h-297v650h286z" />
    <glyph glyph-name="G.alt2" horiz-adv-x="531" 
d="M285 355h212v-89c0 -189 -75 -277 -225 -277s-240 93 -240 333c0 243 97 340 245 340c131 0 204 -72 216 -215l-151 -10c-1 69 -17 100 -65 100c-55 0 -78 -44 -78 -180v-61c0 -133 20 -181 79 -181c58 0 70 53 73 114h-66v126z" />
    <glyph glyph-name="I.alt2" horiz-adv-x="256" 
d="M70 650h116v-650h-116v650z" />
    <glyph glyph-name="O.alt2" horiz-adv-x="792" 
d="M395 669c186 0 355 -126 355 -345s-169 -345 -355 -345s-355 126 -355 345s169 345 355 345zM395 492c-86 0 -154 -59 -154 -168s68 -168 154 -168s154 59 154 168s-68 168 -154 168z" />
    <glyph glyph-name="O.alt3" horiz-adv-x="708" 
d="M354 659c171 0 324 -89 324 -334c0 -234 -153 -333 -324 -333c-172 0 -324 99 -324 333c0 245 152 334 324 334zM354 519c-99 0 -147 -62 -147 -194c0 -129 48 -189 147 -189c98 0 147 59 147 189c0 132 -49 194 -147 194z" />
    <glyph glyph-name="R.alt2" horiz-adv-x="554" 
d="M507 442c0 -91 -31 -143 -85 -170l106 -272h-171l-78 221h-50v-221h-161v650h218c157 0 221 -84 221 -208zM346 446c0 61 -29 81 -74 81h-43v-190h46c49 0 71 23 71 82v27z" />
    <glyph glyph-name="S.alt2" horiz-adv-x="411" 
d="M368 185v-38c0 -95 -55 -154 -168 -154s-159 65 -159 180v51h112v-73c0 -36 16 -59 51 -59c37 0 51 23 51 59v30c0 56 -36 79 -102 120c-58 36 -105 77 -105 172v23c0 100 54 160 162 160c118 0 156 -65 156 -180v-23h-110v45c0 36 -14 59 -49 59c-37 0 -46 -23 -46 -55
v-22c0 -53 26 -66 96 -110c59 -37 111 -77 111 -185z" />
    <glyph glyph-name="E.altX" horiz-adv-x="396" 
d="M43 209c0 56 26 93 71 106c-47 12 -76 48 -76 106v63c0 107 54 174 167 174s164 -63 164 -184v-33h-113v55c0 37 -15 59 -51 59c-34 0 -51 -22 -51 -59v-67c0 -42 8 -58 47 -58h63v-106h-58c-39 0 -47 -10 -47 -55v-55c0 -37 10 -59 44 -59c36 0 49 22 49 59v36h113v-14
c0 -121 -49 -184 -162 -184s-160 68 -160 174v42z" />
    <glyph glyph-name="M.altX" horiz-adv-x="755" 
d="M452 650h164l120 -650h-177l-35 348l-12 96h-2l-15 -96l-74 -348h-115l-70 348l-14 96h-2l-13 -96l-53 -348h-135l125 650h165l56 -308l10 -92l11 92z" />
    <glyph glyph-name="W.altX" horiz-adv-x="485" 
d="M60 0v650h105v-265l-2 -82h1l77 257h3l77 -257h1l-2 82v265h105v-650h-101l-81 302h-1l-81 -302h-101z" />
    <glyph glyph-name="exclam.alt" horiz-adv-x="275" 
d="M169 187h-62l-28 463h118zM202 0h-129v123h129v-123z" />
    <glyph glyph-name="exclam.alt2" horiz-adv-x="286" 
d="M231 236h-176v414h176v-414zM143 198c58 0 105 -47 105 -105s-47 -105 -105 -105s-105 47 -105 105s47 105 105 105z" />
    <glyph glyph-name="question.alt" horiz-adv-x="494" 
d="M148 193c0 72 13 116 51 154c44 44 91 73 91 120v16c0 35 -16 54 -45 54c-42 0 -55 -29 -62 -88l-157 8c12 138 94 205 226 205c134 0 207 -68 207 -178c0 -76 -40 -129 -100 -175c-68 -52 -75 -67 -79 -116h-132zM291 0h-148v133h148v-133z" />
    <glyph glyph-name="percent.alt" horiz-adv-x="582" 
d="M252 464c0 -65 -42 -111 -111 -111c-68 0 -109 46 -109 111v83c0 65 41 111 109 111c69 0 111 -46 111 -111v-83zM550 105c0 -65 -42 -111 -111 -111c-68 0 -109 46 -109 111v83c0 65 41 111 109 111c69 0 111 -46 111 -111v-83zM397 650h70l-284 -650h-70zM408 100
c0 -25 9 -39 31 -39c24 0 33 14 33 39v94c0 24 -9 39 -33 39c-22 0 -31 -15 -31 -39v-94zM110 459c0 -25 9 -39 31 -39c24 0 33 14 33 39v94c0 24 -9 39 -33 39c-22 0 -31 -15 -31 -39v-94z" />
    <glyph glyph-name="ampersand.alt" horiz-adv-x="432" 
d="M358 290v-290h-169c-107 0 -151 61 -151 167v57c0 56 30 93 75 106c-47 12 -71 54 -71 112v42c0 107 46 174 159 174s161 -63 161 -184v-11h-110v39c0 37 -15 59 -51 59c-34 0 -47 -22 -47 -59v-58c0 -42 14 -58 47 -58h199v-96h-42zM253 290h-51c-34 0 -52 -18 -52 -63
v-78c0 -37 14 -57 49 -57h54v198z" />
    <glyph glyph-name="parenright.alt" horiz-adv-x="260" 
d="M38 69c34 5 51 29 51 66v381c0 37 -17 61 -51 66v103c113 -5 167 -75 167 -191v-337c0 -116 -54 -186 -167 -191v103z" />
    <glyph glyph-name="guillemotleft.alt" horiz-adv-x="536" 
d="M418 62l-168 216l168 216l86 -63l-110 -153l110 -153zM194 62l-168 216l168 216l86 -63l-110 -153l110 -153z" />
    <glyph glyph-name="zero.alt" horiz-adv-x="523" 
d="M261 -11c-124 0 -231 89 -231 333c0 260 108 340 232 340c140 0 231 -80 231 -340c0 -244 -107 -333 -232 -333zM324 269v113c0 116 -23 155 -62 155c-45 0 -63 -39 -63 -155v-113c0 -113 17 -154 62 -154c46 0 63 41 63 154z" />
    <glyph glyph-name="six.alt" horiz-adv-x="411" 
d="M156 374c19 30 45 40 84 40c66 0 131 -36 131 -155v-81c0 -116 -51 -184 -164 -184s-164 63 -164 184v297c0 121 52 184 165 184s162 -66 162 -171v-27h-110v38c0 37 -18 59 -52 59c-36 0 -52 -22 -52 -59v-125zM156 153c0 -37 15 -59 51 -59c34 0 51 22 51 59v108
c0 43 -13 59 -50 59s-52 -17 -52 -47v-120z" />
    <glyph glyph-name="baht" unicode="&#xe3f;" horiz-adv-x="426" 
d="M295 338c68 -13 99 -55 99 -116c0 -80 -40 -132 -143 -135v-87h-103v87h-103v479h103v84h103v-85c91 -7 128 -56 128 -127c0 -56 -28 -86 -84 -100zM169 184h54c30 0 45 20 45 51c0 34 -15 50 -44 50h-55v-101zM258 422c0 32 -11 48 -45 48h-44v-94h44c30 0 45 13 45 46z
" />
    <glyph glyph-name="onethird" unicode="&#x221e;" horiz-adv-x="370" 
d="M225 381h-77v183h-46v39l75 47h48v-269zM340 346v-42h-310v42h310zM282 194c0 -28 -15 -53 -40 -58c26 -5 44 -28 44 -53v-10c0 -43 -27 -80 -96 -80c-64 0 -99 35 -99 84v6h75v-8c0 -15 6 -26 22 -26c17 0 22 11 22 26v3c0 16 -7 29 -24 29h-24v56h22c17 0 24 8 24 24v3
c0 15 -5 25 -19 25c-17 0 -22 -12 -22 -27v-7h-73v6c0 50 33 84 97 84c66 0 91 -33 91 -71v-6z" />
    <glyph glyph-name="twothirds" horiz-adv-x="370" 
d="M340 346v-42h-310v42h310zM282 194c0 -28 -15 -53 -40 -58c26 -5 44 -28 44 -53v-10c0 -43 -27 -80 -96 -80c-64 0 -99 35 -99 84v6h75v-8c0 -15 6 -26 22 -26c17 0 22 11 22 26v3c0 16 -7 29 -24 29h-24v56h22c17 0 24 8 24 24v3c0 15 -5 25 -19 25
c-17 0 -22 -12 -22 -27v-7h-73v6c0 50 33 84 97 84c66 0 91 -33 91 -71v-6zM209 566v3c0 14 -5 22 -19 22c-15 0 -24 -10 -24 -24v-20h-73v18c0 55 36 87 99 87c61 0 93 -30 93 -77v-6c0 -34 -16 -58 -53 -91l-42 -38h96v-59h-193v48l95 98c14 15 21 25 21 39z" />
    <glyph glyph-name="oneeighth" unicode="&#xb5;" horiz-adv-x="370" 
d="M340 346v-42h-310v42h310zM185 271c63 0 92 -34 92 -72v-5c0 -28 -20 -53 -45 -58c26 -5 55 -30 55 -60v-10c0 -38 -33 -73 -102 -73s-102 35 -102 73v10c0 30 29 55 55 60c-25 5 -45 30 -45 58v5c0 38 29 72 92 72zM185 215c-14 0 -22 -10 -22 -25v-6
c0 -16 8 -24 22 -24s22 8 22 24v6c0 15 -8 25 -22 25zM185 49c17 0 26 11 26 26v6c0 16 -9 29 -26 29s-26 -13 -26 -29v-6c0 -15 9 -26 26 -26zM225 381h-77v183h-46v39l75 47h48v-269z" />
    <glyph glyph-name="oneeighth" unicode="&#x3bc;" horiz-adv-x="370" 
d="M340 346v-42h-310v42h310zM185 271c63 0 92 -34 92 -72v-5c0 -28 -20 -53 -45 -58c26 -5 55 -30 55 -60v-10c0 -38 -33 -73 -102 -73s-102 35 -102 73v10c0 30 29 55 55 60c-25 5 -45 30 -45 58v5c0 38 29 72 92 72zM185 215c-14 0 -22 -10 -22 -25v-6
c0 -16 8 -24 22 -24s22 8 22 24v6c0 15 -8 25 -22 25zM185 49c17 0 26 11 26 26v6c0 16 -9 29 -26 29s-26 -13 -26 -29v-6c0 -15 9 -26 26 -26zM225 381h-77v183h-46v39l75 47h48v-269z" />
    <glyph glyph-name="threeeighths" horiz-adv-x="370" 
d="M340 346v-42h-310v42h310zM185 271c63 0 92 -34 92 -72v-5c0 -28 -20 -53 -45 -58c26 -5 55 -30 55 -60v-10c0 -38 -33 -73 -102 -73s-102 35 -102 73v10c0 30 29 55 55 60c-25 5 -45 30 -45 58v5c0 38 29 72 92 72zM185 215c-14 0 -22 -10 -22 -25v-6
c0 -16 8 -24 22 -24s22 8 22 24v6c0 15 -8 25 -22 25zM185 49c17 0 26 11 26 26v6c0 16 -9 29 -26 29s-26 -13 -26 -29v-6c0 -15 9 -26 26 -26zM275 575c0 -28 -15 -53 -40 -58c26 -5 44 -28 44 -53v-10c0 -43 -27 -80 -96 -80c-64 0 -99 35 -99 84v6h75v-8
c0 -15 6 -26 22 -26c17 0 22 11 22 26v3c0 16 -7 29 -24 29h-24v56h22c17 0 24 8 24 24v3c0 15 -5 25 -19 25c-17 0 -22 -12 -22 -27v-7h-73v6c0 50 33 84 97 84c66 0 91 -33 91 -71v-6z" />
    <glyph glyph-name="fiveeighths" horiz-adv-x="370" 
d="M340 346v-42h-310v42h310zM185 271c63 0 92 -34 92 -72v-5c0 -28 -20 -53 -45 -58c26 -5 55 -30 55 -60v-10c0 -38 -33 -73 -102 -73s-102 35 -102 73v10c0 30 29 55 55 60c-25 5 -45 30 -45 58v5c0 38 29 72 92 72zM185 215c-14 0 -22 -10 -22 -25v-6
c0 -16 8 -24 22 -24s22 8 22 24v6c0 15 -8 25 -22 25zM185 49c17 0 26 11 26 26v6c0 16 -9 29 -26 29s-26 -13 -26 -29v-6c0 -15 9 -26 26 -26zM280 473v-15c0 -44 -28 -84 -94 -84c-69 0 -99 35 -99 84v6h75v-8c0 -15 5 -26 21 -26s21 15 21 30v10c0 16 -5 31 -24 31
c-15 0 -21 -7 -25 -15h-64l18 164h160v-59h-106l-7 -56c10 8 24 17 51 17c43 0 73 -25 73 -79z" />
    <glyph glyph-name="seveneighths" horiz-adv-x="370" 
d="M340 346v-42h-310v42h310zM185 271c63 0 92 -34 92 -72v-5c0 -28 -20 -53 -45 -58c26 -5 55 -30 55 -60v-10c0 -38 -33 -73 -102 -73s-102 35 -102 73v10c0 30 29 55 55 60c-25 5 -45 30 -45 58v5c0 38 29 72 92 72zM185 215c-14 0 -22 -10 -22 -25v-6
c0 -16 8 -24 22 -24s22 8 22 24v6c0 15 -8 25 -22 25zM185 49c17 0 26 11 26 26v6c0 16 -9 29 -26 29s-26 -13 -26 -29v-6c0 -15 9 -26 26 -26zM199 591h-112v59h192v-50l-82 -219h-84z" />
    <glyph glyph-name="onesixteenth" unicode="&#x3c0;" horiz-adv-x="390" 
d="M350 346v-42h-310v42h310zM269 114c-14 0 -21 -10 -21 -24v-20c0 -14 7 -24 21 -24c15 0 21 10 21 24v20c0 14 -6 24 -21 24zM358 81c0 -57 -33 -88 -86 -88c-68 0 -92 44 -92 97v78c0 62 28 103 90 103c58 0 83 -33 83 -81v-6h-64v10c0 13 -4 22 -20 22
c-12 0 -20 -9 -20 -24v-51c9 15 23 23 43 23c35 0 66 -25 66 -83zM142 0h-72v185h-35v37l63 47h44v-269zM235 381h-77v183h-46v39l75 47h48v-269z" />
    <glyph glyph-name="fivesixteenths" horiz-adv-x="390" 
d="M350 346v-42h-310v42h310zM269 114c-14 0 -21 -10 -21 -24v-20c0 -14 7 -24 21 -24c15 0 21 10 21 24v20c0 14 -6 24 -21 24zM358 81c0 -57 -33 -88 -86 -88c-68 0 -92 44 -92 97v78c0 62 28 103 90 103c58 0 83 -33 83 -81v-6h-64v10c0 13 -4 22 -20 22
c-12 0 -20 -9 -20 -24v-51c9 15 23 23 43 23c35 0 66 -25 66 -83zM142 0h-72v185h-35v37l63 47h44v-269zM290 473v-15c0 -44 -28 -84 -94 -84c-69 0 -99 35 -99 84v6h75v-8c0 -15 5 -26 21 -26s21 15 21 30v10c0 16 -5 31 -24 31c-15 0 -21 -7 -25 -15h-64l18 164h160v-59
h-106l-7 -56c10 8 24 17 51 17c43 0 73 -25 73 -79z" />
    <glyph glyph-name="threesixteenths" horiz-adv-x="390" 
d="M350 346v-42h-310v42h310zM269 114c-14 0 -21 -10 -21 -24v-20c0 -14 7 -24 21 -24c15 0 21 10 21 24v20c0 14 -6 24 -21 24zM358 81c0 -57 -33 -88 -86 -88c-68 0 -92 44 -92 97v78c0 62 28 103 90 103c58 0 83 -33 83 -81v-6h-64v10c0 13 -4 22 -20 22
c-12 0 -20 -9 -20 -24v-51c9 15 23 23 43 23c35 0 66 -25 66 -83zM142 0h-72v185h-35v37l63 47h44v-269zM285 575c0 -28 -15 -53 -40 -58c26 -5 44 -28 44 -53v-10c0 -43 -27 -80 -96 -80c-64 0 -99 35 -99 84v6h75v-8c0 -15 6 -26 22 -26c17 0 22 11 22 26v3
c0 16 -7 29 -24 29h-24v56h22c17 0 24 8 24 24v3c0 15 -5 25 -19 25c-17 0 -22 -12 -22 -27v-7h-73v6c0 50 33 84 97 84c66 0 91 -33 91 -71v-6z" />
    <glyph glyph-name="sevensixteenths" horiz-adv-x="390" 
d="M350 346v-42h-310v42h310zM269 114c-14 0 -21 -10 -21 -24v-20c0 -14 7 -24 21 -24c15 0 21 10 21 24v20c0 14 -6 24 -21 24zM358 81c0 -57 -33 -88 -86 -88c-68 0 -92 44 -92 97v78c0 62 28 103 90 103c58 0 83 -33 83 -81v-6h-64v10c0 13 -4 22 -20 22
c-12 0 -20 -9 -20 -24v-51c9 15 23 23 43 23c35 0 66 -25 66 -83zM142 0h-72v185h-35v37l63 47h44v-269zM209 591h-112v59h192v-50l-82 -219h-84z" />
    <glyph glyph-name="ninesixteenths" horiz-adv-x="390" 
d="M350 346v-42h-310v42h310zM269 114c-14 0 -21 -10 -21 -24v-20c0 -14 7 -24 21 -24c15 0 21 10 21 24v20c0 14 -6 24 -21 24zM358 81c0 -57 -33 -88 -86 -88c-68 0 -92 44 -92 97v78c0 62 28 103 90 103c58 0 83 -33 83 -81v-6h-64v10c0 13 -4 22 -20 22
c-12 0 -20 -9 -20 -24v-51c9 15 23 23 43 23c35 0 66 -25 66 -83zM142 0h-72v185h-35v37l63 47h44v-269zM200 525c16 0 23 12 23 29v14c0 17 -7 29 -23 29s-23 -12 -23 -29v-14c0 -17 7 -29 23 -29zM102 560c0 63 36 94 95 94c66 0 100 -37 100 -102v-72
c0 -67 -31 -104 -98 -104c-64 0 -93 37 -93 79v4h72v-5c0 -12 5 -20 22 -20c14 0 22 10 22 27v35c-9 -13 -26 -21 -48 -21c-38 0 -72 21 -72 85z" />
    <glyph glyph-name="elevensixteenths" horiz-adv-x="390" 
d="M350 346v-42h-310v42h310zM155 381h-72v185h-45v37l73 47h44v-269zM303 381h-72v185h-45v37l73 47h44v-269zM269 114c-14 0 -21 -10 -21 -24v-20c0 -14 7 -24 21 -24c15 0 21 10 21 24v20c0 14 -6 24 -21 24zM358 81c0 -57 -33 -88 -86 -88c-68 0 -92 44 -92 97v78
c0 62 28 103 90 103c58 0 83 -33 83 -81v-6h-64v10c0 13 -4 22 -20 22c-12 0 -20 -9 -20 -24v-51c9 15 23 23 43 23c35 0 66 -25 66 -83zM142 0h-72v185h-35v37l63 47h44v-269z" />
    <glyph glyph-name="thirteensixteenths" horiz-adv-x="390" 
d="M350 346v-42h-310v42h310zM142 381h-72v185h-35v37l63 47h44v-269zM269 114c-14 0 -21 -10 -21 -24v-20c0 -14 7 -24 21 -24c15 0 21 10 21 24v20c0 14 -6 24 -21 24zM358 81c0 -57 -33 -88 -86 -88c-68 0 -92 44 -92 97v78c0 62 28 103 90 103c58 0 83 -33 83 -81v-6
h-64v10c0 13 -4 22 -20 22c-12 0 -20 -9 -20 -24v-51c9 15 23 23 43 23c35 0 66 -25 66 -83zM142 0h-72v185h-35v37l63 47h44v-269zM352 575c0 -28 -14 -53 -37 -58c24 -5 41 -28 41 -53v-10c0 -43 -25 -80 -89 -80c-59 0 -91 35 -91 84v6h69v-8c0 -15 6 -26 21 -26
s20 11 20 26v3c0 16 -7 29 -22 29h-22v56h20c15 0 22 8 22 24v3c0 15 -5 25 -18 25c-15 0 -20 -12 -20 -27v-7h-67v6c0 50 30 84 89 84c61 0 84 -33 84 -71v-6z" />
    <glyph glyph-name="fifteensixteenths" horiz-adv-x="390" 
d="M350 346v-42h-310v42h310zM142 381h-72v185h-35v37l63 47h44v-269zM269 114c-14 0 -21 -10 -21 -24v-20c0 -14 7 -24 21 -24c15 0 21 10 21 24v20c0 14 -6 24 -21 24zM358 81c0 -57 -33 -88 -86 -88c-68 0 -92 44 -92 97v78c0 62 28 103 90 103c58 0 83 -33 83 -81v-6
h-64v10c0 13 -4 22 -20 22c-12 0 -20 -9 -20 -24v-51c9 15 23 23 43 23c35 0 66 -25 66 -83zM142 0h-72v185h-35v37l63 47h44v-269zM356 473v-15c0 -44 -26 -84 -86 -84c-63 0 -90 35 -90 84v6h68v-8c0 -15 5 -26 20 -26c14 0 19 15 19 30v10c0 16 -5 31 -22 31
c-14 0 -19 -7 -23 -15h-58l16 164h146v-59h-97l-6 -56c9 8 22 17 46 17c40 0 67 -25 67 -79z" />
    <glyph glyph-name="arrowup" horiz-adv-x="646" 
d="M58 306v8l259 301h12l259 -301v-8h-145v-271h-240v271h-145z" />
    <glyph glyph-name="arrowup.alt" horiz-adv-x="646" 
d="M58 220v164l259 231h12l259 -231v-164l-195 177v-362h-140v362z" />
    <glyph glyph-name="arrowdown" horiz-adv-x="646" 
d="M588 430v-164l-259 -231h-12l-259 231v164l195 -177v362h140v-362z" />
    <glyph glyph-name="greater.alt" horiz-adv-x="646" 
d="M324 585h32l261 -254v-12l-261 -254h-32l39 180h-326v160h326z" />
    <glyph glyph-name="Amacron" unicode="&#x100;" horiz-adv-x="525" 
d="M171 114l-24 -114h-130l157 650h178l156 -650h-168l-22 114h-147zM296 221l-34 174l-14 96h-2l-15 -96l-37 -174h102zM386 698h-248v74h248v-74z" />
    <glyph glyph-name="amacron" unicode="&#x101;" horiz-adv-x="389" 
d="M318 698h-248v74h248v-74zM128 87l-16 -87h-102l138 650h92l139 -650h-114l-16 87h-121zM233 174l-30 169l-13 105h-2l-12 -105l-32 -169h89z" />
    <glyph glyph-name="Abreve" unicode="&#x102;" horiz-adv-x="525" 
d="M388 808c0 -65 -49 -116 -126 -116s-126 51 -126 116h78c0 -27 19 -44 48 -44s48 17 48 44h78zM171 114l-24 -114h-130l157 650h178l156 -650h-168l-22 114h-147zM296 221l-34 174l-14 96h-2l-15 -96l-37 -174h102z" />
    <glyph glyph-name="abreve" unicode="&#x103;" horiz-adv-x="389" 
d="M128 87l-16 -87h-102l138 650h92l139 -650h-114l-16 87h-121zM233 174l-30 169l-13 105h-2l-12 -105l-32 -169h89zM320 808c0 -65 -49 -116 -126 -116s-126 51 -126 116h78c0 -27 19 -44 48 -44s48 17 48 44h78z" />
    <glyph glyph-name="Aogonek" unicode="&#x104;" horiz-adv-x="525" 
d="M407 0h-67l-22 114h-147l-24 -114h-130l157 650h178l156 -650h-31c-30 -22 -42 -42 -42 -62c0 -18 12 -32 32 -32c16 0 33 7 43 15v-76c-9 -5 -37 -11 -61 -11c-64 0 -108 31 -108 82c0 43 34 71 66 84zM296 221l-34 174l-14 96h-2l-15 -96l-37 -174h102z" />
    <glyph glyph-name="aogonek" unicode="&#x105;" horiz-adv-x="389" 
d="M216 -84c0 36 24 62 50 77l-17 94h-121l-16 -87h-102l138 650h92l139 -650h-27c-30 -22 -42 -42 -42 -62c0 -18 12 -32 32 -32c16 0 33 7 43 15v-76c-9 -5 -37 -11 -61 -11c-64 0 -108 31 -108 82zM233 174l-30 169l-13 105h-2l-12 -105l-32 -169h89z" />
    <glyph glyph-name="Cacute" unicode="&#x106;" horiz-adv-x="535" 
d="M325 688l60 136h-158l-16 -136h114zM277 662c131 0 211 -74 224 -237h-154c-1 80 -22 112 -70 112c-55 0 -76 -44 -76 -180v-61c0 -133 18 -181 74 -181c53 0 76 32 80 136l146 -9c-7 -153 -92 -253 -226 -253c-166 0 -243 105 -243 333c0 243 97 340 245 340z" />
    <glyph glyph-name="cacute" unicode="&#x107;" horiz-adv-x="557" 
d="M193 693v9l272 92v-101h-272zM506 445c-29 28 -61 47 -124 47c-80 0 -144 -63 -144 -168s64 -168 144 -168c67 0 96 24 124 55v-209c-26 -8 -75 -18 -124 -18c-184 0 -345 121 -345 340s161 340 345 340c57 0 95 -8 124 -17v-202z" />
    <glyph glyph-name="Ccircumflex" unicode="&#x108;" horiz-adv-x="535" 
d="M277 727l-129 -34v9l122 102h14l122 -102v-9zM277 662c131 0 211 -74 224 -237h-154c-1 80 -22 112 -70 112c-55 0 -76 -44 -76 -180v-61c0 -133 18 -181 74 -181c53 0 76 32 80 136l146 -9c-7 -153 -92 -253 -226 -253c-166 0 -243 105 -243 333c0 243 97 340 245 340z
" />
    <glyph glyph-name="ccircumflex" unicode="&#x109;" horiz-adv-x="557" 
d="M329 727l-129 -34v9l122 102h14l122 -102v-9zM506 445c-29 28 -61 47 -124 47c-80 0 -144 -63 -144 -168s64 -168 144 -168c67 0 96 24 124 55v-209c-26 -8 -75 -18 -124 -18c-184 0 -345 121 -345 340s161 340 345 340c57 0 95 -8 124 -17v-202z" />
    <glyph glyph-name="Cdotaccent" unicode="&#x10a;" horiz-adv-x="535" 
d="M277 848c42 0 76 -34 76 -77c0 -42 -34 -76 -76 -76s-76 34 -76 76c0 43 34 77 76 77zM277 662c131 0 211 -74 224 -237h-154c-1 80 -22 112 -70 112c-55 0 -76 -44 -76 -180v-61c0 -133 18 -181 74 -181c53 0 76 32 80 136l146 -9c-7 -153 -92 -253 -226 -253
c-166 0 -243 105 -243 333c0 243 97 340 245 340z" />
    <glyph glyph-name="cdotaccent" unicode="&#x10b;" horiz-adv-x="557" 
d="M329 848c42 0 76 -34 76 -77c0 -42 -34 -76 -76 -76s-76 34 -76 76c0 43 34 77 76 77zM506 445c-29 28 -61 47 -124 47c-80 0 -144 -63 -144 -168s64 -168 144 -168c67 0 96 24 124 55v-209c-26 -8 -75 -18 -124 -18c-184 0 -345 121 -345 340s161 340 345 340
c57 0 95 -8 124 -17v-202z" />
    <glyph glyph-name="Ccaron" unicode="&#x10c;" horiz-adv-x="535" 
d="M277 773l49 33h80l-122 -120h-14l-122 120h80zM277 662c131 0 211 -74 224 -237h-154c-1 80 -22 112 -70 112c-55 0 -76 -44 -76 -180v-61c0 -133 18 -181 74 -181c53 0 76 32 80 136l146 -9c-7 -153 -92 -253 -226 -253c-166 0 -243 105 -243 333c0 243 97 340 245 340z
" />
    <glyph glyph-name="ccaron" unicode="&#x10d;" horiz-adv-x="557" 
d="M339 773l49 33h80l-122 -120h-14l-122 120h80zM506 445c-29 28 -61 47 -124 47c-80 0 -144 -63 -144 -168s64 -168 144 -168c67 0 96 24 124 55v-209c-26 -8 -75 -18 -124 -18c-184 0 -345 121 -345 340s161 340 345 340c57 0 95 -8 124 -17v-202z" />
    <glyph glyph-name="Dcaron" unicode="&#x10e;" horiz-adv-x="449" 
d="M214 773l49 33h80l-122 -120h-14l-122 120h80zM231 650c107 0 168 -71 168 -179v-294c0 -108 -60 -177 -168 -177h-171v650h171zM176 102h45c34 0 62 13 62 59v324c0 45 -23 63 -62 63h-45v-446z" />
    <glyph glyph-name="dcaron" unicode="&#x10f;" horiz-adv-x="547" 
d="M253 773l49 33h80l-122 -120h-14l-122 120h80zM290 0h-222v650h221c147 0 228 -104 228 -328c0 -219 -94 -322 -227 -322zM348 362c-2 129 -24 168 -74 168h-45v-410h46c54 0 73 43 73 169v73z" />
    <glyph glyph-name="Dcroat" unicode="&#x110;" horiz-adv-x="449" 
d="M231 650c107 0 168 -71 168 -179v-294c0 -108 -60 -177 -168 -177h-171v284h-40v82h40v284h171zM176 102h45c34 0 62 13 62 59v324c0 45 -23 63 -62 63h-45v-182h66v-82h-66v-182z" />
    <glyph glyph-name="dcroat" unicode="&#x111;" horiz-adv-x="547" 
d="M290 0h-222v284h-62v82h62v284h221c147 0 228 -104 228 -328c0 -219 -94 -322 -227 -322zM348 362c-2 129 -24 168 -74 168h-45v-164h73v-82h-73v-164h46c54 0 73 43 73 169v73z" />
    <glyph glyph-name="Egrave.alt2" horiz-adv-x="387" 
d="M147 688l-60 136h158l16 -136h-114zM346 650v-102h-170v-167h135v-101h-135v-178h181v-102h-297v650h286z" />
    <glyph glyph-name="Eacute.alt2" horiz-adv-x="387" 
d="M68 693v9l272 92v-101h-272zM346 650v-102h-170v-167h135v-101h-135v-178h181v-102h-297v650h286z" />
    <glyph glyph-name="Ecircumflex.alt2" horiz-adv-x="387" 
d="M204 727l-129 -34v9l122 102h14l122 -102v-9zM346 650v-102h-170v-167h135v-101h-135v-178h181v-102h-297v650h286z" />
    <glyph glyph-name="Edieresis.alt2" horiz-adv-x="387" 
d="M346 650v-102h-170v-167h135v-101h-135v-178h181v-102h-297v650h286zM293 815c35 0 63 -28 63 -63s-28 -63 -63 -63s-63 28 -63 63s28 63 63 63zM115 815c35 0 63 -28 63 -63s-28 -63 -63 -63s-63 28 -63 63s28 63 63 63z" />
    <glyph glyph-name="Emacron" unicode="&#x112;" horiz-adv-x="522" 
d="M463 650v-148h-212v-100h204v-147h-204v-108h220v-147h-406v650h398zM389 698h-248v74h248v-74z" />
    <glyph glyph-name="Emacron.alt2" horiz-adv-x="387" 
d="M328 698h-248v74h248v-74zM346 650v-102h-170v-167h135v-101h-135v-178h181v-102h-297v650h286z" />
    <glyph glyph-name="emacron" unicode="&#x113;" 
d="M371 698h-248v74h248v-74zM429 650v-127h-200v-126h153v-124h-153v-146h211v-127h-372v650h361z" />
    <glyph glyph-name="Edotaccent" unicode="&#x116;" horiz-adv-x="522" 
d="M265 848c42 0 76 -34 76 -77c0 -42 -34 -76 -76 -76s-76 34 -76 76c0 43 34 77 76 77zM463 650v-148h-212v-100h204v-147h-204v-108h220v-147h-406v650h398z" />
    <glyph glyph-name="Edotaccent.alt2" horiz-adv-x="387" 
d="M204 848c42 0 76 -34 76 -77c0 -42 -34 -76 -76 -76s-76 34 -76 76c0 43 34 77 76 77zM346 650v-102h-170v-167h135v-101h-135v-178h181v-102h-297v650h286z" />
    <glyph glyph-name="edotaccent" unicode="&#x117;" 
d="M247 848c42 0 76 -34 76 -77c0 -42 -34 -76 -76 -76s-76 34 -76 76c0 43 34 77 76 77zM429 650v-127h-200v-126h153v-124h-153v-146h211v-127h-372v650h361z" />
    <glyph glyph-name="Eogonek" unicode="&#x118;" horiz-adv-x="522" 
d="M369 0h-304v650h398v-148h-212v-100h204v-147h-204v-108h220v-147h-32c-30 -22 -42 -42 -42 -62c0 -18 12 -32 32 -32c16 0 33 7 43 15v-76c-9 -5 -37 -11 -61 -11c-64 0 -108 31 -108 82c0 43 34 71 66 84z" />
    <glyph glyph-name="Eogonek.alt2" horiz-adv-x="387" 
d="M255 0h-195v650h286v-102h-170v-167h135v-101h-135v-178h181v-102h-32c-30 -22 -42 -42 -42 -62c0 -18 12 -32 32 -32c16 0 33 7 43 15v-76c-9 -5 -37 -11 -61 -11c-64 0 -108 31 -108 82c0 43 34 71 66 84z" />
    <glyph glyph-name="eogonek" unicode="&#x119;" 
d="M345 0h-277v650h361v-127h-200v-126h153v-124h-153v-146h211v-127h-25c-30 -22 -42 -42 -42 -62c0 -18 12 -32 32 -32c16 0 33 7 43 15v-76c-9 -5 -37 -11 -61 -11c-64 0 -108 31 -108 82c0 43 34 71 66 84z" />
    <glyph glyph-name="Ecaron" unicode="&#x11a;" horiz-adv-x="522" 
d="M463 650v-148h-212v-100h204v-147h-204v-108h220v-147h-406v650h398zM265 773l49 33h80l-122 -120h-14l-122 120h80z" />
    <glyph glyph-name="Ecaron.alt2" horiz-adv-x="387" 
d="M204 773l49 33h80l-122 -120h-14l-122 120h80zM346 650v-102h-170v-167h135v-101h-135v-178h181v-102h-297v650h286z" />
    <glyph glyph-name="ecaron" unicode="&#x11b;" 
d="M247 773l49 33h80l-122 -120h-14l-122 120h80zM429 650v-127h-200v-126h153v-124h-153v-146h211v-127h-372v650h361z" />
    <glyph glyph-name="Gcircumflex" unicode="&#x11c;" horiz-adv-x="418" 
d="M205 727l-129 -34v9l122 102h14l122 -102v-9zM371 441h-113v55c0 37 -15 59 -51 59c-34 0 -51 -22 -51 -59v-345c0 -37 18 -59 53 -59c36 0 53 20 53 59v89h-64v104h177v-344h-64l-17 40c-14 -24 -39 -47 -96 -47c-104 0 -158 66 -158 184v297c0 116 54 184 167 184
s164 -63 164 -184v-33z" />
    <glyph glyph-name="Gcircumflex.alt2" horiz-adv-x="531" 
d="M285 355h212v-89c0 -189 -75 -277 -225 -277s-240 93 -240 333c0 243 97 340 245 340c131 0 204 -72 216 -215l-151 -10c-1 69 -17 100 -65 100c-55 0 -78 -44 -78 -180v-61c0 -133 20 -181 79 -181c58 0 70 53 73 114h-66v126zM277 727l-129 -34v9l122 102h14l122 -102
v-9z" />
    <glyph glyph-name="gcircumflex" unicode="&#x11d;" horiz-adv-x="546" 
d="M271 727l-129 -34v9l122 102h14l122 -102v-9zM282 345h210v-345h-64l-33 68c-23 -42 -61 -79 -134 -79c-150 0 -229 93 -229 333c0 243 97 340 245 340c131 0 206 -73 218 -216l-151 -10c-1 69 -19 101 -67 101c-55 0 -78 -44 -78 -180v-61c0 -133 20 -181 76 -181
c53 0 71 49 78 111h-71v119z" />
    <glyph glyph-name="Gbreve" unicode="&#x11e;" horiz-adv-x="418" 
d="M331 808c0 -65 -49 -116 -126 -116s-126 51 -126 116h78c0 -27 19 -44 48 -44s48 17 48 44h78zM371 441h-113v55c0 37 -15 59 -51 59c-34 0 -51 -22 -51 -59v-345c0 -37 18 -59 53 -59c36 0 53 20 53 59v89h-64v104h177v-344h-64l-17 40c-14 -24 -39 -47 -96 -47
c-104 0 -158 66 -158 184v297c0 116 54 184 167 184s164 -63 164 -184v-33z" />
    <glyph glyph-name="Gbreve.alt2" horiz-adv-x="531" 
d="M285 355h212v-89c0 -189 -75 -277 -225 -277s-240 93 -240 333c0 243 97 340 245 340c131 0 204 -72 216 -215l-151 -10c-1 69 -17 100 -65 100c-55 0 -78 -44 -78 -180v-61c0 -133 20 -181 79 -181c58 0 70 53 73 114h-66v126zM403 808c0 -65 -49 -116 -126 -116
s-126 51 -126 116h78c0 -27 19 -44 48 -44s48 17 48 44h78z" />
    <glyph glyph-name="gbreve" unicode="&#x11f;" horiz-adv-x="546" 
d="M282 345h210v-345h-64l-33 68c-23 -42 -61 -79 -134 -79c-150 0 -229 93 -229 333c0 243 97 340 245 340c131 0 206 -73 218 -216l-151 -10c-1 69 -19 101 -67 101c-55 0 -78 -44 -78 -180v-61c0 -133 20 -181 76 -181c53 0 71 49 78 111h-71v119zM397 808
c0 -65 -49 -116 -126 -116s-126 51 -126 116h78c0 -27 19 -44 48 -44s48 17 48 44h78z" />
    <glyph glyph-name="Gdotaccent" unicode="&#x120;" horiz-adv-x="418" 
d="M205 848c42 0 76 -34 76 -77c0 -42 -34 -76 -76 -76s-76 34 -76 76c0 43 34 77 76 77zM371 441h-113v55c0 37 -15 59 -51 59c-34 0 -51 -22 -51 -59v-345c0 -37 18 -59 53 -59c36 0 53 20 53 59v89h-64v104h177v-344h-64l-17 40c-14 -24 -39 -47 -96 -47
c-104 0 -158 66 -158 184v297c0 116 54 184 167 184s164 -63 164 -184v-33z" />
    <glyph glyph-name="Gdotaccent.alt2" horiz-adv-x="531" 
d="M277 848c42 0 76 -34 76 -77c0 -42 -34 -76 -76 -76s-76 34 -76 76c0 43 34 77 76 77zM285 355h212v-89c0 -189 -75 -277 -225 -277s-240 93 -240 333c0 243 97 340 245 340c131 0 204 -72 216 -215l-151 -10c-1 69 -17 100 -65 100c-55 0 -78 -44 -78 -180v-61
c0 -133 20 -181 79 -181c58 0 70 53 73 114h-66v126z" />
    <glyph glyph-name="gdotaccent" unicode="&#x121;" horiz-adv-x="546" 
d="M282 345h210v-345h-64l-33 68c-23 -42 -61 -79 -134 -79c-150 0 -229 93 -229 333c0 243 97 340 245 340c131 0 206 -73 218 -216l-151 -10c-1 69 -19 101 -67 101c-55 0 -78 -44 -78 -180v-61c0 -133 20 -181 76 -181c53 0 71 49 78 111h-71v119zM271 848
c42 0 76 -34 76 -77c0 -42 -34 -76 -76 -76s-76 34 -76 76c0 43 34 77 76 77z" />
    <glyph glyph-name="Gcommaaccent" unicode="&#x122;" horiz-adv-x="418" 
d="M371 441h-113v55c0 37 -15 59 -51 59c-34 0 -51 -22 -51 -59v-345c0 -37 18 -59 53 -59c36 0 53 20 53 59v89h-64v104h177v-344h-64l-17 40c-14 -24 -39 -47 -96 -47c-104 0 -158 66 -158 184v297c0 116 54 184 167 184s164 -63 164 -184v-33zM196 -34
c37 0 68 -29 68 -72c0 -75 -66 -120 -129 -138l-2 6c40 29 62 49 62 83c-43 2 -62 29 -62 61c0 33 27 60 63 60z" />
    <glyph glyph-name="Gcommaaccent.alt2" horiz-adv-x="531" 
d="M285 355h212v-89c0 -189 -75 -277 -225 -277s-240 93 -240 333c0 243 97 340 245 340c131 0 204 -72 216 -215l-151 -10c-1 69 -17 100 -65 100c-55 0 -78 -44 -78 -180v-61c0 -133 20 -181 79 -181c58 0 70 53 73 114h-66v126zM263 -34c37 0 68 -29 68 -72
c0 -75 -66 -120 -129 -138l-2 6c40 29 62 49 62 83c-43 2 -62 29 -62 61c0 33 27 60 63 60z" />
    <glyph glyph-name="gcommaaccent" unicode="&#x123;" horiz-adv-x="546" 
d="M260 -34c37 0 68 -29 68 -72c0 -75 -66 -120 -129 -138l-2 6c40 29 62 49 62 83c-43 2 -62 29 -62 61c0 33 27 60 63 60zM282 345h210v-345h-64l-33 68c-23 -42 -61 -79 -134 -79c-150 0 -229 93 -229 333c0 243 97 340 245 340c131 0 206 -73 218 -216l-151 -10
c-1 69 -19 101 -67 101c-55 0 -78 -44 -78 -180v-61c0 -133 20 -181 76 -181c53 0 71 49 78 111h-71v119z" />
    <glyph glyph-name="Hcircumflex" unicode="&#x124;" horiz-adv-x="583" 
d="M291 727l-129 -34v9l122 102h14l122 -102v-9zM354 277h-125v-277h-161v650h161v-246h125v246h161v-650h-161v277z" />
    <glyph glyph-name="hcircumflex" unicode="&#x125;" horiz-adv-x="459" 
d="M229 727l-129 -34v9l122 102h14l122 -102v-9zM176 372h107v278h116v-650h-116v264h-107v-264h-116v650h116v-278z" />
    <glyph glyph-name="Hbar" unicode="&#x126;" horiz-adv-x="583" 
d="M563 479h-48v-479h-161v277h-125v-277h-161v479h-48v80h48v91h161v-91h125v91h161v-91h48v-80zM229 404h125v75h-125v-75z" />
    <glyph glyph-name="hbar" unicode="&#x127;" horiz-adv-x="459" 
d="M450 462h-51v-462h-116v264h-107v-264h-116v462h-51v80h51v108h116v-108h107v108h116v-108h51v-80zM176 372h107v90h-107v-90z" />
    <glyph glyph-name="Igrave.alt2" horiz-adv-x="256" 
d="M71 688l-60 136h158l16 -136h-114zM70 650h116v-650h-116v650z" />
    <glyph glyph-name="Iacute.alt2" horiz-adv-x="256" 
d="M70 650h116v-650h-116v650zM22 693v9l202 92v-101h-202z" />
    <glyph glyph-name="Icircumflex.alt2" horiz-adv-x="256" 
d="M128 727l-129 -34v9l122 102h14l122 -102v-9zM70 650h116v-650h-116v650z" />
    <glyph glyph-name="Idieresis.alt2" horiz-adv-x="256" 
d="M222 815c35 0 63 -28 63 -63s-28 -63 -63 -63s-63 28 -63 63s28 63 63 63zM34 815c35 0 63 -28 63 -63s-28 -63 -63 -63s-63 28 -63 63s28 63 63 63zM70 650h116v-650h-116v650z" />
    <glyph glyph-name="Imacron" unicode="&#x12a;" horiz-adv-x="292" 
d="M61 650h170v-650h-170v650zM270 698h-248v74h248v-74z" />
    <glyph glyph-name="Imacron.alt2" horiz-adv-x="256" 
d="M252 698h-248v74h248v-74zM70 650h116v-650h-116v650z" />
    <glyph glyph-name="imacron" unicode="&#x12b;" horiz-adv-x="306" 
d="M95 558h-54v92h224v-92h-54v-466h54v-92h-224v92h54v466zM264 698h-223v74h223v-74z" />
    <glyph glyph-name="Iogonek" unicode="&#x12e;" horiz-adv-x="292" 
d="M133 0h-72v650h170v-650h-28c-30 -22 -42 -42 -42 -62c0 -18 12 -32 32 -32c16 0 33 7 43 15v-76c-9 -5 -37 -11 -61 -11c-64 0 -108 31 -108 82c0 43 34 71 66 84z" />
    <glyph glyph-name="Iogonek.alt2" horiz-adv-x="256" 
d="M108 0h-38v650h116v-643c-39 -29 -50 -49 -50 -69c0 -18 12 -32 32 -32c16 0 33 7 43 15v-76c-9 -5 -37 -11 -61 -11c-64 0 -108 31 -108 82c0 43 34 71 66 84z" />
    <glyph glyph-name="iogonek" unicode="&#x12f;" horiz-adv-x="306" 
d="M149 0h-108v92h54v466h-54v92h224v-92h-54v-466h54v-92h-46c-30 -22 -42 -42 -42 -62c0 -18 12 -32 32 -32c16 0 33 7 43 15v-76c-9 -5 -37 -11 -61 -11c-64 0 -108 31 -108 82c0 43 34 71 66 84z" />
    <glyph glyph-name="Idotaccent" unicode="&#x130;" horiz-adv-x="292" 
d="M146 848c42 0 76 -34 76 -77c0 -42 -34 -76 -76 -76s-76 34 -76 76c0 43 34 77 76 77zM61 650h170v-650h-170v650z" />
    <glyph glyph-name="Idotaccent.alt2" horiz-adv-x="256" 
d="M128 848c42 0 76 -34 76 -77c0 -42 -34 -76 -76 -76s-76 34 -76 76c0 43 34 77 76 77zM70 650h116v-650h-116v650z" />
    <glyph glyph-name="idotaccent" horiz-adv-x="306" 
d="M153 848c42 0 76 -34 76 -77c0 -42 -34 -76 -76 -76s-76 34 -76 76c0 43 34 77 76 77zM95 558h-54v92h224v-92h-54v-466h54v-92h-224v92h54v466z" />
    <glyph glyph-name="Jcircumflex" unicode="&#x134;" horiz-adv-x="364" 
d="M215 727l-129 -34v9l122 102h14l122 -102v-9zM133 -5c-51 0 -83 4 -107 9v131c13 -4 34 -6 49 -6c40 0 60 21 60 61v460h161v-457c0 -143 -41 -198 -163 -198z" />
    <glyph glyph-name="jcircumflex" unicode="&#x135;" horiz-adv-x="523" 
d="M383 727l-129 -34v9l122 102h14l122 -102v-9zM244 -5c-152 0 -226 90 -226 234h163c0 -62 20 -93 61 -93c39 0 55 28 55 91v423h170v-438c0 -136 -76 -217 -223 -217z" />
    <glyph glyph-name="Kcommaaccent" unicode="&#x136;" horiz-adv-x="553" 
d="M282 -34c37 0 68 -29 68 -72c0 -75 -66 -120 -129 -138l-2 6c40 29 62 49 62 83c-43 2 -62 29 -62 61c0 33 27 60 63 60zM229 411l148 240h156l-167 -248l162 -403h-171l-93 250l-35 -52v-198h-161v650h161v-239z" />
    <glyph glyph-name="kcommaaccent" unicode="&#x137;" horiz-adv-x="429" 
d="M227 -34c37 0 68 -29 68 -72c0 -75 -66 -120 -129 -138l-2 6c40 29 62 49 62 83c-43 2 -62 29 -62 61c0 33 27 60 63 60zM176 213v-213h-116v650h116v-213l-2 -55h1l19 51l99 217h116l-134 -258l140 -392h-118l-93 266z" />
    <glyph glyph-name="Lacute" unicode="&#x139;" horiz-adv-x="373" 
d="M349 0h-289v650h116v-542h173v-108zM10 693v9l204 92v-101h-204z" />
    <glyph glyph-name="lacute" unicode="&#x13a;" horiz-adv-x="438" 
d="M13 693v9l272 92v-101h-272zM229 650v-523h186v-127h-347v650h161z" />
    <glyph glyph-name="Lcommaaccent" unicode="&#x13b;" horiz-adv-x="373" 
d="M349 0h-289v650h116v-542h173v-108zM206 -34c37 0 68 -29 68 -72c0 -75 -66 -120 -129 -138l-2 6c40 29 62 49 62 83c-43 2 -62 29 -62 61c0 33 27 60 63 60z" />
    <glyph glyph-name="lcommaaccent" unicode="&#x13c;" horiz-adv-x="438" 
d="M229 650v-523h186v-127h-347v650h161zM236 -34c37 0 68 -29 68 -72c0 -75 -66 -120 -129 -138l-2 6c40 29 62 49 62 83c-43 2 -62 29 -62 61c0 33 27 60 63 60z" />
    <glyph glyph-name="Lcaron" unicode="&#x13d;" horiz-adv-x="373" 
d="M354 650v-92c0 -85 -40 -132 -107 -142v47c35 10 43 29 44 75h-47v112h110zM349 0h-289v650h116v-542h173v-108z" />
    <glyph glyph-name="lcaron" unicode="&#x13e;" horiz-adv-x="438" 
d="M414 650v-95c0 -88 -45 -137 -120 -147v49c40 10 48 30 50 77h-53v116h123zM229 650v-523h186v-127h-347v650h161z" />
    <glyph glyph-name="Nacute" unicode="&#x143;" horiz-adv-x="450" 
d="M289 273v377h101v-650h-103l-100 288l-24 105h-2v-393h-101v650h109l88 -249l30 -128h2zM94 693v9l272 92v-101h-272z" />
    <glyph glyph-name="nacute" unicode="&#x144;" horiz-adv-x="579" 
d="M379 288v362h135v-650h-135l-131 253l-46 100h-2v-353h-135v650h135l133 -264l44 -98h2zM157 693v9l272 92v-101h-272z" />
    <glyph glyph-name="Ncommaaccent" unicode="&#x145;" horiz-adv-x="450" 
d="M219 -34c37 0 68 -29 68 -72c0 -75 -66 -120 -129 -138l-2 6c40 29 62 49 62 83c-43 2 -62 29 -62 61c0 33 27 60 63 60zM289 273v377h101v-650h-103l-100 288l-24 105h-2v-393h-101v650h109l88 -249l30 -128h2z" />
    <glyph glyph-name="ncommaaccent" unicode="&#x146;" horiz-adv-x="579" 
d="M278 -34c37 0 68 -29 68 -72c0 -75 -66 -120 -129 -138l-2 6c40 29 62 49 62 83c-43 2 -62 29 -62 61c0 33 27 60 63 60zM379 288v362h135v-650h-135l-131 253l-46 100h-2v-353h-135v650h135l133 -264l44 -98h2z" />
    <glyph glyph-name="Ncaron" unicode="&#x147;" horiz-adv-x="450" 
d="M230 773l49 33h80l-122 -120h-14l-122 120h80zM289 273v377h101v-650h-103l-100 288l-24 105h-2v-393h-101v650h109l88 -249l30 -128h2z" />
    <glyph glyph-name="ncaron" unicode="&#x148;" horiz-adv-x="579" 
d="M379 288v362h135v-650h-135l-131 253l-46 100h-2v-353h-135v650h135l133 -264l44 -98h2zM293 773l49 33h80l-122 -120h-14l-122 120h80z" />
    <glyph glyph-name="Ograve.alt2" horiz-adv-x="790" 
d="M533 693v9l-272 92v-101h272zM395 669c186 0 355 -126 355 -345s-169 -345 -355 -345s-355 126 -355 345s169 345 355 345zM395 492c-86 0 -154 -59 -154 -168s68 -168 154 -168s154 59 154 168s-68 168 -154 168z" />
    <glyph glyph-name="Ograve.alt3" horiz-adv-x="708" 
d="M354 659c171 0 324 -89 324 -334c0 -234 -153 -333 -324 -333c-172 0 -324 99 -324 333c0 245 152 334 324 334zM354 519c-99 0 -147 -62 -147 -194c0 -129 48 -189 147 -189c98 0 147 59 147 189c0 132 -49 194 -147 194zM297 688l-60 136h158l16 -136h-114z" />
    <glyph glyph-name="Oacute.alt2" horiz-adv-x="790" 
d="M453 688l80 136h-178l-26 -136h124zM395 669c186 0 355 -126 355 -345s-169 -345 -355 -345s-355 126 -355 345s169 345 355 345zM395 492c-86 0 -154 -59 -154 -168s68 -168 154 -168s154 59 154 168s-68 168 -154 168z" />
    <glyph glyph-name="Oacute.alt3" horiz-adv-x="708" 
d="M354 659c171 0 324 -89 324 -334c0 -234 -153 -333 -324 -333c-172 0 -324 99 -324 333c0 245 152 334 324 334zM354 519c-99 0 -147 -62 -147 -194c0 -129 48 -189 147 -189c98 0 147 59 147 189c0 132 -49 194 -147 194zM218 693v9l272 92v-101h-272z" />
    <glyph glyph-name="Ocircumflex.alt2" horiz-adv-x="790" 
d="M395 669c186 0 355 -126 355 -345s-169 -345 -355 -345s-355 126 -355 345s169 345 355 345zM395 492c-86 0 -154 -59 -154 -168s68 -168 154 -168s154 59 154 168s-68 168 -154 168zM395 727l-129 -34v9l122 102h14l122 -102v-9z" />
    <glyph glyph-name="Ocircumflex.alt3" horiz-adv-x="708" 
d="M354 659c171 0 324 -89 324 -334c0 -234 -153 -333 -324 -333c-172 0 -324 99 -324 333c0 245 152 334 324 334zM354 519c-99 0 -147 -62 -147 -194c0 -129 48 -189 147 -189c98 0 147 59 147 189c0 132 -49 194 -147 194zM354 727l-129 -34v9l122 102h14l122 -102v-9z
" />
    <glyph glyph-name="Otilde.alt2" horiz-adv-x="790" 
d="M395 669c186 0 355 -126 355 -345s-169 -345 -355 -345s-355 126 -355 345s169 345 355 345zM395 492c-86 0 -154 -59 -154 -168s68 -168 154 -168s154 59 154 168s-68 168 -154 168zM535 792c-16 -72 -50 -102 -97 -102c-28 0 -84 14 -118 14c-20 0 -43 -7 -59 -17h-6
c16 72 51 102 97 102c30 0 85 -14 118 -14c27 0 43 7 59 17h6z" />
    <glyph glyph-name="Otilde.alt3" horiz-adv-x="708" 
d="M354 659c171 0 324 -89 324 -334c0 -234 -153 -333 -324 -333c-172 0 -324 99 -324 333c0 245 152 334 324 334zM354 519c-99 0 -147 -62 -147 -194c0 -129 48 -189 147 -189c98 0 147 59 147 189c0 132 -49 194 -147 194zM494 792c-16 -72 -50 -102 -97 -102
c-28 0 -84 14 -118 14c-20 0 -43 -7 -59 -17h-6c16 72 51 102 97 102c30 0 85 -14 118 -14c27 0 43 7 59 17h6z" />
    <glyph glyph-name="Odieresis.alt2" horiz-adv-x="790" 
d="M395 669c186 0 355 -126 355 -345s-169 -345 -355 -345s-355 126 -355 345s169 345 355 345zM395 492c-86 0 -154 -59 -154 -168s68 -168 154 -168s154 59 154 168s-68 168 -154 168zM489 815c35 0 63 -28 63 -63s-28 -63 -63 -63s-63 28 -63 63s28 63 63 63zM301 815
c35 0 63 -28 63 -63s-28 -63 -63 -63s-63 28 -63 63s28 63 63 63z" />
    <glyph glyph-name="Odieresis.alt3" horiz-adv-x="708" 
d="M354 659c171 0 324 -89 324 -334c0 -234 -153 -333 -324 -333c-172 0 -324 99 -324 333c0 245 152 334 324 334zM354 519c-99 0 -147 -62 -147 -194c0 -129 48 -189 147 -189c98 0 147 59 147 189c0 132 -49 194 -147 194zM448 815c35 0 63 -28 63 -63s-28 -63 -63 -63
s-63 28 -63 63s28 63 63 63zM260 815c35 0 63 -28 63 -63s-28 -63 -63 -63s-63 28 -63 63s28 63 63 63z" />
    <glyph glyph-name="Omacron" unicode="&#x14c;" horiz-adv-x="414" 
d="M329 698h-248v74h248v-74zM374 177c0 -116 -54 -184 -167 -184s-167 68 -167 184v297c0 116 54 184 167 184s167 -68 167 -184v-297zM156 155c0 -37 17 -59 51 -59s51 22 51 59v341c0 37 -17 59 -51 59s-51 -22 -51 -59v-341z" />
    <glyph glyph-name="Omacron.alt2" horiz-adv-x="790" 
d="M395 669c186 0 355 -126 355 -345s-169 -345 -355 -345s-355 126 -355 345s169 345 355 345zM395 492c-86 0 -154 -59 -154 -168s68 -168 154 -168s154 59 154 168s-68 168 -154 168zM519 698h-248v74h248v-74z" />
    <glyph glyph-name="Omacron.alt3" horiz-adv-x="708" 
d="M354 659c171 0 324 -89 324 -334c0 -234 -153 -333 -324 -333c-172 0 -324 99 -324 333c0 245 152 334 324 334zM354 519c-99 0 -147 -62 -147 -194c0 -129 48 -189 147 -189c98 0 147 59 147 189c0 132 -49 194 -147 194zM478 698h-248v74h248v-74z" />
    <glyph glyph-name="omacron" unicode="&#x14d;" horiz-adv-x="547" 
d="M398 698h-248v74h248v-74zM274 -11c-146 0 -242 112 -242 333c0 236 99 340 243 340c163 0 242 -104 242 -340c0 -221 -97 -333 -243 -333zM348 289v73c0 129 -25 175 -73 175c-55 0 -74 -46 -74 -175v-73c0 -126 17 -174 73 -174s74 48 74 174z" />
    <glyph glyph-name="Ohungarumlaut" unicode="&#x150;" horiz-adv-x="414" 
d="M374 177c0 -116 -54 -184 -167 -184s-167 68 -167 184v297c0 116 54 184 167 184s167 -68 167 -184v-297zM156 155c0 -37 17 -59 51 -59s51 22 51 59v341c0 37 -17 59 -51 59s-51 -22 -51 -59v-341zM310 688h-84l46 136h88zM172 688h-84l46 136h88z" />
    <glyph glyph-name="Ohungarumlaut.alt2" horiz-adv-x="790" 
d="M395 669c186 0 355 -126 355 -345s-169 -345 -355 -345s-355 126 -355 345s169 345 355 345zM395 492c-86 0 -154 -59 -154 -168s68 -168 154 -168s154 59 154 168s-68 168 -154 168zM500 688h-84l46 136h88zM362 688h-84l46 136h88z" />
    <glyph glyph-name="Ohungarumlaut.alt3" horiz-adv-x="708" 
d="M354 659c171 0 324 -89 324 -334c0 -234 -153 -333 -324 -333c-172 0 -324 99 -324 333c0 245 152 334 324 334zM354 519c-99 0 -147 -62 -147 -194c0 -129 48 -189 147 -189c98 0 147 59 147 189c0 132 -49 194 -147 194zM459 688h-84l46 136h88zM321 688h-84l46 136h88
z" />
    <glyph glyph-name="ohungarumlaut" unicode="&#x151;" horiz-adv-x="547" 
d="M379 688h-84l46 136h88zM241 688h-84l46 136h88zM274 -11c-146 0 -242 112 -242 333c0 236 99 340 243 340c163 0 242 -104 242 -340c0 -221 -97 -333 -243 -333zM348 289v73c0 129 -25 175 -73 175c-55 0 -74 -46 -74 -175v-73c0 -126 17 -174 73 -174s74 48 74 174z
" />
    <glyph glyph-name="Racute" unicode="&#x154;" horiz-adv-x="452" 
d="M321 283l88 -283h-115l-79 262h-39v-262h-116v650h174c107 0 168 -63 168 -153v-88c0 -72 -34 -103 -81 -126zM176 359h52c30 0 58 13 58 61v65c0 45 -22 63 -58 63h-52v-189zM72 693v9l272 92v-101h-272z" />
    <glyph glyph-name="Racute.alt2" horiz-adv-x="554" 
d="M132 693v9l272 92v-101h-272zM507 442c0 -91 -31 -143 -85 -170l106 -272h-171l-78 221h-50v-221h-161v650h218c157 0 221 -84 221 -208zM346 446c0 61 -29 81 -74 81h-43v-190h46c49 0 71 23 71 82v27z" />
    <glyph glyph-name="racute" unicode="&#x155;" horiz-adv-x="649" 
d="M169 693v9l272 92v-101h-272zM593 88c12 -62 13 -69 29 -75v-13h-176c-11 8 -16 23 -26 77c-10 56 -23 107 -33 125c-12 22 -31 36 -68 36h-84v-238h-170v650h299c172 0 236 -73 236 -187c0 -98 -55 -144 -119 -162v-1c26 -7 39 -17 57 -39c32 -38 42 -102 55 -173z
M423 445c0 42 -24 63 -67 63h-121v-130h122c46 0 66 25 66 67z" />
    <glyph glyph-name="Rcommaaccent" unicode="&#x156;" horiz-adv-x="452" 
d="M228 -34c37 0 68 -29 68 -72c0 -75 -66 -120 -129 -138l-2 6c40 29 62 49 62 83c-43 2 -62 29 -62 61c0 33 27 60 63 60zM321 283l88 -283h-115l-79 262h-39v-262h-116v650h174c107 0 168 -63 168 -153v-88c0 -72 -34 -103 -81 -126zM176 359h52c30 0 58 13 58 61v65
c0 45 -22 63 -58 63h-52v-189z" />
    <glyph glyph-name="Rcommaaccent.alt2" horiz-adv-x="554" 
d="M287 -34c37 0 68 -29 68 -72c0 -75 -66 -120 -129 -138l-2 6c40 29 62 49 62 83c-43 2 -62 29 -62 61c0 33 27 60 63 60zM507 442c0 -91 -31 -143 -85 -170l106 -272h-171l-78 221h-50v-221h-161v650h218c157 0 221 -84 221 -208zM346 446c0 61 -29 81 -74 81h-43v-190
h46c49 0 71 23 71 82v27z" />
    <glyph glyph-name="rcommaaccent" unicode="&#x157;" horiz-adv-x="649" 
d="M593 88c12 -62 13 -69 29 -75v-13h-176c-11 8 -16 23 -26 77c-10 56 -23 107 -33 125c-12 22 -31 36 -68 36h-84v-238h-170v650h299c172 0 236 -73 236 -187c0 -98 -55 -144 -119 -162v-1c26 -7 39 -17 57 -39c32 -38 42 -102 55 -173zM423 445c0 42 -24 63 -67 63h-121
v-130h122c46 0 66 25 66 67zM329 -34c37 0 68 -29 68 -72c0 -75 -66 -120 -129 -138l-2 6c40 29 62 49 62 83c-43 2 -62 29 -62 61c0 33 27 60 63 60z" />
    <glyph glyph-name="Rcaron" unicode="&#x158;" horiz-adv-x="452" 
d="M208 773l49 33h80l-122 -120h-14l-122 120h80zM321 283l88 -283h-115l-79 262h-39v-262h-116v650h174c107 0 168 -63 168 -153v-88c0 -72 -34 -103 -81 -126zM176 359h52c30 0 58 13 58 61v65c0 45 -22 63 -58 63h-52v-189z" />
    <glyph glyph-name="Rcaron.alt2" horiz-adv-x="554" 
d="M268 773l49 33h80l-122 -120h-14l-122 120h80zM507 442c0 -91 -31 -143 -85 -170l106 -272h-171l-78 221h-50v-221h-161v650h218c157 0 221 -84 221 -208zM346 446c0 61 -29 81 -74 81h-43v-190h46c49 0 71 23 71 82v27z" />
    <glyph glyph-name="rcaron" unicode="&#x159;" horiz-adv-x="649" 
d="M305 773l49 33h80l-122 -120h-14l-122 120h80zM593 88c12 -62 13 -69 29 -75v-13h-176c-11 8 -16 23 -26 77c-10 56 -23 107 -33 125c-12 22 -31 36 -68 36h-84v-238h-170v650h299c172 0 236 -73 236 -187c0 -98 -55 -144 -119 -162v-1c26 -7 39 -17 57 -39
c32 -38 42 -102 55 -173zM423 445c0 42 -24 63 -67 63h-121v-130h122c46 0 66 25 66 67z" />
    <glyph glyph-name="Sacute" unicode="&#x15a;" 
d="M103 693v9l272 92v-101h-272zM294 174c0 90 -256 93 -256 302c0 120 91 186 201 186c114 0 164 -58 193 -134l-130 -47c-11 37 -26 56 -61 56c-27 0 -48 -11 -48 -50c0 -97 262 -89 262 -308c0 -100 -72 -190 -215 -190c-137 0 -194 93 -220 170l151 33
c12 -50 26 -77 70 -77c38 0 53 20 53 59z" />
    <glyph glyph-name="Sacute.alt2" horiz-adv-x="411" 
d="M368 185v-38c0 -95 -55 -154 -168 -154s-159 65 -159 180v51h112v-73c0 -36 16 -59 51 -59c37 0 51 23 51 59v30c0 56 -36 79 -102 120c-58 36 -105 77 -105 172v23c0 100 54 160 162 160c118 0 156 -65 156 -180v-23h-110v45c0 36 -14 59 -49 59c-37 0 -46 -23 -46 -55
v-22c0 -53 26 -66 96 -110c59 -37 111 -77 111 -185zM68 693v9l272 92v-101h-272z" />
    <glyph glyph-name="sacute" unicode="&#x15b;" horiz-adv-x="604" 
d="M162 693v9l272 92v-101h-272zM296 527c-55 0 -86 -16 -86 -47c0 -37 25 -48 130 -73c128 -30 232 -66 232 -205c0 -144 -94 -210 -267 -210c-186 0 -276 81 -276 228h168c0 -54 27 -84 102 -84c71 0 100 17 100 53c0 41 -43 49 -123 67c-154 35 -237 90 -237 210
c0 125 105 193 259 193c157 0 248 -57 256 -196h-168c-2 38 -26 64 -90 64z" />
    <glyph glyph-name="Scircumflex" unicode="&#x15c;" 
d="M239 727l-129 -34v9l122 102h14l122 -102v-9zM294 174c0 90 -256 93 -256 302c0 120 91 186 201 186c114 0 164 -58 193 -134l-130 -47c-11 37 -26 56 -61 56c-27 0 -48 -11 -48 -50c0 -97 262 -89 262 -308c0 -100 -72 -190 -215 -190c-137 0 -194 93 -220 170l151 33
c12 -50 26 -77 70 -77c38 0 53 20 53 59z" />
    <glyph glyph-name="Scircumflex.alt2" horiz-adv-x="411" 
d="M204 727l-129 -34v9l122 102h14l122 -102v-9zM368 185v-38c0 -95 -55 -154 -168 -154s-159 65 -159 180v51h112v-73c0 -36 16 -59 51 -59c37 0 51 23 51 59v30c0 56 -36 79 -102 120c-58 36 -105 77 -105 172v23c0 100 54 160 162 160c118 0 156 -65 156 -180v-23h-110
v45c0 36 -14 59 -49 59c-37 0 -46 -23 -46 -55v-22c0 -53 26 -66 96 -110c59 -37 111 -77 111 -185z" />
    <glyph glyph-name="scircumflex" unicode="&#x15d;" horiz-adv-x="604" 
d="M298 727l-129 -34v9l122 102h14l122 -102v-9zM296 527c-55 0 -86 -16 -86 -47c0 -37 25 -48 130 -73c128 -30 232 -66 232 -205c0 -144 -94 -210 -267 -210c-186 0 -276 81 -276 228h168c0 -54 27 -84 102 -84c71 0 100 17 100 53c0 41 -43 49 -123 67
c-154 35 -237 90 -237 210c0 125 105 193 259 193c157 0 248 -57 256 -196h-168c-2 38 -26 64 -90 64z" />
    <glyph glyph-name="Scedilla" unicode="&#x15e;" 
d="M294 174c0 90 -256 93 -256 302c0 120 91 186 201 186c114 0 164 -58 193 -134l-130 -47c-11 37 -26 56 -61 56c-27 0 -48 -11 -48 -50c0 -97 262 -89 262 -308c0 -84 -51 -161 -151 -183v-91c0 -88 -45 -137 -120 -147v49c40 10 48 30 50 77h-53v112
c-96 22 -139 98 -161 163l151 33c12 -50 26 -77 70 -77c38 0 53 20 53 59z" />
    <glyph glyph-name="Scedilla" unicode="&#xf6c1;" 
d="M294 174c0 90 -256 93 -256 302c0 120 91 186 201 186c114 0 164 -58 193 -134l-130 -47c-11 37 -26 56 -61 56c-27 0 -48 -11 -48 -50c0 -97 262 -89 262 -308c0 -84 -51 -161 -151 -183v-91c0 -88 -45 -137 -120 -147v49c40 10 48 30 50 77h-53v112
c-96 22 -139 98 -161 163l151 33c12 -50 26 -77 70 -77c38 0 53 20 53 59z" />
    <glyph glyph-name="Scedilla.alt2" horiz-adv-x="411" 
d="M368 185v-38c0 -73 -32 -124 -97 -145v-97c0 -88 -45 -137 -120 -147v49c40 10 48 30 50 77h-53v115c-76 17 -107 78 -107 174v51h112v-73c0 -36 16 -59 51 -59c37 0 51 23 51 59v30c0 56 -36 79 -102 120c-58 36 -105 77 -105 172v23c0 100 54 160 162 160
c118 0 156 -65 156 -180v-23h-110v45c0 36 -14 59 -49 59c-37 0 -46 -23 -46 -55v-22c0 -53 26 -66 96 -110c59 -37 111 -77 111 -185z" />
    <glyph glyph-name="scedilla" unicode="&#x15f;" horiz-adv-x="604" 
d="M296 527c-55 0 -86 -16 -86 -47c0 -37 25 -48 130 -73c128 -30 232 -66 232 -205c0 -127 -73 -193 -207 -207v-90c0 -88 -45 -137 -120 -147v49c40 10 48 30 50 77h-53v112c-144 16 -213 94 -213 224h168c0 -54 27 -84 102 -84c71 0 100 17 100 53c0 41 -43 49 -123 67
c-154 35 -237 90 -237 210c0 125 105 193 259 193c157 0 248 -57 256 -196h-168c-2 38 -26 64 -90 64z" />
    <glyph glyph-name="scedilla" unicode="&#xf6c2;" horiz-adv-x="604" 
d="M296 527c-55 0 -86 -16 -86 -47c0 -37 25 -48 130 -73c128 -30 232 -66 232 -205c0 -127 -73 -193 -207 -207v-90c0 -88 -45 -137 -120 -147v49c40 10 48 30 50 77h-53v112c-144 16 -213 94 -213 224h168c0 -54 27 -84 102 -84c71 0 100 17 100 53c0 41 -43 49 -123 67
c-154 35 -237 90 -237 210c0 125 105 193 259 193c157 0 248 -57 256 -196h-168c-2 38 -26 64 -90 64z" />
    <glyph glyph-name="Scaron.alt2" horiz-adv-x="411" 
d="M204 773l49 33h80l-122 -120h-14l-122 120h80zM368 185v-38c0 -95 -55 -154 -168 -154s-159 65 -159 180v51h112v-73c0 -36 16 -59 51 -59c37 0 51 23 51 59v30c0 56 -36 79 -102 120c-58 36 -105 77 -105 172v23c0 100 54 160 162 160c118 0 156 -65 156 -180v-23h-110
v45c0 36 -14 59 -49 59c-37 0 -46 -23 -46 -55v-22c0 -53 26 -66 96 -110c59 -37 111 -77 111 -185z" />
    <glyph glyph-name="Scommaaccent" unicode="&#x218;" 
d="M236 -34c37 0 68 -29 68 -72c0 -75 -66 -120 -129 -138l-2 6c40 29 62 49 62 83c-43 2 -62 29 -62 61c0 33 27 60 63 60zM294 174c0 90 -256 93 -256 302c0 120 91 186 201 186c114 0 164 -58 193 -134l-130 -47c-11 37 -26 56 -61 56c-27 0 -48 -11 -48 -50
c0 -97 262 -89 262 -308c0 -100 -72 -190 -215 -190c-137 0 -194 93 -220 170l151 33c12 -50 26 -77 70 -77c38 0 53 20 53 59z" />
    <glyph glyph-name="Scommaaccent.alt2" horiz-adv-x="411" 
d="M207 -34c37 0 68 -29 68 -72c0 -75 -66 -120 -129 -138l-2 6c40 29 62 49 62 83c-43 2 -62 29 -62 61c0 33 27 60 63 60zM368 185v-38c0 -95 -55 -154 -168 -154s-159 65 -159 180v51h112v-73c0 -36 16 -59 51 -59c37 0 51 23 51 59v30c0 56 -36 79 -102 120
c-58 36 -105 77 -105 172v23c0 100 54 160 162 160c118 0 156 -65 156 -180v-23h-110v45c0 36 -14 59 -49 59c-37 0 -46 -23 -46 -55v-22c0 -53 26 -66 96 -110c59 -37 111 -77 111 -185z" />
    <glyph glyph-name="scommaaccent" unicode="&#x219;" horiz-adv-x="604" 
d="M296 527c-55 0 -86 -16 -86 -47c0 -37 25 -48 130 -73c128 -30 232 -66 232 -205c0 -144 -94 -210 -267 -210c-186 0 -276 81 -276 228h168c0 -54 27 -84 102 -84c71 0 100 17 100 53c0 41 -43 49 -123 67c-154 35 -237 90 -237 210c0 125 105 193 259 193
c157 0 248 -57 256 -196h-168c-2 38 -26 64 -90 64zM300 -34c37 0 68 -29 68 -72c0 -75 -66 -120 -129 -138l-2 6c40 29 62 49 62 83c-43 2 -62 29 -62 61c0 33 27 60 63 60z" />
    <glyph glyph-name="Tcommaaccent" unicode="&#x162;" horiz-adv-x="379" 
d="M187 -34c37 0 68 -29 68 -72c0 -75 -66 -120 -129 -138l-2 6c40 29 62 49 62 83c-43 2 -62 29 -62 61c0 33 27 60 63 60zM353 650v-108h-106v-542h-116v542h-106v108h328z" />
    <glyph glyph-name="Tcommaaccent" unicode="&#x21a;" horiz-adv-x="379" 
d="M187 -34c37 0 68 -29 68 -72c0 -75 -66 -120 -129 -138l-2 6c40 29 62 49 62 83c-43 2 -62 29 -62 61c0 33 27 60 63 60zM353 650v-108h-106v-542h-116v542h-106v108h328z" />
    <glyph glyph-name="tcommaaccent" unicode="&#x163;" horiz-adv-x="437" 
d="M216 -34c37 0 68 -29 68 -72c0 -75 -66 -120 -129 -138l-2 6c40 29 62 49 62 83c-43 2 -62 29 -62 61c0 33 27 60 63 60zM419 650v-140h-120v-510h-161v510h-120v140h401z" />
    <glyph glyph-name="tcommaaccent" unicode="&#x21b;" horiz-adv-x="437" 
d="M216 -34c37 0 68 -29 68 -72c0 -75 -66 -120 -129 -138l-2 6c40 29 62 49 62 83c-43 2 -62 29 -62 61c0 33 27 60 63 60zM419 650v-140h-120v-510h-161v510h-120v140h401z" />
    <glyph glyph-name="Tcaron" unicode="&#x164;" horiz-adv-x="379" 
d="M189 773l49 33h80l-122 -120h-14l-122 120h80zM353 650v-108h-106v-542h-116v542h-106v108h328z" />
    <glyph glyph-name="tcaron" unicode="&#x165;" horiz-adv-x="437" 
d="M218 773l49 33h80l-122 -120h-14l-122 120h80zM419 650v-140h-120v-510h-161v510h-120v140h401z" />
    <glyph glyph-name="Umacron" unicode="&#x16a;" horiz-adv-x="433" 
d="M340 698h-248v74h248v-74zM379 650v-475c0 -120 -48 -182 -161 -182s-164 67 -164 182v475h116v-497c0 -36 13 -59 48 -59c37 0 48 23 48 59v497h113z" />
    <glyph glyph-name="umacron" unicode="&#x16b;" horiz-adv-x="668" 
d="M458 698h-248v74h248v-74zM608 650v-388c0 -200 -119 -278 -274 -278s-274 82 -274 278v388h192v-402c0 -66 23 -103 82 -103c58 0 82 34 82 103v402h192z" />
    <glyph glyph-name="Ubreve" unicode="&#x16c;" horiz-adv-x="433" 
d="M342 808c0 -65 -49 -116 -126 -116s-126 51 -126 116h78c0 -27 19 -44 48 -44s48 17 48 44h78zM379 650v-475c0 -120 -48 -182 -161 -182s-164 67 -164 182v475h116v-497c0 -36 13 -59 48 -59c37 0 48 23 48 59v497h113z" />
    <glyph glyph-name="ubreve" unicode="&#x16d;" horiz-adv-x="668" 
d="M460 808c0 -65 -49 -116 -126 -116s-126 51 -126 116h78c0 -27 19 -44 48 -44s48 17 48 44h78zM608 650v-388c0 -200 -119 -278 -274 -278s-274 82 -274 278v388h192v-402c0 -66 23 -103 82 -103c58 0 82 34 82 103v402h192z" />
    <glyph glyph-name="Uring" unicode="&#x16e;" horiz-adv-x="433" 
d="M216 878c59 0 105 -46 105 -104c0 -59 -46 -105 -105 -105s-105 46 -105 105c0 58 46 104 105 104zM216 844c-40 0 -66 -31 -66 -70c0 -40 26 -71 66 -71s66 31 66 71c0 39 -26 70 -66 70zM379 650v-475c0 -120 -48 -182 -161 -182s-164 67 -164 182v475h116v-497
c0 -36 13 -59 48 -59c37 0 48 23 48 59v497h113z" />
    <glyph glyph-name="uring" unicode="&#x16f;" horiz-adv-x="668" 
d="M334 868c59 0 105 -46 105 -104c0 -59 -46 -105 -105 -105s-105 46 -105 105c0 58 46 104 105 104zM334 834c-40 0 -66 -31 -66 -70c0 -40 26 -71 66 -71s66 31 66 71c0 39 -26 70 -66 70zM608 650v-388c0 -200 -119 -278 -274 -278s-274 82 -274 278v388h192v-402
c0 -66 23 -103 82 -103c58 0 82 34 82 103v402h192z" />
    <glyph glyph-name="Uhungarumlaut" unicode="&#x170;" horiz-adv-x="433" 
d="M321 688h-84l46 136h88zM183 688h-84l46 136h88zM379 650v-475c0 -120 -48 -182 -161 -182s-164 67 -164 182v475h116v-497c0 -36 13 -59 48 -59c37 0 48 23 48 59v497h113z" />
    <glyph glyph-name="uhungarumlaut" unicode="&#x171;" horiz-adv-x="668" 
d="M439 688h-84l46 136h88zM301 688h-84l46 136h88zM608 650v-388c0 -200 -119 -278 -274 -278s-274 82 -274 278v388h192v-402c0 -66 23 -103 82 -103c58 0 82 34 82 103v402h192z" />
    <glyph glyph-name="Uogonek" unicode="&#x172;" horiz-adv-x="433" 
d="M379 650v-475c0 -94 -29 -152 -96 -173c-33 -22 -45 -45 -45 -64c0 -18 12 -32 32 -32c16 0 33 7 43 15v-76c-9 -5 -37 -11 -61 -11c-64 0 -108 31 -108 82c0 37 25 63 52 78c-98 8 -142 73 -142 181v475h116v-497c0 -36 13 -59 48 -59c37 0 48 23 48 59v497h113z" />
    <glyph glyph-name="uogonek" unicode="&#x173;" horiz-adv-x="668" 
d="M608 650v-388c0 -172 -88 -254 -211 -273c-20 -18 -28 -34 -28 -51c0 -18 12 -32 32 -32c16 0 33 7 43 15v-76c-9 -5 -37 -11 -61 -11c-64 0 -108 31 -108 82c0 30 16 53 37 69c-144 7 -252 90 -252 277v388h192v-402c0 -66 23 -103 82 -103c58 0 82 34 82 103v402h192z
" />
    <glyph glyph-name="Zacute" unicode="&#x179;" horiz-adv-x="528" 
d="M302 688l60 136h-128l-16 -136h84zM271 147h225v-147h-481v7l247 495h-227v148h483v-7z" />
    <glyph glyph-name="zacute" unicode="&#x17a;" horiz-adv-x="370" 
d="M233 688l60 136h-128l-16 -136h84zM146 101h197v-101h-323v81l208 468h-186v101h312v-81z" />
    <glyph glyph-name="Zdotaccent" unicode="&#x17b;" horiz-adv-x="528" 
d="M265 848c42 0 76 -34 76 -77c0 -42 -34 -76 -76 -76s-76 34 -76 76c0 43 34 77 76 77zM271 147h225v-147h-481v7l247 495h-227v148h483v-7z" />
    <glyph glyph-name="zdotaccent" unicode="&#x17c;" horiz-adv-x="370" 
d="M198 848c42 0 76 -34 76 -77c0 -42 -34 -76 -76 -76s-76 34 -76 76c0 43 34 77 76 77zM146 101h197v-101h-323v81l208 468h-186v101h312v-81z" />
    <glyph glyph-name="Eth" unicode="&#xd0;" horiz-adv-x="449" 
d="M231 650c107 0 168 -71 168 -179v-294c0 -108 -60 -177 -168 -177h-171v284h-40v82h40v284h171zM176 102h45c34 0 62 13 62 59v324c0 45 -23 63 -62 63h-45v-182h66v-82h-66v-182z" />
    </font>
</defs>
</svg>
